%FSLAX24Y24*%
%MOIN*%
G70*
G01*
G75*
G04 Layer_Color=32896*
%ADD10R,0.0433X0.0551*%
%ADD11R,0.0354X0.0276*%
%ADD12R,0.0335X0.0138*%
%ADD13R,0.0276X0.0354*%
%ADD14C,0.0100*%
%ADD15C,0.0300*%
%ADD16C,0.0250*%
%ADD17R,0.0591X0.0591*%
%ADD18C,0.0591*%
%ADD19C,0.1969*%
%ADD20C,0.0150*%
%ADD21C,0.0200*%
%ADD22C,0.0098*%
%ADD23C,0.0079*%
%ADD24C,0.0063*%
%ADD25C,0.0060*%
%ADD26R,0.0513X0.0631*%
%ADD27R,0.0434X0.0356*%
%ADD28R,0.0415X0.0218*%
%ADD29R,0.0356X0.0434*%
%ADD30R,0.0671X0.0671*%
%ADD31C,0.0671*%
%ADD32C,0.2049*%
%ADD33C,0.0080*%
G36*
X15015Y48873D02*
X15018Y48871D01*
X15020Y48868D01*
Y48866D01*
X15025Y48846D01*
Y48832D01*
X15057Y48678D01*
Y48673D01*
X15059Y48670D01*
X15064D01*
X15189Y48617D01*
X15194Y48614D01*
X15198D01*
X15201Y48617D01*
X15330Y48705D01*
X15340Y48712D01*
X15342Y48717D01*
X15345D01*
X15357Y48724D01*
X15362Y48727D01*
X15367D01*
X15369Y48724D01*
X15381Y48712D01*
X15394Y48700D01*
X15428Y48666D01*
X15440Y48653D01*
X15479Y48617D01*
X15491Y48607D01*
X15504Y48595D01*
Y48587D01*
X15506Y48585D01*
X15504Y48583D01*
Y48580D01*
X15491Y48565D01*
X15489Y48561D01*
Y48558D01*
X15486Y48553D01*
X15484Y48551D01*
X15396Y48426D01*
Y48421D01*
Y48419D01*
Y48417D01*
Y48414D01*
X15452Y48285D01*
X15455Y48280D01*
X15457Y48277D01*
X15462D01*
X15609Y48248D01*
X15613Y48246D01*
X15623D01*
X15643Y48241D01*
X15648D01*
X15650Y48238D01*
Y48236D01*
Y48233D01*
Y48214D01*
Y48197D01*
Y48146D01*
Y48131D01*
Y48080D01*
Y48065D01*
Y48046D01*
X15648Y48041D01*
X15645Y48038D01*
X15643D01*
X15623Y48033D01*
X15618D01*
X15616Y48031D01*
X15609D01*
X15606Y48028D01*
X15467Y48006D01*
X15464Y48002D01*
X15462Y47999D01*
X15457Y47997D01*
X15455Y47994D01*
X15399Y47858D01*
Y47845D01*
X15482Y47728D01*
X15486Y47721D01*
X15489Y47718D01*
X15491Y47714D01*
Y47711D01*
X15501Y47699D01*
X15504Y47696D01*
Y47694D01*
Y47692D01*
X15501Y47689D01*
Y47687D01*
X15491Y47672D01*
X15479Y47665D01*
X15440Y47626D01*
X15428Y47613D01*
X15391Y47579D01*
X15379Y47567D01*
X15369Y47555D01*
X15364Y47552D01*
X15362D01*
X15357Y47555D01*
X15345Y47562D01*
X15338Y47567D01*
X15333Y47572D01*
X15330Y47574D01*
X15216Y47653D01*
X15211Y47655D01*
X15201D01*
X15198Y47653D01*
X15176Y47640D01*
X15172Y47638D01*
X15169Y47635D01*
X15164Y47633D01*
X15162D01*
X15137Y47618D01*
X15133D01*
X15128Y47621D01*
X15125D01*
X15118Y47650D01*
X15115Y47655D01*
Y47657D01*
X15113Y47662D01*
X15111Y47665D01*
X15013Y47904D01*
X15010Y47909D01*
Y47911D01*
X15006Y47919D01*
X15003Y47921D01*
X14996Y47936D01*
Y47941D01*
X14998Y47943D01*
Y47948D01*
X15001D01*
X15015Y47958D01*
X15020Y47960D01*
X15023Y47963D01*
X15025Y47965D01*
X15028Y47967D01*
X15057Y47989D01*
X15076Y48014D01*
X15086Y48024D01*
X15091Y48031D01*
X15093Y48036D01*
X15096Y48038D01*
X15111Y48072D01*
X15118Y48104D01*
Y48119D01*
X15120Y48129D01*
Y48136D01*
Y48138D01*
X15118Y48168D01*
X15113Y48192D01*
X15111Y48202D01*
X15108Y48209D01*
X15106Y48214D01*
Y48216D01*
X15093Y48243D01*
X15079Y48265D01*
X15069Y48277D01*
X15064Y48282D01*
X15042Y48302D01*
X15020Y48316D01*
X15003Y48324D01*
X15001Y48326D01*
X14998D01*
X14969Y48336D01*
X14945Y48341D01*
X14932Y48343D01*
X14918D01*
X14888Y48341D01*
X14864Y48336D01*
X14854Y48331D01*
X14847Y48329D01*
X14842Y48326D01*
X14840D01*
X14815Y48314D01*
X14793Y48299D01*
X14781Y48287D01*
X14776Y48285D01*
Y48282D01*
X14757Y48260D01*
X14742Y48238D01*
X14737Y48231D01*
X14735Y48224D01*
X14732Y48219D01*
Y48216D01*
X14722Y48190D01*
X14718Y48163D01*
X14715Y48153D01*
Y48146D01*
Y48141D01*
Y48138D01*
Y48119D01*
X14720Y48099D01*
X14722Y48082D01*
X14727Y48067D01*
X14732Y48055D01*
X14737Y48046D01*
X14740Y48041D01*
X14742Y48038D01*
X14764Y48009D01*
X14786Y47987D01*
X14796Y47977D01*
X14803Y47972D01*
X14808Y47970D01*
X14810Y47967D01*
X14818Y47958D01*
X14835Y47948D01*
X14837Y47945D01*
X14840Y47943D01*
X14837Y47938D01*
Y47936D01*
X14830Y47921D01*
X14827Y47914D01*
Y47911D01*
X14825Y47906D01*
Y47904D01*
X14722Y47665D01*
Y47660D01*
Y47657D01*
X14720Y47653D01*
Y47650D01*
X14708Y47621D01*
X14705Y47618D01*
X14696D01*
X14674Y47633D01*
X14666Y47635D01*
X14664D01*
X14659Y47638D01*
X14657Y47640D01*
X14635Y47653D01*
X14630Y47655D01*
X14625D01*
X14622Y47653D01*
X14508Y47574D01*
X14503Y47572D01*
X14500Y47570D01*
X14495Y47565D01*
X14493Y47562D01*
X14481Y47555D01*
X14473Y47552D01*
X14469D01*
X14466Y47555D01*
X14451Y47567D01*
X14442Y47579D01*
X14408Y47613D01*
X14395Y47626D01*
X14359Y47665D01*
X14347Y47672D01*
X14334Y47687D01*
X14332Y47689D01*
Y47692D01*
Y47696D01*
X14334Y47699D01*
X14344Y47711D01*
X14347Y47716D01*
X14349Y47718D01*
X14351Y47726D01*
X14354Y47728D01*
X14434Y47845D01*
X14437Y47850D01*
Y47853D01*
X14434Y47858D01*
X14378Y47994D01*
X14376Y47997D01*
Y47999D01*
X14373Y48004D01*
X14371Y48006D01*
X14224Y48028D01*
X14220Y48031D01*
X14217D01*
X14212Y48033D01*
X14210D01*
X14195Y48038D01*
X14190Y48041D01*
X14185Y48043D01*
Y48046D01*
Y48065D01*
Y48080D01*
Y48131D01*
Y48146D01*
Y48197D01*
Y48214D01*
Y48233D01*
X14188Y48238D01*
X14190Y48241D01*
X14195D01*
X14210Y48246D01*
X14217D01*
X14224Y48248D01*
X14227D01*
X14373Y48277D01*
X14378Y48280D01*
X14383Y48282D01*
X14386Y48285D01*
X14442Y48414D01*
Y48417D01*
Y48419D01*
X14439Y48424D01*
X14437Y48426D01*
X14354Y48551D01*
X14351Y48556D01*
X14349Y48558D01*
X14347Y48563D01*
X14344Y48565D01*
X14334Y48580D01*
X14332Y48585D01*
Y48590D01*
X14334Y48595D01*
X14347Y48607D01*
X14359Y48617D01*
X14393Y48653D01*
X14408Y48666D01*
X14442Y48700D01*
X14451Y48712D01*
X14466Y48724D01*
X14471Y48729D01*
X14476D01*
X14478Y48727D01*
X14481Y48724D01*
X14493Y48717D01*
X14498Y48712D01*
X14500Y48709D01*
X14505Y48707D01*
X14508Y48705D01*
X14632Y48617D01*
X14639Y48614D01*
X14644D01*
X14647Y48617D01*
X14649D01*
X14769Y48670D01*
X14776Y48673D01*
X14779Y48675D01*
X14781Y48678D01*
X14808Y48832D01*
Y48836D01*
X14810Y48839D01*
X14813Y48844D01*
Y48846D01*
X14818Y48866D01*
Y48868D01*
X14820Y48871D01*
X14822Y48875D01*
X15013D01*
X15015Y48873D01*
D02*
G37*
G36*
X24859D02*
X24861Y48871D01*
X24864Y48868D01*
Y48866D01*
X24868Y48846D01*
Y48832D01*
X24900Y48678D01*
Y48673D01*
X24903Y48670D01*
X24907D01*
X25032Y48617D01*
X25037Y48614D01*
X25042D01*
X25044Y48617D01*
X25174Y48705D01*
X25183Y48712D01*
X25186Y48717D01*
X25188D01*
X25200Y48724D01*
X25205Y48727D01*
X25210D01*
X25213Y48724D01*
X25225Y48712D01*
X25237Y48700D01*
X25271Y48666D01*
X25283Y48653D01*
X25322Y48617D01*
X25335Y48607D01*
X25347Y48595D01*
Y48587D01*
X25349Y48585D01*
X25347Y48583D01*
Y48580D01*
X25335Y48565D01*
X25332Y48561D01*
Y48558D01*
X25330Y48553D01*
X25327Y48551D01*
X25239Y48426D01*
Y48421D01*
Y48419D01*
Y48417D01*
Y48414D01*
X25296Y48285D01*
X25298Y48280D01*
X25300Y48277D01*
X25305D01*
X25452Y48248D01*
X25457Y48246D01*
X25466D01*
X25486Y48241D01*
X25491D01*
X25493Y48238D01*
Y48236D01*
Y48233D01*
Y48214D01*
Y48197D01*
Y48146D01*
Y48131D01*
Y48080D01*
Y48065D01*
Y48046D01*
X25491Y48041D01*
X25488Y48038D01*
X25486D01*
X25466Y48033D01*
X25462D01*
X25459Y48031D01*
X25452D01*
X25449Y48028D01*
X25310Y48006D01*
X25308Y48002D01*
X25305Y47999D01*
X25300Y47997D01*
X25298Y47994D01*
X25242Y47858D01*
Y47845D01*
X25325Y47728D01*
X25330Y47721D01*
X25332Y47718D01*
X25335Y47714D01*
Y47711D01*
X25344Y47699D01*
X25347Y47696D01*
Y47694D01*
Y47692D01*
X25344Y47689D01*
Y47687D01*
X25335Y47672D01*
X25322Y47665D01*
X25283Y47626D01*
X25271Y47613D01*
X25235Y47579D01*
X25222Y47567D01*
X25213Y47555D01*
X25208Y47552D01*
X25205D01*
X25200Y47555D01*
X25188Y47562D01*
X25181Y47567D01*
X25176Y47572D01*
X25174Y47574D01*
X25059Y47653D01*
X25054Y47655D01*
X25044D01*
X25042Y47653D01*
X25020Y47640D01*
X25015Y47638D01*
X25012Y47635D01*
X25008Y47633D01*
X25005D01*
X24981Y47618D01*
X24976D01*
X24971Y47621D01*
X24968D01*
X24961Y47650D01*
X24959Y47655D01*
Y47657D01*
X24956Y47662D01*
X24954Y47665D01*
X24856Y47904D01*
X24854Y47909D01*
Y47911D01*
X24849Y47919D01*
X24846Y47921D01*
X24839Y47936D01*
Y47941D01*
X24842Y47943D01*
Y47948D01*
X24844D01*
X24859Y47958D01*
X24864Y47960D01*
X24866Y47963D01*
X24868Y47965D01*
X24871Y47967D01*
X24900Y47989D01*
X24920Y48014D01*
X24929Y48024D01*
X24934Y48031D01*
X24937Y48036D01*
X24939Y48038D01*
X24954Y48072D01*
X24961Y48104D01*
Y48119D01*
X24964Y48129D01*
Y48136D01*
Y48138D01*
X24961Y48168D01*
X24956Y48192D01*
X24954Y48202D01*
X24951Y48209D01*
X24949Y48214D01*
Y48216D01*
X24937Y48243D01*
X24922Y48265D01*
X24912Y48277D01*
X24907Y48282D01*
X24885Y48302D01*
X24864Y48316D01*
X24846Y48324D01*
X24844Y48326D01*
X24842D01*
X24812Y48336D01*
X24788Y48341D01*
X24776Y48343D01*
X24761D01*
X24732Y48341D01*
X24707Y48336D01*
X24698Y48331D01*
X24690Y48329D01*
X24685Y48326D01*
X24683D01*
X24658Y48314D01*
X24637Y48299D01*
X24624Y48287D01*
X24619Y48285D01*
Y48282D01*
X24600Y48260D01*
X24585Y48238D01*
X24580Y48231D01*
X24578Y48224D01*
X24575Y48219D01*
Y48216D01*
X24566Y48190D01*
X24561Y48163D01*
X24558Y48153D01*
Y48146D01*
Y48141D01*
Y48138D01*
Y48119D01*
X24563Y48099D01*
X24566Y48082D01*
X24571Y48067D01*
X24575Y48055D01*
X24580Y48046D01*
X24583Y48041D01*
X24585Y48038D01*
X24607Y48009D01*
X24629Y47987D01*
X24639Y47977D01*
X24646Y47972D01*
X24651Y47970D01*
X24654Y47967D01*
X24661Y47958D01*
X24678Y47948D01*
X24680Y47945D01*
X24683Y47943D01*
X24680Y47938D01*
Y47936D01*
X24673Y47921D01*
X24671Y47914D01*
Y47911D01*
X24668Y47906D01*
Y47904D01*
X24566Y47665D01*
Y47660D01*
Y47657D01*
X24563Y47653D01*
Y47650D01*
X24551Y47621D01*
X24549Y47618D01*
X24539D01*
X24517Y47633D01*
X24510Y47635D01*
X24507D01*
X24502Y47638D01*
X24500Y47640D01*
X24478Y47653D01*
X24473Y47655D01*
X24468D01*
X24466Y47653D01*
X24351Y47574D01*
X24346Y47572D01*
X24344Y47570D01*
X24339Y47565D01*
X24336Y47562D01*
X24324Y47555D01*
X24317Y47552D01*
X24312D01*
X24309Y47555D01*
X24295Y47567D01*
X24285Y47579D01*
X24251Y47613D01*
X24239Y47626D01*
X24202Y47665D01*
X24190Y47672D01*
X24178Y47687D01*
X24175Y47689D01*
Y47692D01*
Y47696D01*
X24178Y47699D01*
X24187Y47711D01*
X24190Y47716D01*
X24192Y47718D01*
X24195Y47726D01*
X24197Y47728D01*
X24278Y47845D01*
X24280Y47850D01*
Y47853D01*
X24278Y47858D01*
X24222Y47994D01*
X24219Y47997D01*
Y47999D01*
X24217Y48004D01*
X24214Y48006D01*
X24068Y48028D01*
X24063Y48031D01*
X24060D01*
X24056Y48033D01*
X24053D01*
X24038Y48038D01*
X24034Y48041D01*
X24029Y48043D01*
Y48046D01*
Y48065D01*
Y48080D01*
Y48131D01*
Y48146D01*
Y48197D01*
Y48214D01*
Y48233D01*
X24031Y48238D01*
X24034Y48241D01*
X24038D01*
X24053Y48246D01*
X24060D01*
X24068Y48248D01*
X24070D01*
X24217Y48277D01*
X24222Y48280D01*
X24226Y48282D01*
X24229Y48285D01*
X24285Y48414D01*
Y48417D01*
Y48419D01*
X24283Y48424D01*
X24280Y48426D01*
X24197Y48551D01*
X24195Y48556D01*
X24192Y48558D01*
X24190Y48563D01*
X24187Y48565D01*
X24178Y48580D01*
X24175Y48585D01*
Y48590D01*
X24178Y48595D01*
X24190Y48607D01*
X24202Y48617D01*
X24236Y48653D01*
X24251Y48666D01*
X24285Y48700D01*
X24295Y48712D01*
X24309Y48724D01*
X24314Y48729D01*
X24319D01*
X24322Y48727D01*
X24324Y48724D01*
X24336Y48717D01*
X24341Y48712D01*
X24344Y48709D01*
X24348Y48707D01*
X24351Y48705D01*
X24475Y48617D01*
X24483Y48614D01*
X24488D01*
X24490Y48617D01*
X24492D01*
X24612Y48670D01*
X24619Y48673D01*
X24622Y48675D01*
X24624Y48678D01*
X24651Y48832D01*
Y48836D01*
X24654Y48839D01*
X24656Y48844D01*
Y48846D01*
X24661Y48866D01*
Y48868D01*
X24663Y48871D01*
X24666Y48875D01*
X24856D01*
X24859Y48873D01*
D02*
G37*
%LPC*%
G36*
X14986Y48836D02*
X14852D01*
X14818Y48639D01*
X14781Y48629D01*
X14752Y48622D01*
X14740Y48617D01*
X14730Y48612D01*
X14725Y48609D01*
X14722D01*
X14691Y48595D01*
X14664Y48580D01*
X14652Y48575D01*
X14644Y48570D01*
X14639Y48565D01*
X14637D01*
X14476Y48678D01*
X14430Y48631D01*
X14383Y48583D01*
X14493Y48421D01*
X14473Y48390D01*
X14459Y48363D01*
X14454Y48353D01*
X14449Y48343D01*
X14447Y48338D01*
Y48336D01*
X14432Y48302D01*
X14422Y48273D01*
X14417Y48260D01*
X14415Y48251D01*
X14412Y48243D01*
Y48241D01*
X14224Y48207D01*
Y48138D01*
Y48072D01*
X14412Y48038D01*
X14422Y48002D01*
X14430Y47970D01*
X14434Y47955D01*
X14439Y47945D01*
X14442Y47941D01*
Y47938D01*
X14456Y47904D01*
X14471Y47877D01*
X14478Y47865D01*
X14483Y47858D01*
X14486Y47853D01*
X14488Y47850D01*
X14383Y47696D01*
X14430Y47650D01*
X14476Y47601D01*
X14625Y47704D01*
X14635Y47696D01*
X14644Y47692D01*
X14652Y47689D01*
X14654Y47687D01*
X14664Y47682D01*
X14674Y47677D01*
X14681Y47674D01*
X14683Y47672D01*
X14791Y47926D01*
X14754Y47955D01*
X14740Y47970D01*
X14727Y47982D01*
X14718Y47994D01*
X14710Y48004D01*
X14708Y48011D01*
X14705Y48014D01*
X14693Y48036D01*
X14686Y48058D01*
X14678Y48077D01*
X14676Y48097D01*
X14674Y48114D01*
X14671Y48126D01*
Y48136D01*
Y48138D01*
X14674Y48175D01*
X14681Y48204D01*
X14683Y48216D01*
X14688Y48226D01*
X14691Y48231D01*
Y48233D01*
X14708Y48265D01*
X14725Y48290D01*
X14732Y48299D01*
X14740Y48307D01*
X14742Y48309D01*
X14744Y48312D01*
X14771Y48334D01*
X14798Y48351D01*
X14808Y48358D01*
X14818Y48363D01*
X14822Y48365D01*
X14825D01*
X14857Y48377D01*
X14888Y48385D01*
X14901Y48387D01*
X14918D01*
X14954Y48385D01*
X14986Y48377D01*
X14998Y48373D01*
X15008Y48368D01*
X15013Y48365D01*
X15015D01*
X15047Y48348D01*
X15071Y48331D01*
X15081Y48324D01*
X15086Y48316D01*
X15091Y48314D01*
X15093Y48312D01*
X15115Y48287D01*
X15133Y48260D01*
X15140Y48251D01*
X15142Y48241D01*
X15147Y48236D01*
Y48233D01*
X15157Y48199D01*
X15162Y48170D01*
X15164Y48158D01*
Y48148D01*
Y48141D01*
Y48138D01*
X15162Y48114D01*
X15159Y48089D01*
X15154Y48070D01*
X15147Y48050D01*
X15142Y48036D01*
X15137Y48024D01*
X15135Y48016D01*
X15133Y48014D01*
X15106Y47977D01*
X15091Y47963D01*
X15079Y47950D01*
X15067Y47941D01*
X15057Y47933D01*
X15050Y47928D01*
X15047Y47926D01*
X15154Y47672D01*
X15174Y47682D01*
X15191Y47692D01*
X15203Y47701D01*
X15208Y47704D01*
X15362Y47601D01*
X15408Y47650D01*
X15455Y47696D01*
X15350Y47850D01*
X15369Y47880D01*
X15384Y47909D01*
X15389Y47921D01*
X15394Y47931D01*
X15396Y47936D01*
Y47938D01*
X15408Y47975D01*
X15418Y48006D01*
X15421Y48019D01*
X15423Y48028D01*
X15425Y48036D01*
Y48038D01*
X15606Y48072D01*
Y48138D01*
Y48207D01*
X15421Y48241D01*
X15411Y48277D01*
X15401Y48307D01*
X15399Y48319D01*
X15394Y48329D01*
X15391Y48334D01*
Y48336D01*
X15377Y48368D01*
X15360Y48395D01*
X15355Y48407D01*
X15350Y48414D01*
X15345Y48419D01*
Y48421D01*
X15455Y48583D01*
X15408Y48631D01*
X15362Y48678D01*
X15196Y48565D01*
X15167Y48583D01*
X15140Y48597D01*
X15130Y48602D01*
X15120Y48607D01*
X15115Y48609D01*
X15113D01*
X15079Y48622D01*
X15050Y48631D01*
X15037Y48634D01*
X15028Y48636D01*
X15023Y48639D01*
X15020D01*
X14986Y48836D01*
D02*
G37*
G36*
X24829D02*
X24695D01*
X24661Y48639D01*
X24624Y48629D01*
X24595Y48622D01*
X24583Y48617D01*
X24573Y48612D01*
X24568Y48609D01*
X24566D01*
X24534Y48595D01*
X24507Y48580D01*
X24495Y48575D01*
X24488Y48570D01*
X24483Y48565D01*
X24480D01*
X24319Y48678D01*
X24273Y48631D01*
X24226Y48583D01*
X24336Y48421D01*
X24317Y48390D01*
X24302Y48363D01*
X24297Y48353D01*
X24292Y48343D01*
X24290Y48338D01*
Y48336D01*
X24275Y48302D01*
X24265Y48273D01*
X24261Y48260D01*
X24258Y48251D01*
X24256Y48243D01*
Y48241D01*
X24068Y48207D01*
Y48138D01*
Y48072D01*
X24256Y48038D01*
X24265Y48002D01*
X24273Y47970D01*
X24278Y47955D01*
X24283Y47945D01*
X24285Y47941D01*
Y47938D01*
X24300Y47904D01*
X24314Y47877D01*
X24322Y47865D01*
X24327Y47858D01*
X24329Y47853D01*
X24331Y47850D01*
X24226Y47696D01*
X24273Y47650D01*
X24319Y47601D01*
X24468Y47704D01*
X24478Y47696D01*
X24488Y47692D01*
X24495Y47689D01*
X24497Y47687D01*
X24507Y47682D01*
X24517Y47677D01*
X24524Y47674D01*
X24527Y47672D01*
X24634Y47926D01*
X24597Y47955D01*
X24583Y47970D01*
X24571Y47982D01*
X24561Y47994D01*
X24554Y48004D01*
X24551Y48011D01*
X24549Y48014D01*
X24536Y48036D01*
X24529Y48058D01*
X24522Y48077D01*
X24519Y48097D01*
X24517Y48114D01*
X24514Y48126D01*
Y48136D01*
Y48138D01*
X24517Y48175D01*
X24524Y48204D01*
X24527Y48216D01*
X24532Y48226D01*
X24534Y48231D01*
Y48233D01*
X24551Y48265D01*
X24568Y48290D01*
X24575Y48299D01*
X24583Y48307D01*
X24585Y48309D01*
X24588Y48312D01*
X24615Y48334D01*
X24641Y48351D01*
X24651Y48358D01*
X24661Y48363D01*
X24666Y48365D01*
X24668D01*
X24700Y48377D01*
X24732Y48385D01*
X24744Y48387D01*
X24761D01*
X24798Y48385D01*
X24829Y48377D01*
X24842Y48373D01*
X24851Y48368D01*
X24856Y48365D01*
X24859D01*
X24890Y48348D01*
X24915Y48331D01*
X24925Y48324D01*
X24929Y48316D01*
X24934Y48314D01*
X24937Y48312D01*
X24959Y48287D01*
X24976Y48260D01*
X24983Y48251D01*
X24986Y48241D01*
X24990Y48236D01*
Y48233D01*
X25000Y48199D01*
X25005Y48170D01*
X25008Y48158D01*
Y48148D01*
Y48141D01*
Y48138D01*
X25005Y48114D01*
X25003Y48089D01*
X24998Y48070D01*
X24990Y48050D01*
X24986Y48036D01*
X24981Y48024D01*
X24978Y48016D01*
X24976Y48014D01*
X24949Y47977D01*
X24934Y47963D01*
X24922Y47950D01*
X24910Y47941D01*
X24900Y47933D01*
X24893Y47928D01*
X24890Y47926D01*
X24998Y47672D01*
X25017Y47682D01*
X25034Y47692D01*
X25047Y47701D01*
X25051Y47704D01*
X25205Y47601D01*
X25252Y47650D01*
X25298Y47696D01*
X25193Y47850D01*
X25213Y47880D01*
X25227Y47909D01*
X25232Y47921D01*
X25237Y47931D01*
X25239Y47936D01*
Y47938D01*
X25252Y47975D01*
X25261Y48006D01*
X25264Y48019D01*
X25266Y48028D01*
X25269Y48036D01*
Y48038D01*
X25449Y48072D01*
Y48138D01*
Y48207D01*
X25264Y48241D01*
X25254Y48277D01*
X25244Y48307D01*
X25242Y48319D01*
X25237Y48329D01*
X25235Y48334D01*
Y48336D01*
X25220Y48368D01*
X25203Y48395D01*
X25198Y48407D01*
X25193Y48414D01*
X25188Y48419D01*
Y48421D01*
X25298Y48583D01*
X25252Y48631D01*
X25205Y48678D01*
X25039Y48565D01*
X25010Y48583D01*
X24983Y48597D01*
X24973Y48602D01*
X24964Y48607D01*
X24959Y48609D01*
X24956D01*
X24922Y48622D01*
X24893Y48631D01*
X24881Y48634D01*
X24871Y48636D01*
X24866Y48639D01*
X24864D01*
X24829Y48836D01*
D02*
G37*
%LPD*%
D14*
X25493Y32250D02*
X25160D01*
X25327Y32417D02*
Y32083D01*
X15650Y32250D02*
X15317D01*
X15483Y32417D02*
Y32083D01*
D15*
X19893Y30450D02*
Y49750D01*
D23*
X22743Y42750D02*
Y43750D01*
X20743D02*
X22743D01*
X20743Y42750D02*
Y43750D01*
Y42750D02*
X22743D01*
Y41600D02*
Y42600D01*
X20743D02*
X22743D01*
X20743Y41600D02*
Y42600D01*
Y41600D02*
X22743D01*
Y40450D02*
Y41450D01*
X20743D02*
X22743D01*
X20743Y40450D02*
Y41450D01*
Y40450D02*
X22743D01*
Y39300D02*
Y40300D01*
X20743D02*
X22743D01*
X20743Y39300D02*
Y40300D01*
Y39300D02*
X22743D01*
X25793Y32600D02*
Y33600D01*
X23793D02*
X25793D01*
X23793Y32600D02*
Y33600D01*
Y32600D02*
X25793D01*
X22743Y38150D02*
Y39150D01*
X20743D02*
X22743D01*
X20743Y38150D02*
Y39150D01*
Y38150D02*
X22743D01*
Y37000D02*
Y38000D01*
X20743D02*
X22743D01*
X20743Y37000D02*
Y38000D01*
Y37000D02*
X22743D01*
Y35850D02*
Y36850D01*
X20743D02*
X22743D01*
X20743Y35850D02*
Y36850D01*
Y35850D02*
X22743D01*
Y34700D02*
Y35700D01*
X20743D02*
X22743D01*
X20743Y34700D02*
Y35700D01*
Y34700D02*
X22743D01*
X26843Y42750D02*
Y43750D01*
Y42750D02*
X28843D01*
Y43750D01*
X26843D02*
X28843D01*
X26843Y41600D02*
Y42600D01*
Y41600D02*
X28843D01*
Y42600D01*
X26843D02*
X28843D01*
X26843Y40450D02*
Y41450D01*
Y40450D02*
X28843D01*
Y41450D01*
X26843D02*
X28843D01*
X26843Y39300D02*
Y40300D01*
Y39300D02*
X28843D01*
Y40300D01*
X26843D02*
X28843D01*
X26843Y38150D02*
Y39150D01*
Y38150D02*
X28843D01*
Y39150D01*
X26843D02*
X28843D01*
X26843Y37000D02*
Y38000D01*
Y37000D02*
X28843D01*
Y38000D01*
X26843D02*
X28843D01*
X26843Y35850D02*
Y36850D01*
Y35850D02*
X28843D01*
Y36850D01*
X26843D02*
X28843D01*
X26843Y34700D02*
Y35700D01*
Y34700D02*
X28843D01*
Y35700D01*
X26843D02*
X28843D01*
X20293Y46450D02*
X29293D01*
X20293Y44450D02*
X29293D01*
X20293D02*
Y46450D01*
X29293Y44450D02*
Y46450D01*
X12900Y42750D02*
Y43750D01*
X10900D02*
X12900D01*
X10900Y42750D02*
Y43750D01*
Y42750D02*
X12900D01*
Y41600D02*
Y42600D01*
X10900D02*
X12900D01*
X10900Y41600D02*
Y42600D01*
Y41600D02*
X12900D01*
Y40450D02*
Y41450D01*
X10900D02*
X12900D01*
X10900Y40450D02*
Y41450D01*
Y40450D02*
X12900D01*
Y39300D02*
Y40300D01*
X10900D02*
X12900D01*
X10900Y39300D02*
Y40300D01*
Y39300D02*
X12900D01*
X15950Y32600D02*
Y33600D01*
X13950D02*
X15950D01*
X13950Y32600D02*
Y33600D01*
Y32600D02*
X15950D01*
X12900Y38150D02*
Y39150D01*
X10900D02*
X12900D01*
X10900Y38150D02*
Y39150D01*
Y38150D02*
X12900D01*
Y37000D02*
Y38000D01*
X10900D02*
X12900D01*
X10900Y37000D02*
Y38000D01*
Y37000D02*
X12900D01*
Y35850D02*
Y36850D01*
X10900D02*
X12900D01*
X10900Y35850D02*
Y36850D01*
Y35850D02*
X12900D01*
Y34700D02*
Y35700D01*
X10900D02*
X12900D01*
X10900Y34700D02*
Y35700D01*
Y34700D02*
X12900D01*
X17000Y42750D02*
Y43750D01*
Y42750D02*
X19000D01*
Y43750D01*
X17000D02*
X19000D01*
X17000Y41600D02*
Y42600D01*
Y41600D02*
X19000D01*
Y42600D01*
X17000D02*
X19000D01*
X17000Y40450D02*
Y41450D01*
Y40450D02*
X19000D01*
Y41450D01*
X17000D02*
X19000D01*
X17000Y39300D02*
Y40300D01*
Y39300D02*
X19000D01*
Y40300D01*
X17000D02*
X19000D01*
X17000Y38150D02*
Y39150D01*
Y38150D02*
X19000D01*
Y39150D01*
X17000D02*
X19000D01*
X17000Y37000D02*
Y38000D01*
Y37000D02*
X19000D01*
Y38000D01*
X17000D02*
X19000D01*
X17000Y35850D02*
Y36850D01*
Y35850D02*
X19000D01*
Y36850D01*
X17000D02*
X19000D01*
X17000Y34700D02*
Y35700D01*
Y34700D02*
X19000D01*
Y35700D01*
X17000D02*
X19000D01*
X10450Y46450D02*
X19450D01*
X10450Y44450D02*
X19450D01*
X10450D02*
Y46450D01*
X19450Y44450D02*
Y46450D01*
D25*
X20593Y43750D02*
X20273D01*
Y43590D01*
X20327Y43537D01*
X20433D01*
X20487Y43590D01*
Y43750D01*
X20327Y43430D02*
X20273Y43377D01*
Y43270D01*
X20327Y43217D01*
X20540D01*
X20593Y43270D01*
Y43377D01*
X20540Y43430D01*
X20327D01*
X20593Y42600D02*
X20273D01*
Y42440D01*
X20327Y42387D01*
X20433D01*
X20487Y42440D01*
Y42600D01*
X20593Y42280D02*
Y42173D01*
Y42227D01*
X20273D01*
X20327Y42280D01*
X20593Y41450D02*
X20273D01*
Y41290D01*
X20327Y41237D01*
X20433D01*
X20487Y41290D01*
Y41450D01*
X20593Y40917D02*
Y41130D01*
X20380Y40917D01*
X20327D01*
X20273Y40970D01*
Y41077D01*
X20327Y41130D01*
X20593Y40300D02*
X20273D01*
Y40140D01*
X20327Y40087D01*
X20433D01*
X20487Y40140D01*
Y40300D01*
X20327Y39980D02*
X20273Y39927D01*
Y39820D01*
X20327Y39767D01*
X20380D01*
X20433Y39820D01*
Y39873D01*
Y39820D01*
X20487Y39767D01*
X20540D01*
X20593Y39820D01*
Y39927D01*
X20540Y39980D01*
X25943Y32750D02*
X26263D01*
Y32910D01*
X26210Y32963D01*
X26103D01*
X26050Y32910D01*
Y32750D01*
X25943Y33070D02*
Y33177D01*
Y33123D01*
X26263D01*
X26210Y33070D01*
X26263Y33336D02*
Y33550D01*
X26210D01*
X25997Y33336D01*
X25943D01*
X20593Y39150D02*
X20273D01*
Y38990D01*
X20327Y38937D01*
X20433D01*
X20487Y38990D01*
Y39150D01*
X20593Y38670D02*
X20273D01*
X20433Y38830D01*
Y38617D01*
X20593Y38000D02*
X20273D01*
Y37840D01*
X20327Y37787D01*
X20433D01*
X20487Y37840D01*
Y38000D01*
X20273Y37467D02*
Y37680D01*
X20433D01*
X20380Y37573D01*
Y37520D01*
X20433Y37467D01*
X20540D01*
X20593Y37520D01*
Y37627D01*
X20540Y37680D01*
X20593Y36850D02*
X20273D01*
Y36690D01*
X20327Y36637D01*
X20433D01*
X20487Y36690D01*
Y36850D01*
X20273Y36317D02*
X20327Y36423D01*
X20433Y36530D01*
X20540D01*
X20593Y36477D01*
Y36370D01*
X20540Y36317D01*
X20487D01*
X20433Y36370D01*
Y36530D01*
X20593Y35700D02*
X20273D01*
Y35540D01*
X20327Y35487D01*
X20433D01*
X20487Y35540D01*
Y35700D01*
X20273Y35380D02*
Y35167D01*
X20327D01*
X20540Y35380D01*
X20593D01*
X29293Y43750D02*
X28973D01*
Y43590D01*
X29027Y43537D01*
X29133D01*
X29187Y43590D01*
Y43750D01*
X29027Y43430D02*
X28973Y43377D01*
Y43270D01*
X29027Y43217D01*
X29080D01*
X29133Y43270D01*
X29187Y43217D01*
X29240D01*
X29293Y43270D01*
Y43377D01*
X29240Y43430D01*
X29187D01*
X29133Y43377D01*
X29080Y43430D01*
X29027D01*
X29133Y43377D02*
Y43270D01*
X29293Y42600D02*
X28973D01*
Y42440D01*
X29027Y42387D01*
X29133D01*
X29187Y42440D01*
Y42600D01*
X29240Y42280D02*
X29293Y42227D01*
Y42120D01*
X29240Y42067D01*
X29027D01*
X28973Y42120D01*
Y42227D01*
X29027Y42280D01*
X29080D01*
X29133Y42227D01*
Y42067D01*
X29293Y41450D02*
X28973D01*
Y41290D01*
X29027Y41237D01*
X29133D01*
X29187Y41290D01*
Y41450D01*
X29293Y41130D02*
Y41023D01*
Y41077D01*
X28973D01*
X29027Y41130D01*
Y40864D02*
X28973Y40810D01*
Y40704D01*
X29027Y40650D01*
X29240D01*
X29293Y40704D01*
Y40810D01*
X29240Y40864D01*
X29027D01*
X29293Y40300D02*
X28973D01*
Y40140D01*
X29027Y40087D01*
X29133D01*
X29187Y40140D01*
Y40300D01*
X29293Y39980D02*
Y39873D01*
Y39927D01*
X28973D01*
X29027Y39980D01*
X29293Y39714D02*
Y39607D01*
Y39660D01*
X28973D01*
X29027Y39714D01*
X29293Y39150D02*
X28973D01*
Y38990D01*
X29027Y38937D01*
X29133D01*
X29187Y38990D01*
Y39150D01*
X29293Y38830D02*
Y38723D01*
Y38777D01*
X28973D01*
X29027Y38830D01*
X29293Y38350D02*
Y38564D01*
X29080Y38350D01*
X29027D01*
X28973Y38404D01*
Y38510D01*
X29027Y38564D01*
X29293Y38000D02*
X28973D01*
Y37840D01*
X29027Y37787D01*
X29133D01*
X29187Y37840D01*
Y38000D01*
X29293Y37680D02*
Y37573D01*
Y37627D01*
X28973D01*
X29027Y37680D01*
Y37414D02*
X28973Y37360D01*
Y37254D01*
X29027Y37200D01*
X29080D01*
X29133Y37254D01*
Y37307D01*
Y37254D01*
X29187Y37200D01*
X29240D01*
X29293Y37254D01*
Y37360D01*
X29240Y37414D01*
X29293Y36850D02*
X28973D01*
Y36690D01*
X29027Y36637D01*
X29133D01*
X29187Y36690D01*
Y36850D01*
X29293Y36530D02*
Y36423D01*
Y36477D01*
X28973D01*
X29027Y36530D01*
X29293Y36104D02*
X28973D01*
X29133Y36264D01*
Y36050D01*
X29293Y35700D02*
X28973D01*
Y35540D01*
X29027Y35487D01*
X29133D01*
X29187Y35540D01*
Y35700D01*
X29293Y35380D02*
Y35273D01*
Y35327D01*
X28973D01*
X29027Y35380D01*
X28973Y34900D02*
Y35114D01*
X29133D01*
X29080Y35007D01*
Y34954D01*
X29133Y34900D01*
X29240D01*
X29293Y34954D01*
Y35060D01*
X29240Y35114D01*
X25293Y46650D02*
Y46970D01*
X25133D01*
X25080Y46917D01*
Y46810D01*
X25133Y46757D01*
X25293D01*
X24973Y46650D02*
X24867D01*
X24920D01*
Y46970D01*
X24973Y46917D01*
X24494Y46970D02*
X24600Y46917D01*
X24707Y46810D01*
Y46703D01*
X24654Y46650D01*
X24547D01*
X24494Y46703D01*
Y46757D01*
X24547Y46810D01*
X24707D01*
X25993Y34070D02*
Y33750D01*
X25833D01*
X25780Y33803D01*
Y33857D01*
X25833Y33910D01*
X25993D01*
X25833D01*
X25780Y33963D01*
Y34017D01*
X25833Y34070D01*
X25993D01*
X25673D02*
X25567D01*
X25620D01*
Y33750D01*
X25673D01*
X25567D01*
X25194Y34017D02*
X25247Y34070D01*
X25354D01*
X25407Y34017D01*
Y33803D01*
X25354Y33750D01*
X25247D01*
X25194Y33803D01*
Y33910D01*
X25300D01*
X24767Y33750D02*
Y34070D01*
X24660Y33963D01*
X24554Y34070D01*
Y33750D01*
X24447D02*
Y33963D01*
X24341Y34070D01*
X24234Y33963D01*
Y33750D01*
Y33910D01*
X24447D01*
X24127Y33750D02*
Y34070D01*
X24021Y33963D01*
X23914Y34070D01*
Y33750D01*
X23807D02*
Y33963D01*
X23701Y34070D01*
X23594Y33963D01*
Y33750D01*
Y33910D01*
X23807D01*
X26830Y34570D02*
Y34250D01*
X26990D01*
X27043Y34303D01*
Y34410D01*
X26990Y34463D01*
X26830D01*
X26563Y34250D02*
X26670D01*
X26723Y34303D01*
Y34410D01*
X26670Y34463D01*
X26563D01*
X26510Y34410D01*
Y34357D01*
X26723D01*
X26404Y34463D02*
Y34250D01*
Y34357D01*
X26350Y34410D01*
X26297Y34463D01*
X26244D01*
X26084Y34250D02*
Y34463D01*
X26030D01*
X25977Y34410D01*
Y34250D01*
Y34410D01*
X25924Y34463D01*
X25870Y34410D01*
Y34250D01*
X25764D02*
X25657D01*
X25710D01*
Y34463D01*
X25764D01*
X25444Y34517D02*
Y34463D01*
X25497D01*
X25391D01*
X25444D01*
Y34303D01*
X25391Y34250D01*
X25231Y34463D02*
X25017D01*
X25231Y34250D01*
X25017D01*
X24857Y34463D02*
X24751D01*
X24697Y34410D01*
Y34250D01*
X24857D01*
X24911Y34303D01*
X24857Y34357D01*
X24697D01*
X24271Y34463D02*
Y34250D01*
Y34357D01*
X24218Y34410D01*
X24164Y34463D01*
X24111D01*
X23791Y34250D02*
X23898D01*
X23951Y34303D01*
Y34410D01*
X23898Y34463D01*
X23791D01*
X23738Y34410D01*
Y34357D01*
X23951D01*
X23631Y34463D02*
X23524Y34250D01*
X23418Y34463D01*
X23311Y34517D02*
X23258Y34570D01*
X23151D01*
X23098Y34517D01*
Y34303D01*
X23151Y34250D01*
X23258D01*
X23311Y34303D01*
Y34517D01*
X22991Y34250D02*
Y34303D01*
X22938D01*
Y34250D01*
X22991D01*
X22511D02*
X22725D01*
X22511Y34463D01*
Y34517D01*
X22565Y34570D01*
X22671D01*
X22725Y34517D01*
X10750Y43750D02*
X10430D01*
Y43590D01*
X10483Y43537D01*
X10590D01*
X10643Y43590D01*
Y43750D01*
X10483Y43430D02*
X10430Y43377D01*
Y43270D01*
X10483Y43217D01*
X10697D01*
X10750Y43270D01*
Y43377D01*
X10697Y43430D01*
X10483D01*
X10750Y42600D02*
X10430D01*
Y42440D01*
X10483Y42387D01*
X10590D01*
X10643Y42440D01*
Y42600D01*
X10750Y42280D02*
Y42173D01*
Y42227D01*
X10430D01*
X10483Y42280D01*
X10750Y41450D02*
X10430D01*
Y41290D01*
X10483Y41237D01*
X10590D01*
X10643Y41290D01*
Y41450D01*
X10750Y40917D02*
Y41130D01*
X10537Y40917D01*
X10483D01*
X10430Y40970D01*
Y41077D01*
X10483Y41130D01*
X10750Y40300D02*
X10430D01*
Y40140D01*
X10483Y40087D01*
X10590D01*
X10643Y40140D01*
Y40300D01*
X10483Y39980D02*
X10430Y39927D01*
Y39820D01*
X10483Y39767D01*
X10537D01*
X10590Y39820D01*
Y39873D01*
Y39820D01*
X10643Y39767D01*
X10697D01*
X10750Y39820D01*
Y39927D01*
X10697Y39980D01*
X16100Y32750D02*
X16420D01*
Y32910D01*
X16367Y32963D01*
X16260D01*
X16207Y32910D01*
Y32750D01*
X16100Y33070D02*
Y33177D01*
Y33123D01*
X16420D01*
X16367Y33070D01*
X16420Y33336D02*
Y33550D01*
X16367D01*
X16153Y33336D01*
X16100D01*
X10750Y39150D02*
X10430D01*
Y38990D01*
X10483Y38937D01*
X10590D01*
X10643Y38990D01*
Y39150D01*
X10750Y38670D02*
X10430D01*
X10590Y38830D01*
Y38617D01*
X10750Y38000D02*
X10430D01*
Y37840D01*
X10483Y37787D01*
X10590D01*
X10643Y37840D01*
Y38000D01*
X10430Y37467D02*
Y37680D01*
X10590D01*
X10537Y37573D01*
Y37520D01*
X10590Y37467D01*
X10697D01*
X10750Y37520D01*
Y37627D01*
X10697Y37680D01*
X10750Y36850D02*
X10430D01*
Y36690D01*
X10483Y36637D01*
X10590D01*
X10643Y36690D01*
Y36850D01*
X10430Y36317D02*
X10483Y36423D01*
X10590Y36530D01*
X10697D01*
X10750Y36477D01*
Y36370D01*
X10697Y36317D01*
X10643D01*
X10590Y36370D01*
Y36530D01*
X10750Y35700D02*
X10430D01*
Y35540D01*
X10483Y35487D01*
X10590D01*
X10643Y35540D01*
Y35700D01*
X10430Y35380D02*
Y35167D01*
X10483D01*
X10697Y35380D01*
X10750D01*
X19450Y43750D02*
X19130D01*
Y43590D01*
X19183Y43537D01*
X19290D01*
X19343Y43590D01*
Y43750D01*
X19183Y43430D02*
X19130Y43377D01*
Y43270D01*
X19183Y43217D01*
X19237D01*
X19290Y43270D01*
X19343Y43217D01*
X19397D01*
X19450Y43270D01*
Y43377D01*
X19397Y43430D01*
X19343D01*
X19290Y43377D01*
X19237Y43430D01*
X19183D01*
X19290Y43377D02*
Y43270D01*
X19450Y42600D02*
X19130D01*
Y42440D01*
X19183Y42387D01*
X19290D01*
X19343Y42440D01*
Y42600D01*
X19397Y42280D02*
X19450Y42227D01*
Y42120D01*
X19397Y42067D01*
X19183D01*
X19130Y42120D01*
Y42227D01*
X19183Y42280D01*
X19237D01*
X19290Y42227D01*
Y42067D01*
X19450Y41450D02*
X19130D01*
Y41290D01*
X19183Y41237D01*
X19290D01*
X19343Y41290D01*
Y41450D01*
X19450Y41130D02*
Y41023D01*
Y41077D01*
X19130D01*
X19183Y41130D01*
Y40864D02*
X19130Y40810D01*
Y40704D01*
X19183Y40650D01*
X19397D01*
X19450Y40704D01*
Y40810D01*
X19397Y40864D01*
X19183D01*
X19450Y40300D02*
X19130D01*
Y40140D01*
X19183Y40087D01*
X19290D01*
X19343Y40140D01*
Y40300D01*
X19450Y39980D02*
Y39873D01*
Y39927D01*
X19130D01*
X19183Y39980D01*
X19450Y39714D02*
Y39607D01*
Y39660D01*
X19130D01*
X19183Y39714D01*
X19450Y39150D02*
X19130D01*
Y38990D01*
X19183Y38937D01*
X19290D01*
X19343Y38990D01*
Y39150D01*
X19450Y38830D02*
Y38723D01*
Y38777D01*
X19130D01*
X19183Y38830D01*
X19450Y38350D02*
Y38564D01*
X19237Y38350D01*
X19183D01*
X19130Y38404D01*
Y38510D01*
X19183Y38564D01*
X19450Y38000D02*
X19130D01*
Y37840D01*
X19183Y37787D01*
X19290D01*
X19343Y37840D01*
Y38000D01*
X19450Y37680D02*
Y37573D01*
Y37627D01*
X19130D01*
X19183Y37680D01*
Y37414D02*
X19130Y37360D01*
Y37254D01*
X19183Y37200D01*
X19237D01*
X19290Y37254D01*
Y37307D01*
Y37254D01*
X19343Y37200D01*
X19397D01*
X19450Y37254D01*
Y37360D01*
X19397Y37414D01*
X19450Y36850D02*
X19130D01*
Y36690D01*
X19183Y36637D01*
X19290D01*
X19343Y36690D01*
Y36850D01*
X19450Y36530D02*
Y36423D01*
Y36477D01*
X19130D01*
X19183Y36530D01*
X19450Y36104D02*
X19130D01*
X19290Y36264D01*
Y36050D01*
X19450Y35700D02*
X19130D01*
Y35540D01*
X19183Y35487D01*
X19290D01*
X19343Y35540D01*
Y35700D01*
X19450Y35380D02*
Y35273D01*
Y35327D01*
X19130D01*
X19183Y35380D01*
X19130Y34900D02*
Y35114D01*
X19290D01*
X19237Y35007D01*
Y34954D01*
X19290Y34900D01*
X19397D01*
X19450Y34954D01*
Y35060D01*
X19397Y35114D01*
X15450Y46650D02*
Y46970D01*
X15290D01*
X15237Y46917D01*
Y46810D01*
X15290Y46757D01*
X15450D01*
X15130Y46650D02*
X15023D01*
X15077D01*
Y46970D01*
X15130Y46917D01*
X14650Y46970D02*
X14757Y46917D01*
X14864Y46810D01*
Y46703D01*
X14810Y46650D01*
X14704D01*
X14650Y46703D01*
Y46757D01*
X14704Y46810D01*
X14864D01*
X16150Y34070D02*
Y33750D01*
X15990D01*
X15937Y33803D01*
Y33857D01*
X15990Y33910D01*
X16150D01*
X15990D01*
X15937Y33963D01*
Y34017D01*
X15990Y34070D01*
X16150D01*
X15830D02*
X15723D01*
X15777D01*
Y33750D01*
X15830D01*
X15723D01*
X15350Y34017D02*
X15404Y34070D01*
X15510D01*
X15564Y34017D01*
Y33803D01*
X15510Y33750D01*
X15404D01*
X15350Y33803D01*
Y33910D01*
X15457D01*
X14924Y33750D02*
Y34070D01*
X14817Y33963D01*
X14710Y34070D01*
Y33750D01*
X14604D02*
Y33963D01*
X14497Y34070D01*
X14391Y33963D01*
Y33750D01*
Y33910D01*
X14604D01*
X14284Y33750D02*
Y34070D01*
X14177Y33963D01*
X14071Y34070D01*
Y33750D01*
X13964D02*
Y33963D01*
X13857Y34070D01*
X13751Y33963D01*
Y33750D01*
Y33910D01*
X13964D01*
X16987Y34570D02*
Y34250D01*
X17147D01*
X17200Y34303D01*
Y34410D01*
X17147Y34463D01*
X16987D01*
X16720Y34250D02*
X16827D01*
X16880Y34303D01*
Y34410D01*
X16827Y34463D01*
X16720D01*
X16667Y34410D01*
Y34357D01*
X16880D01*
X16560Y34463D02*
Y34250D01*
Y34357D01*
X16507Y34410D01*
X16454Y34463D01*
X16400D01*
X16240Y34250D02*
Y34463D01*
X16187D01*
X16134Y34410D01*
Y34250D01*
Y34410D01*
X16080Y34463D01*
X16027Y34410D01*
Y34250D01*
X15920D02*
X15814D01*
X15867D01*
Y34463D01*
X15920D01*
X15601Y34517D02*
Y34463D01*
X15654D01*
X15547D01*
X15601D01*
Y34303D01*
X15547Y34250D01*
X15387Y34463D02*
X15174D01*
X15387Y34250D01*
X15174D01*
X15014Y34463D02*
X14907D01*
X14854Y34410D01*
Y34250D01*
X15014D01*
X15067Y34303D01*
X15014Y34357D01*
X14854D01*
X14428Y34463D02*
Y34250D01*
Y34357D01*
X14374Y34410D01*
X14321Y34463D01*
X14268D01*
X13948Y34250D02*
X14054D01*
X14108Y34303D01*
Y34410D01*
X14054Y34463D01*
X13948D01*
X13894Y34410D01*
Y34357D01*
X14108D01*
X13788Y34463D02*
X13681Y34250D01*
X13575Y34463D01*
X13468Y34517D02*
X13415Y34570D01*
X13308D01*
X13255Y34517D01*
Y34303D01*
X13308Y34250D01*
X13415D01*
X13468Y34303D01*
Y34517D01*
X13148Y34250D02*
Y34303D01*
X13095D01*
Y34250D01*
X13148D01*
X12668D02*
X12881D01*
X12668Y34463D01*
Y34517D01*
X12721Y34570D01*
X12828D01*
X12881Y34517D01*
D33*
X29293Y46650D02*
X29187D01*
X29240D01*
Y46970D01*
X29293Y46917D01*
X29027Y46970D02*
X28813D01*
Y46917D01*
X29027Y46703D01*
Y46650D01*
X20393D02*
X20287D01*
X20340D01*
Y46970D01*
X20393Y46917D01*
X19450Y46650D02*
X19343D01*
X19397D01*
Y46970D01*
X19450Y46917D01*
X19183Y46970D02*
X18970D01*
Y46917D01*
X19183Y46703D01*
Y46650D01*
X10550D02*
X10443D01*
X10497D01*
Y46970D01*
X10550Y46917D01*
M02*
