%FSLAX24Y24*%
%MOIN*%
G70*
G01*
G75*
G04 Layer_Color=16711935*
%ADD10R,0.0433X0.0551*%
%ADD11R,0.0354X0.0276*%
%ADD12R,0.0335X0.0138*%
%ADD13R,0.0276X0.0354*%
%ADD14C,0.0100*%
%ADD15C,0.0300*%
%ADD16C,0.0250*%
%ADD17R,0.0591X0.0591*%
%ADD18C,0.0591*%
%ADD19C,0.1969*%
%ADD20C,0.0150*%
%ADD21C,0.0200*%
%ADD22C,0.0098*%
%ADD23C,0.0079*%
%ADD24C,0.0063*%
%ADD25C,0.0060*%
%ADD26R,0.0513X0.0631*%
%ADD27R,0.0434X0.0356*%
%ADD28R,0.0415X0.0218*%
%ADD29R,0.0356X0.0434*%
%ADD30R,0.0671X0.0671*%
%ADD31C,0.0671*%
%ADD32C,0.2049*%
%ADD33C,0.0080*%
%ADD34C,0.0039*%
D34*
X24360Y33515D02*
Y34085D01*
X25226Y33515D02*
Y34085D01*
X24360D02*
X25226D01*
X24360Y33515D02*
X25226D01*
X24530Y42915D02*
Y43585D01*
X24156Y42915D02*
Y43585D01*
X24530D01*
X24156Y42915D02*
X24530D01*
Y41765D02*
Y42435D01*
X24156Y41765D02*
Y42435D01*
X24530D01*
X24156Y41765D02*
X24530D01*
Y40615D02*
Y41285D01*
X24156Y40615D02*
Y41285D01*
X24530D01*
X24156Y40615D02*
X24530D01*
Y39465D02*
Y40135D01*
X24156Y39465D02*
Y40135D01*
X24530D01*
X24156Y39465D02*
X24530D01*
Y38315D02*
Y38985D01*
X24156Y38315D02*
Y38985D01*
X24530D01*
X24156Y38315D02*
X24530D01*
Y37165D02*
Y37835D01*
X24156Y37165D02*
Y37835D01*
X24530D01*
X24156Y37165D02*
X24530D01*
Y36015D02*
Y36685D01*
X24156Y36015D02*
Y36685D01*
X24530D01*
X24156Y36015D02*
X24530D01*
Y34865D02*
Y35535D01*
X24156Y34865D02*
Y35535D01*
X24530D01*
X24156Y34865D02*
X24530D01*
X25056Y42915D02*
Y43585D01*
X25430Y42915D02*
Y43585D01*
X25056Y42915D02*
X25430D01*
X25056Y43585D02*
X25430D01*
X25056Y41765D02*
Y42435D01*
X25430Y41765D02*
Y42435D01*
X25056Y41765D02*
X25430D01*
X25056Y42435D02*
X25430D01*
X25056Y40615D02*
Y41285D01*
X25430Y40615D02*
Y41285D01*
X25056Y40615D02*
X25430D01*
X25056Y41285D02*
X25430D01*
X25056Y39465D02*
Y40135D01*
X25430Y39465D02*
Y40135D01*
X25056Y39465D02*
X25430D01*
X25056Y40135D02*
X25430D01*
X25056Y38315D02*
Y38985D01*
X25430Y38315D02*
Y38985D01*
X25056Y38315D02*
X25430D01*
X25056Y38985D02*
X25430D01*
X25056Y37165D02*
Y37835D01*
X25430Y37165D02*
Y37835D01*
X25056Y37165D02*
X25430D01*
X25056Y37835D02*
X25430D01*
X25056Y36015D02*
Y36685D01*
X25430Y36015D02*
Y36685D01*
X25056Y36015D02*
X25430D01*
X25056Y36685D02*
X25430D01*
X25056Y34865D02*
Y35535D01*
X25430Y34865D02*
Y35535D01*
X25056Y34865D02*
X25430D01*
X25056Y35535D02*
X25430D01*
X23178Y42817D02*
Y43683D01*
X23709Y42817D02*
Y43683D01*
X23178D02*
X23709D01*
X23178Y42817D02*
X23709D01*
X23178Y41667D02*
Y42533D01*
X23709Y41667D02*
Y42533D01*
X23178D02*
X23709D01*
X23178Y41667D02*
X23709D01*
X23178Y40517D02*
Y41383D01*
X23709Y40517D02*
Y41383D01*
X23178D02*
X23709D01*
X23178Y40517D02*
X23709D01*
X23178Y39367D02*
Y40233D01*
X23709Y39367D02*
Y40233D01*
X23178D02*
X23709D01*
X23178Y39367D02*
X23709D01*
X23178Y38217D02*
Y39083D01*
X23709Y38217D02*
Y39083D01*
X23178D02*
X23709D01*
X23178Y38217D02*
X23709D01*
X23178Y37067D02*
Y37933D01*
X23709Y37067D02*
Y37933D01*
X23178D02*
X23709D01*
X23178Y37067D02*
X23709D01*
X23178Y35917D02*
Y36783D01*
X23709Y35917D02*
Y36783D01*
X23178D02*
X23709D01*
X23178Y35917D02*
X23709D01*
X23178Y34767D02*
Y35633D01*
X23709Y34767D02*
Y35633D01*
X23178D02*
X23709D01*
X23178Y34767D02*
X23709D01*
X26409Y42817D02*
Y43683D01*
X25878Y42817D02*
Y43683D01*
Y42817D02*
X26409D01*
X25878Y43683D02*
X26409D01*
Y41667D02*
Y42533D01*
X25878Y41667D02*
Y42533D01*
Y41667D02*
X26409D01*
X25878Y42533D02*
X26409D01*
Y40517D02*
Y41383D01*
X25878Y40517D02*
Y41383D01*
Y40517D02*
X26409D01*
X25878Y41383D02*
X26409D01*
Y39367D02*
Y40233D01*
X25878Y39367D02*
Y40233D01*
Y39367D02*
X26409D01*
X25878Y40233D02*
X26409D01*
Y38217D02*
Y39083D01*
X25878Y38217D02*
Y39083D01*
Y38217D02*
X26409D01*
X25878Y39083D02*
X26409D01*
Y37067D02*
Y37933D01*
X25878Y37067D02*
Y37933D01*
Y37067D02*
X26409D01*
X25878Y37933D02*
X26409D01*
Y35917D02*
Y36783D01*
X25878Y35917D02*
Y36783D01*
Y35917D02*
X26409D01*
X25878Y36783D02*
X26409D01*
Y34767D02*
Y35633D01*
X25878Y34767D02*
Y35633D01*
Y34767D02*
X26409D01*
X25878Y35633D02*
X26409D01*
X24459Y34587D02*
X25128D01*
X24459Y34213D02*
X25128D01*
X24459D02*
Y34587D01*
X25128Y34213D02*
Y34587D01*
X23459Y34213D02*
X24128D01*
X23459Y34587D02*
X24128D01*
Y34213D02*
Y34587D01*
X23459Y34213D02*
Y34587D01*
X14517Y33515D02*
Y34085D01*
X15383Y33515D02*
Y34085D01*
X14517D02*
X15383D01*
X14517Y33515D02*
X15383D01*
X14687Y42915D02*
Y43585D01*
X14313Y42915D02*
Y43585D01*
X14687D01*
X14313Y42915D02*
X14687D01*
Y41765D02*
Y42435D01*
X14313Y41765D02*
Y42435D01*
X14687D01*
X14313Y41765D02*
X14687D01*
Y40615D02*
Y41285D01*
X14313Y40615D02*
Y41285D01*
X14687D01*
X14313Y40615D02*
X14687D01*
Y39465D02*
Y40135D01*
X14313Y39465D02*
Y40135D01*
X14687D01*
X14313Y39465D02*
X14687D01*
Y38315D02*
Y38985D01*
X14313Y38315D02*
Y38985D01*
X14687D01*
X14313Y38315D02*
X14687D01*
Y37165D02*
Y37835D01*
X14313Y37165D02*
Y37835D01*
X14687D01*
X14313Y37165D02*
X14687D01*
Y36015D02*
Y36685D01*
X14313Y36015D02*
Y36685D01*
X14687D01*
X14313Y36015D02*
X14687D01*
Y34865D02*
Y35535D01*
X14313Y34865D02*
Y35535D01*
X14687D01*
X14313Y34865D02*
X14687D01*
X15213Y42915D02*
Y43585D01*
X15587Y42915D02*
Y43585D01*
X15213Y42915D02*
X15587D01*
X15213Y43585D02*
X15587D01*
X15213Y41765D02*
Y42435D01*
X15587Y41765D02*
Y42435D01*
X15213Y41765D02*
X15587D01*
X15213Y42435D02*
X15587D01*
X15213Y40615D02*
Y41285D01*
X15587Y40615D02*
Y41285D01*
X15213Y40615D02*
X15587D01*
X15213Y41285D02*
X15587D01*
X15213Y39465D02*
Y40135D01*
X15587Y39465D02*
Y40135D01*
X15213Y39465D02*
X15587D01*
X15213Y40135D02*
X15587D01*
X15213Y38315D02*
Y38985D01*
X15587Y38315D02*
Y38985D01*
X15213Y38315D02*
X15587D01*
X15213Y38985D02*
X15587D01*
X15213Y37165D02*
Y37835D01*
X15587Y37165D02*
Y37835D01*
X15213Y37165D02*
X15587D01*
X15213Y37835D02*
X15587D01*
X15213Y36015D02*
Y36685D01*
X15587Y36015D02*
Y36685D01*
X15213Y36015D02*
X15587D01*
X15213Y36685D02*
X15587D01*
X15213Y34865D02*
Y35535D01*
X15587Y34865D02*
Y35535D01*
X15213Y34865D02*
X15587D01*
X15213Y35535D02*
X15587D01*
X13334Y42817D02*
Y43683D01*
X13866Y42817D02*
Y43683D01*
X13334D02*
X13866D01*
X13334Y42817D02*
X13866D01*
X13334Y41667D02*
Y42533D01*
X13866Y41667D02*
Y42533D01*
X13334D02*
X13866D01*
X13334Y41667D02*
X13866D01*
X13334Y40517D02*
Y41383D01*
X13866Y40517D02*
Y41383D01*
X13334D02*
X13866D01*
X13334Y40517D02*
X13866D01*
X13334Y39367D02*
Y40233D01*
X13866Y39367D02*
Y40233D01*
X13334D02*
X13866D01*
X13334Y39367D02*
X13866D01*
X13334Y38217D02*
Y39083D01*
X13866Y38217D02*
Y39083D01*
X13334D02*
X13866D01*
X13334Y38217D02*
X13866D01*
X13334Y37067D02*
Y37933D01*
X13866Y37067D02*
Y37933D01*
X13334D02*
X13866D01*
X13334Y37067D02*
X13866D01*
X13334Y35917D02*
Y36783D01*
X13866Y35917D02*
Y36783D01*
X13334D02*
X13866D01*
X13334Y35917D02*
X13866D01*
X13334Y34767D02*
Y35633D01*
X13866Y34767D02*
Y35633D01*
X13334D02*
X13866D01*
X13334Y34767D02*
X13866D01*
X16566Y42817D02*
Y43683D01*
X16034Y42817D02*
Y43683D01*
Y42817D02*
X16566D01*
X16034Y43683D02*
X16566D01*
Y41667D02*
Y42533D01*
X16034Y41667D02*
Y42533D01*
Y41667D02*
X16566D01*
X16034Y42533D02*
X16566D01*
Y40517D02*
Y41383D01*
X16034Y40517D02*
Y41383D01*
Y40517D02*
X16566D01*
X16034Y41383D02*
X16566D01*
Y39367D02*
Y40233D01*
X16034Y39367D02*
Y40233D01*
Y39367D02*
X16566D01*
X16034Y40233D02*
X16566D01*
Y38217D02*
Y39083D01*
X16034Y38217D02*
Y39083D01*
Y38217D02*
X16566D01*
X16034Y39083D02*
X16566D01*
Y37067D02*
Y37933D01*
X16034Y37067D02*
Y37933D01*
Y37067D02*
X16566D01*
X16034Y37933D02*
X16566D01*
Y35917D02*
Y36783D01*
X16034Y35917D02*
Y36783D01*
Y35917D02*
X16566D01*
X16034Y36783D02*
X16566D01*
Y34767D02*
Y35633D01*
X16034Y34767D02*
Y35633D01*
Y34767D02*
X16566D01*
X16034Y35633D02*
X16566D01*
X14615Y34587D02*
X15285D01*
X14615Y34213D02*
X15285D01*
X14615D02*
Y34587D01*
X15285Y34213D02*
Y34587D01*
X13615Y34213D02*
X14285D01*
X13615Y34587D02*
X14285D01*
Y34213D02*
Y34587D01*
X13615Y34213D02*
Y34587D01*
M02*
