M48
;Layer_Color=9474304
;FILE_FORMAT=2:4
INCH,TZ
;TYPE=PLATED
T1F00S00C0.0354
T2F00S00C0.1181
%
T01
X11400Y35200
X12400
Y36350
X11400
Y37500
X12400
Y38650
X11400
Y39800
X12400
Y40950
X11400
Y42100
X12400
Y43250
X11400
X10950Y44950
Y45950
X11950
X12950
X13950
X14950
Y44950
X13950
X12950
X11950
X14450Y33100
X15450
X17500Y35200
X18500
Y36350
X17500
Y37500
X18500
Y38650
X17500
Y39800
X18500
Y40950
X17500
Y42100
X18500
Y43250
X17500
X17950Y44950
X18950
Y45950
X17950
X16950
Y44950
X15950
Y45950
X20793
X21793
X22793
X23793
X24793
X25793
X26793
X27793
X28793
Y44950
X27793
X26793
X25793
X24793
X23793
X22793
X21793
X20793
X21243Y43250
X22243
Y42100
X21243
Y40950
X22243
Y39800
X21243
Y38650
X22243
Y37500
X21243
Y36350
X22243
Y35200
X21243
X24293Y33100
X25293
X27343Y35200
X28343
Y36350
X27343
Y37500
X28343
Y38650
X27343
Y39800
X28343
Y40950
X27343
Y42100
X28343
Y43250
X27343
T02
X11850Y32050
X18100
X21693
X27943
Y48150
X21693
X18100
X11850
M30
