%FSLAX24Y24*%
%MOIN*%
G70*
G01*
G75*
G04 Layer_Physical_Order=1*
G04 Layer_Color=255*
%ADD10R,0.0433X0.0551*%
%ADD11R,0.0354X0.0276*%
%ADD12R,0.0335X0.0138*%
%ADD13R,0.0276X0.0354*%
%ADD14C,0.0100*%
%ADD15C,0.0300*%
%ADD16C,0.0250*%
%ADD17R,0.0591X0.0591*%
%ADD18C,0.0591*%
%ADD19C,0.1969*%
G36*
X29584Y30416D02*
X20046D01*
Y49797D01*
X29584D01*
Y30416D01*
D02*
G37*
G36*
X19740D02*
X10203D01*
Y49797D01*
X19740D01*
Y30416D01*
D02*
G37*
%LPC*%
G36*
X18895Y36745D02*
X18550D01*
Y36400D01*
X18895D01*
Y36745D01*
D02*
G37*
G36*
X11350D02*
X11005D01*
Y36400D01*
X11350D01*
Y36745D01*
D02*
G37*
G36*
X28739Y36300D02*
X28393D01*
Y35955D01*
X28739D01*
Y36300D01*
D02*
G37*
G36*
X11350Y37450D02*
X11005D01*
Y37105D01*
X11350D01*
Y37450D01*
D02*
G37*
G36*
X28739Y36745D02*
X28393D01*
Y36400D01*
X28739D01*
Y36745D01*
D02*
G37*
G36*
X21193D02*
X20848D01*
Y36400D01*
X21193D01*
Y36745D01*
D02*
G37*
G36*
X28739Y35595D02*
X28393D01*
Y35250D01*
X28739D01*
Y35595D01*
D02*
G37*
G36*
X21193D02*
X20848D01*
Y35250D01*
X21193D01*
Y35595D01*
D02*
G37*
G36*
X18895D02*
X18550D01*
Y35250D01*
X18895D01*
Y35595D01*
D02*
G37*
G36*
X21193Y36300D02*
X20848D01*
Y35955D01*
X21193D01*
Y36300D01*
D02*
G37*
G36*
X18895D02*
X18550D01*
Y35955D01*
X18895D01*
Y36300D01*
D02*
G37*
G36*
X11350D02*
X11005D01*
Y35955D01*
X11350D01*
Y36300D01*
D02*
G37*
G36*
X18895Y37450D02*
X18550D01*
Y37105D01*
X18895D01*
Y37450D01*
D02*
G37*
G36*
X21193Y38600D02*
X20848D01*
Y38255D01*
X21193D01*
Y38600D01*
D02*
G37*
G36*
X18895D02*
X18550D01*
Y38255D01*
X18895D01*
Y38600D01*
D02*
G37*
G36*
X11350D02*
X11005D01*
Y38255D01*
X11350D01*
Y38600D01*
D02*
G37*
G36*
X18895Y39045D02*
X18550D01*
Y38700D01*
X18895D01*
Y39045D01*
D02*
G37*
G36*
X11350D02*
X11005D01*
Y38700D01*
X11350D01*
Y39045D01*
D02*
G37*
G36*
X28739Y38600D02*
X28393D01*
Y38255D01*
X28739D01*
Y38600D01*
D02*
G37*
G36*
X11350Y37895D02*
X11005D01*
Y37550D01*
X11350D01*
Y37895D01*
D02*
G37*
G36*
X28739Y37450D02*
X28393D01*
Y37105D01*
X28739D01*
Y37450D01*
D02*
G37*
G36*
X21193D02*
X20848D01*
Y37105D01*
X21193D01*
Y37450D01*
D02*
G37*
G36*
X28739Y37895D02*
X28393D01*
Y37550D01*
X28739D01*
Y37895D01*
D02*
G37*
G36*
X21193D02*
X20848D01*
Y37550D01*
X21193D01*
Y37895D01*
D02*
G37*
G36*
X18895D02*
X18550D01*
Y37550D01*
X18895D01*
Y37895D01*
D02*
G37*
G36*
X11800Y33134D02*
X11680Y33124D01*
X11514Y33084D01*
X11356Y33019D01*
X11211Y32930D01*
X11081Y32819D01*
X10970Y32689D01*
X10881Y32544D01*
X10816Y32386D01*
X10776Y32220D01*
X10766Y32100D01*
X11800D01*
Y33134D01*
D02*
G37*
G36*
X29027Y32000D02*
X27993D01*
Y30966D01*
X28113Y30976D01*
X28279Y31016D01*
X28437Y31081D01*
X28583Y31170D01*
X28712Y31281D01*
X28823Y31411D01*
X28912Y31556D01*
X28978Y31714D01*
X29018Y31880D01*
X29027Y32000D01*
D02*
G37*
G36*
X27893D02*
X26860D01*
X26869Y31880D01*
X26909Y31714D01*
X26974Y31556D01*
X27063Y31411D01*
X27174Y31281D01*
X27304Y31170D01*
X27450Y31081D01*
X27607Y31016D01*
X27773Y30976D01*
X27893Y30966D01*
Y32000D01*
D02*
G37*
G36*
X18150Y33134D02*
Y32100D01*
X19184D01*
X19174Y32220D01*
X19134Y32386D01*
X19069Y32544D01*
X18980Y32689D01*
X18869Y32819D01*
X18739Y32930D01*
X18594Y33019D01*
X18436Y33084D01*
X18270Y33124D01*
X18150Y33134D01*
D02*
G37*
G36*
X18050D02*
X17930Y33124D01*
X17764Y33084D01*
X17606Y33019D01*
X17461Y32930D01*
X17331Y32819D01*
X17220Y32689D01*
X17131Y32544D01*
X17066Y32386D01*
X17026Y32220D01*
X17016Y32100D01*
X18050D01*
Y33134D01*
D02*
G37*
G36*
X11900D02*
Y32100D01*
X12934D01*
X12924Y32220D01*
X12884Y32386D01*
X12819Y32544D01*
X12730Y32689D01*
X12619Y32819D01*
X12489Y32930D01*
X12344Y33019D01*
X12186Y33084D01*
X12020Y33124D01*
X11900Y33134D01*
D02*
G37*
G36*
X18050Y32000D02*
X17016D01*
X17026Y31880D01*
X17066Y31714D01*
X17131Y31556D01*
X17220Y31411D01*
X17331Y31281D01*
X17461Y31170D01*
X17606Y31081D01*
X17764Y31016D01*
X17930Y30976D01*
X18050Y30966D01*
Y32000D01*
D02*
G37*
G36*
X12934D02*
X11900D01*
Y30966D01*
X12020Y30976D01*
X12186Y31016D01*
X12344Y31081D01*
X12489Y31170D01*
X12619Y31281D01*
X12730Y31411D01*
X12819Y31556D01*
X12884Y31714D01*
X12924Y31880D01*
X12934Y32000D01*
D02*
G37*
G36*
X11800D02*
X10766D01*
X10776Y31880D01*
X10816Y31714D01*
X10881Y31556D01*
X10970Y31411D01*
X11081Y31281D01*
X11211Y31170D01*
X11356Y31081D01*
X11514Y31016D01*
X11680Y30976D01*
X11800Y30966D01*
Y32000D01*
D02*
G37*
G36*
X22777D02*
X21743D01*
Y30966D01*
X21863Y30976D01*
X22029Y31016D01*
X22187Y31081D01*
X22333Y31170D01*
X22462Y31281D01*
X22573Y31411D01*
X22662Y31556D01*
X22728Y31714D01*
X22768Y31880D01*
X22777Y32000D01*
D02*
G37*
G36*
X21643D02*
X20610D01*
X20619Y31880D01*
X20659Y31714D01*
X20724Y31556D01*
X20813Y31411D01*
X20924Y31281D01*
X21054Y31170D01*
X21200Y31081D01*
X21357Y31016D01*
X21523Y30976D01*
X21643Y30966D01*
Y32000D01*
D02*
G37*
G36*
X19184D02*
X18150D01*
Y30966D01*
X18270Y30976D01*
X18436Y31016D01*
X18594Y31081D01*
X18739Y31170D01*
X18869Y31281D01*
X18980Y31411D01*
X19069Y31556D01*
X19134Y31714D01*
X19174Y31880D01*
X19184Y32000D01*
D02*
G37*
G36*
X21643Y33134D02*
X21523Y33124D01*
X21357Y33084D01*
X21200Y33019D01*
X21054Y32930D01*
X20924Y32819D01*
X20813Y32689D01*
X20724Y32544D01*
X20659Y32386D01*
X20619Y32220D01*
X20610Y32100D01*
X21643D01*
Y33134D01*
D02*
G37*
G36*
X18895Y35150D02*
X18550D01*
Y34805D01*
X18895D01*
Y35150D01*
D02*
G37*
G36*
X11350D02*
X11005D01*
Y34805D01*
X11350D01*
Y35150D01*
D02*
G37*
G36*
X23448Y34350D02*
X23260D01*
Y34123D01*
X23448D01*
Y34350D01*
D02*
G37*
G36*
X11350Y35595D02*
X11005D01*
Y35250D01*
X11350D01*
Y35595D01*
D02*
G37*
G36*
X28739Y35150D02*
X28393D01*
Y34805D01*
X28739D01*
Y35150D01*
D02*
G37*
G36*
X21193D02*
X20848D01*
Y34805D01*
X21193D01*
Y35150D01*
D02*
G37*
G36*
X27993Y33134D02*
Y32100D01*
X29027D01*
X29018Y32220D01*
X28978Y32386D01*
X28912Y32544D01*
X28823Y32689D01*
X28712Y32819D01*
X28583Y32930D01*
X28437Y33019D01*
X28279Y33084D01*
X28113Y33124D01*
X27993Y33134D01*
D02*
G37*
G36*
X27893D02*
X27773Y33124D01*
X27607Y33084D01*
X27450Y33019D01*
X27304Y32930D01*
X27174Y32819D01*
X27063Y32689D01*
X26974Y32544D01*
X26909Y32386D01*
X26869Y32220D01*
X26860Y32100D01*
X27893D01*
Y33134D01*
D02*
G37*
G36*
X21743D02*
Y32100D01*
X22777D01*
X22768Y32220D01*
X22728Y32386D01*
X22662Y32544D01*
X22573Y32689D01*
X22462Y32819D01*
X22333Y32930D01*
X22187Y33019D01*
X22029Y33084D01*
X21863Y33124D01*
X21743Y33134D01*
D02*
G37*
G36*
X13605Y34350D02*
X13417D01*
Y34123D01*
X13605D01*
Y34350D01*
D02*
G37*
G36*
X24243Y33050D02*
X23898D01*
Y32705D01*
X24243D01*
Y33050D01*
D02*
G37*
G36*
X14400D02*
X14055D01*
Y32705D01*
X14400D01*
Y33050D01*
D02*
G37*
G36*
X28793Y46349D02*
X28690Y46335D01*
X28594Y46295D01*
X28511Y46232D01*
X28448Y46149D01*
X28418Y46078D01*
X28168D01*
X28139Y46149D01*
X28075Y46232D01*
X27993Y46295D01*
X27896Y46335D01*
X27793Y46349D01*
X27690Y46335D01*
X27594Y46295D01*
X27511Y46232D01*
X27448Y46149D01*
X27418Y46078D01*
X27168D01*
X27139Y46149D01*
X27075Y46232D01*
X26993Y46295D01*
X26896Y46335D01*
X26793Y46349D01*
X26690Y46335D01*
X26594Y46295D01*
X26511Y46232D01*
X26448Y46149D01*
X26418Y46078D01*
X26168D01*
X26139Y46149D01*
X26075Y46232D01*
X25993Y46295D01*
X25896Y46335D01*
X25793Y46349D01*
X25690Y46335D01*
X25594Y46295D01*
X25511Y46232D01*
X25448Y46149D01*
X25418Y46078D01*
X25168D01*
X25139Y46149D01*
X25075Y46232D01*
X24993Y46295D01*
X24896Y46335D01*
X24843Y46342D01*
Y45950D01*
X24743D01*
Y46342D01*
X24690Y46335D01*
X24594Y46295D01*
X24511Y46232D01*
X24448Y46149D01*
X24418Y46078D01*
X24168D01*
X24139Y46149D01*
X24075Y46232D01*
X23993Y46295D01*
X23896Y46335D01*
X23793Y46349D01*
X23690Y46335D01*
X23594Y46295D01*
X23511Y46232D01*
X23448Y46149D01*
X23418Y46078D01*
X23168D01*
X23139Y46149D01*
X23075Y46232D01*
X22993Y46295D01*
X22896Y46335D01*
X22793Y46349D01*
X22690Y46335D01*
X22594Y46295D01*
X22511Y46232D01*
X22448Y46149D01*
X22418Y46078D01*
X22168D01*
X22139Y46149D01*
X22075Y46232D01*
X21993Y46295D01*
X21896Y46335D01*
X21793Y46349D01*
X21690Y46335D01*
X21594Y46295D01*
X21511Y46232D01*
X21448Y46149D01*
X21434Y46115D01*
X21189Y46164D01*
Y46345D01*
X20398D01*
Y45555D01*
X20580D01*
X20628Y45310D01*
X20594Y45295D01*
X20511Y45232D01*
X20448Y45149D01*
X20408Y45053D01*
X20395Y44950D01*
X20408Y44847D01*
X20448Y44751D01*
X20511Y44668D01*
X20594Y44605D01*
X20690Y44565D01*
X20793Y44551D01*
X20896Y44565D01*
X20993Y44605D01*
X21075Y44668D01*
X21139Y44751D01*
X21168Y44822D01*
X21418D01*
X21448Y44751D01*
X21511Y44668D01*
X21594Y44605D01*
X21690Y44565D01*
X21793Y44551D01*
X21896Y44565D01*
X21993Y44605D01*
X22075Y44668D01*
X22139Y44751D01*
X22168Y44822D01*
X22418D01*
X22448Y44751D01*
X22511Y44668D01*
X22594Y44605D01*
X22690Y44565D01*
X22793Y44551D01*
X22896Y44565D01*
X22993Y44605D01*
X23075Y44668D01*
X23139Y44751D01*
X23168Y44822D01*
X23418D01*
X23448Y44751D01*
X23511Y44668D01*
X23594Y44605D01*
X23690Y44565D01*
X23793Y44551D01*
X23896Y44565D01*
X23993Y44605D01*
X24075Y44668D01*
X24139Y44751D01*
X24168Y44822D01*
X24418D01*
X24448Y44751D01*
X24511Y44668D01*
X24538Y44647D01*
Y43970D01*
X24352Y43783D01*
X24066D01*
Y43675D01*
X23540D01*
D01*
D01*
X23540Y43675D01*
X23346D01*
Y43675D01*
X22812D01*
Y43547D01*
X22575Y43467D01*
X22525Y43532D01*
X22443Y43595D01*
X22346Y43635D01*
X22243Y43649D01*
X22140Y43635D01*
X22044Y43595D01*
X21961Y43532D01*
X21898Y43449D01*
X21884Y43415D01*
X21639Y43464D01*
Y43645D01*
X21293D01*
Y43250D01*
Y42855D01*
X21639D01*
Y43036D01*
X21884Y43085D01*
X21898Y43051D01*
X21961Y42968D01*
X22044Y42905D01*
X22140Y42865D01*
X22243Y42851D01*
X22346Y42865D01*
X22443Y42905D01*
X22525Y42968D01*
X22575Y43033D01*
X22812Y42953D01*
Y42825D01*
X23029D01*
Y42994D01*
X23129D01*
Y42825D01*
X23346D01*
Y42825D01*
X23346D01*
X23346Y42825D01*
X23540D01*
Y42825D01*
X24066D01*
X24066Y42717D01*
X24066D01*
X24066Y42633D01*
D01*
X24066Y42525D01*
X23540D01*
D01*
D01*
X23540Y42525D01*
X23346D01*
Y42525D01*
X22812D01*
Y42397D01*
X22575Y42317D01*
X22525Y42382D01*
X22443Y42445D01*
X22346Y42485D01*
X22243Y42499D01*
X22140Y42485D01*
X22044Y42445D01*
X21961Y42382D01*
X21898Y42299D01*
X21884Y42265D01*
X21639Y42314D01*
Y42495D01*
X21293D01*
Y42100D01*
Y41705D01*
X21639D01*
Y41886D01*
X21884Y41935D01*
X21898Y41901D01*
X21961Y41818D01*
X22044Y41755D01*
X22140Y41715D01*
X22243Y41701D01*
X22346Y41715D01*
X22443Y41755D01*
X22525Y41818D01*
X22575Y41883D01*
X22812Y41803D01*
Y41675D01*
X23029D01*
Y41844D01*
X23129D01*
Y41675D01*
X23346D01*
Y41675D01*
X23346D01*
X23346Y41675D01*
X23540D01*
Y41675D01*
X24066D01*
X24066Y41567D01*
X24066D01*
X24066Y41483D01*
D01*
X24066Y41375D01*
X23540D01*
D01*
D01*
X23540Y41375D01*
X23346D01*
Y41375D01*
X22812D01*
Y41247D01*
X22575Y41167D01*
X22525Y41232D01*
X22443Y41295D01*
X22346Y41335D01*
X22243Y41349D01*
X22140Y41335D01*
X22044Y41295D01*
X21961Y41232D01*
X21898Y41149D01*
X21884Y41115D01*
X21639Y41164D01*
Y41345D01*
X21293D01*
Y40950D01*
Y40555D01*
X21639D01*
Y40736D01*
X21884Y40785D01*
X21898Y40751D01*
X21961Y40668D01*
X22044Y40605D01*
X22140Y40565D01*
X22243Y40551D01*
X22346Y40565D01*
X22443Y40605D01*
X22525Y40668D01*
X22575Y40733D01*
X22812Y40653D01*
Y40525D01*
X23029D01*
Y40694D01*
X23129D01*
Y40525D01*
X23346D01*
Y40525D01*
X23346D01*
X23346Y40525D01*
X23540D01*
Y40525D01*
X24066D01*
X24066Y40417D01*
X24066D01*
X24066Y40333D01*
D01*
X24066Y40225D01*
X23540D01*
D01*
D01*
X23540Y40225D01*
X23346D01*
Y40225D01*
X22812D01*
Y40097D01*
X22575Y40017D01*
X22525Y40082D01*
X22443Y40145D01*
X22346Y40185D01*
X22243Y40199D01*
X22140Y40185D01*
X22044Y40145D01*
X21961Y40082D01*
X21898Y39999D01*
X21884Y39965D01*
X21639Y40014D01*
Y40195D01*
X21293D01*
Y39800D01*
Y39405D01*
X21639D01*
Y39586D01*
X21884Y39635D01*
X21898Y39601D01*
X21961Y39518D01*
X22044Y39455D01*
X22140Y39415D01*
X22243Y39401D01*
X22346Y39415D01*
X22443Y39455D01*
X22525Y39518D01*
X22575Y39583D01*
X22812Y39503D01*
Y39375D01*
X23029D01*
Y39544D01*
X23129D01*
Y39375D01*
X23346D01*
Y39375D01*
X23346D01*
X23346Y39375D01*
X23540D01*
Y39375D01*
X24066D01*
X24066Y39267D01*
X24066D01*
X24066Y39183D01*
D01*
X24066Y39075D01*
X23540D01*
D01*
D01*
X23540Y39075D01*
X23346D01*
Y39075D01*
X22812D01*
Y38947D01*
X22575Y38867D01*
X22525Y38932D01*
X22443Y38995D01*
X22346Y39035D01*
X22243Y39049D01*
X22140Y39035D01*
X22044Y38995D01*
X21961Y38932D01*
X21898Y38849D01*
X21884Y38815D01*
X21639Y38864D01*
Y39045D01*
X21293D01*
Y38650D01*
Y38255D01*
X21639D01*
Y38436D01*
X21884Y38485D01*
X21898Y38451D01*
X21961Y38368D01*
X22044Y38305D01*
X22140Y38265D01*
X22243Y38251D01*
X22346Y38265D01*
X22443Y38305D01*
X22525Y38368D01*
X22575Y38433D01*
X22812Y38353D01*
Y38225D01*
X23029D01*
Y38394D01*
X23129D01*
Y38225D01*
X23346D01*
Y38225D01*
X23346D01*
X23346Y38225D01*
X23540D01*
Y38225D01*
X24066D01*
X24066Y38117D01*
X24066D01*
X24066Y38033D01*
D01*
X24066Y37925D01*
X23540D01*
D01*
D01*
X23540Y37925D01*
X23346D01*
Y37925D01*
X22812D01*
Y37797D01*
X22575Y37717D01*
X22525Y37782D01*
X22443Y37845D01*
X22346Y37885D01*
X22243Y37899D01*
X22140Y37885D01*
X22044Y37845D01*
X21961Y37782D01*
X21898Y37699D01*
X21884Y37665D01*
X21639Y37714D01*
Y37895D01*
X21293D01*
Y37500D01*
Y37105D01*
X21639D01*
Y37286D01*
X21884Y37335D01*
X21898Y37301D01*
X21961Y37218D01*
X22044Y37155D01*
X22140Y37115D01*
X22243Y37101D01*
X22346Y37115D01*
X22443Y37155D01*
X22525Y37218D01*
X22575Y37283D01*
X22812Y37203D01*
Y37075D01*
X23029D01*
Y37244D01*
X23129D01*
Y37075D01*
X23346D01*
Y37075D01*
X23346D01*
X23346Y37075D01*
X23540D01*
Y37075D01*
X24066D01*
X24066Y36967D01*
X24066D01*
X24066Y36883D01*
D01*
X24066Y36775D01*
X23540D01*
D01*
D01*
X23540Y36775D01*
X23346D01*
Y36775D01*
X22812D01*
Y36647D01*
X22575Y36567D01*
X22525Y36632D01*
X22443Y36695D01*
X22346Y36735D01*
X22243Y36749D01*
X22140Y36735D01*
X22044Y36695D01*
X21961Y36632D01*
X21898Y36549D01*
X21884Y36515D01*
X21639Y36564D01*
Y36745D01*
X21293D01*
Y36350D01*
Y35955D01*
X21639D01*
Y36136D01*
X21884Y36185D01*
X21898Y36151D01*
X21961Y36068D01*
X22044Y36005D01*
X22140Y35965D01*
X22243Y35951D01*
X22346Y35965D01*
X22443Y36005D01*
X22525Y36068D01*
X22575Y36133D01*
X22812Y36053D01*
Y35925D01*
X23029D01*
Y36094D01*
X23129D01*
Y35925D01*
X23346D01*
Y35925D01*
X23346D01*
X23346Y35925D01*
X23540D01*
Y35925D01*
X24066D01*
X24066Y35817D01*
X24066D01*
X24066Y35733D01*
D01*
X24066Y35625D01*
X23540D01*
D01*
D01*
X23540Y35625D01*
X23346D01*
Y35625D01*
X22812D01*
Y35497D01*
X22575Y35417D01*
X22525Y35482D01*
X22443Y35545D01*
X22346Y35585D01*
X22243Y35599D01*
X22140Y35585D01*
X22044Y35545D01*
X21961Y35482D01*
X21898Y35399D01*
X21884Y35365D01*
X21639Y35414D01*
Y35595D01*
X21293D01*
Y35200D01*
Y34805D01*
X21639D01*
Y34986D01*
X21884Y35035D01*
X21898Y35001D01*
X21961Y34918D01*
X22044Y34855D01*
X22140Y34815D01*
X22243Y34801D01*
X22346Y34815D01*
X22443Y34855D01*
X22525Y34918D01*
X22575Y34983D01*
X22812Y34903D01*
Y34775D01*
X23029D01*
Y34944D01*
X23129D01*
Y34775D01*
X23260D01*
Y34677D01*
X23260D01*
Y34450D01*
X23498D01*
Y34400D01*
X23548D01*
Y34123D01*
X23674D01*
Y34123D01*
X23674Y34123D01*
X23736Y34123D01*
X23793D01*
X23851D01*
X23913Y34123D01*
X23913Y34123D01*
Y34123D01*
X24181D01*
Y33850D01*
X24498D01*
Y33750D01*
X24181D01*
Y33495D01*
X23898D01*
Y33150D01*
X24293D01*
Y33100D01*
X24343D01*
Y32705D01*
X24689D01*
Y32886D01*
X24934Y32935D01*
X24948Y32901D01*
X25011Y32818D01*
X25094Y32755D01*
X25190Y32715D01*
X25293Y32701D01*
X25396Y32715D01*
X25493Y32755D01*
X25575Y32818D01*
X25639Y32901D01*
X25678Y32997D01*
X25692Y33100D01*
X25678Y33203D01*
X25639Y33299D01*
X25575Y33382D01*
X25493Y33445D01*
X25405Y33482D01*
Y34176D01*
X25348D01*
Y34667D01*
X25520D01*
Y34775D01*
X26046D01*
Y34775D01*
X26046D01*
X26046Y34775D01*
X26240D01*
Y34775D01*
X26775D01*
Y34903D01*
X27012Y34983D01*
X27061Y34918D01*
X27144Y34855D01*
X27240Y34815D01*
X27343Y34801D01*
X27446Y34815D01*
X27543Y34855D01*
X27625Y34918D01*
X27689Y35001D01*
X27703Y35035D01*
X27948Y34986D01*
Y34805D01*
X28293D01*
Y35200D01*
Y35595D01*
X27948D01*
Y35414D01*
X27703Y35365D01*
X27689Y35399D01*
X27625Y35482D01*
X27543Y35545D01*
X27446Y35585D01*
X27343Y35599D01*
X27240Y35585D01*
X27144Y35545D01*
X27061Y35482D01*
X27012Y35417D01*
X26775Y35497D01*
Y35625D01*
X26557D01*
Y35456D01*
X26457D01*
Y35625D01*
X26240D01*
D01*
D01*
X26240Y35625D01*
X26046D01*
Y35625D01*
X25520D01*
X25520Y35733D01*
D01*
Y35817D01*
D01*
X25520Y35925D01*
X26046D01*
Y35925D01*
X26046D01*
X26046Y35925D01*
X26240D01*
Y35925D01*
X26775D01*
Y36053D01*
X27012Y36133D01*
X27061Y36068D01*
X27144Y36005D01*
X27240Y35965D01*
X27343Y35951D01*
X27446Y35965D01*
X27543Y36005D01*
X27625Y36068D01*
X27689Y36151D01*
X27703Y36185D01*
X27948Y36136D01*
Y35955D01*
X28293D01*
Y36350D01*
Y36745D01*
X27948D01*
Y36564D01*
X27703Y36515D01*
X27689Y36549D01*
X27625Y36632D01*
X27543Y36695D01*
X27446Y36735D01*
X27343Y36749D01*
X27240Y36735D01*
X27144Y36695D01*
X27061Y36632D01*
X27012Y36567D01*
X26775Y36647D01*
Y36775D01*
X26557D01*
Y36606D01*
X26457D01*
Y36775D01*
X26240D01*
D01*
D01*
X26240Y36775D01*
X26046D01*
Y36775D01*
X25520D01*
X25520Y36883D01*
D01*
Y36967D01*
D01*
X25520Y37075D01*
X26046D01*
Y37075D01*
X26046D01*
X26046Y37075D01*
X26240D01*
Y37075D01*
X26775D01*
Y37203D01*
X27012Y37283D01*
X27061Y37218D01*
X27144Y37155D01*
X27240Y37115D01*
X27343Y37101D01*
X27446Y37115D01*
X27543Y37155D01*
X27625Y37218D01*
X27689Y37301D01*
X27703Y37335D01*
X27948Y37286D01*
Y37105D01*
X28293D01*
Y37500D01*
Y37895D01*
X27948D01*
Y37714D01*
X27703Y37665D01*
X27689Y37699D01*
X27625Y37782D01*
X27543Y37845D01*
X27446Y37885D01*
X27343Y37899D01*
X27240Y37885D01*
X27144Y37845D01*
X27061Y37782D01*
X27012Y37717D01*
X26775Y37797D01*
Y37925D01*
X26557D01*
Y37756D01*
X26457D01*
Y37925D01*
X26240D01*
D01*
D01*
X26240Y37925D01*
X26046D01*
Y37925D01*
X25520D01*
X25520Y38033D01*
D01*
Y38117D01*
D01*
X25520Y38225D01*
X26046D01*
Y38225D01*
X26046D01*
X26046Y38225D01*
X26240D01*
Y38225D01*
X26775D01*
Y38353D01*
X27012Y38433D01*
X27061Y38368D01*
X27144Y38305D01*
X27240Y38265D01*
X27343Y38251D01*
X27446Y38265D01*
X27543Y38305D01*
X27625Y38368D01*
X27689Y38451D01*
X27703Y38485D01*
X27948Y38436D01*
Y38255D01*
X28293D01*
Y38650D01*
Y39045D01*
X27948D01*
Y38864D01*
X27703Y38815D01*
X27689Y38849D01*
X27625Y38932D01*
X27543Y38995D01*
X27446Y39035D01*
X27343Y39049D01*
X27240Y39035D01*
X27144Y38995D01*
X27061Y38932D01*
X27012Y38867D01*
X26775Y38947D01*
Y39075D01*
X26557D01*
Y38906D01*
X26457D01*
Y39075D01*
X26240D01*
D01*
D01*
X26240Y39075D01*
X26046D01*
Y39075D01*
X25520D01*
X25520Y39183D01*
D01*
Y39267D01*
D01*
X25520Y39375D01*
X26046D01*
Y39375D01*
X26046D01*
X26046Y39375D01*
X26240D01*
Y39375D01*
X26775D01*
Y39503D01*
X27012Y39583D01*
X27061Y39518D01*
X27144Y39455D01*
X27240Y39415D01*
X27343Y39401D01*
X27446Y39415D01*
X27543Y39455D01*
X27625Y39518D01*
X27689Y39601D01*
X27703Y39635D01*
X27948Y39586D01*
Y39405D01*
X28293D01*
Y39800D01*
Y40195D01*
X27948D01*
Y40014D01*
X27703Y39965D01*
X27689Y39999D01*
X27625Y40082D01*
X27543Y40145D01*
X27446Y40185D01*
X27343Y40199D01*
X27240Y40185D01*
X27144Y40145D01*
X27061Y40082D01*
X27012Y40017D01*
X26775Y40097D01*
Y40225D01*
X26557D01*
Y40056D01*
X26457D01*
Y40225D01*
X26240D01*
D01*
D01*
X26240Y40225D01*
X26046D01*
Y40225D01*
X25520D01*
X25520Y40333D01*
D01*
Y40417D01*
D01*
X25520Y40525D01*
X26046D01*
Y40525D01*
X26046D01*
X26046Y40525D01*
X26240D01*
Y40525D01*
X26775D01*
Y40653D01*
X27012Y40733D01*
X27061Y40668D01*
X27144Y40605D01*
X27240Y40565D01*
X27343Y40551D01*
X27446Y40565D01*
X27543Y40605D01*
X27625Y40668D01*
X27689Y40751D01*
X27703Y40785D01*
X27948Y40736D01*
Y40555D01*
X28293D01*
Y40950D01*
Y41345D01*
X27948D01*
Y41164D01*
X27703Y41115D01*
X27689Y41149D01*
X27625Y41232D01*
X27543Y41295D01*
X27446Y41335D01*
X27343Y41349D01*
X27240Y41335D01*
X27144Y41295D01*
X27061Y41232D01*
X27012Y41167D01*
X26775Y41247D01*
Y41375D01*
X26557D01*
Y41206D01*
X26457D01*
Y41375D01*
X26240D01*
D01*
D01*
X26240Y41375D01*
X26046D01*
Y41375D01*
X25520D01*
X25520Y41483D01*
D01*
Y41567D01*
D01*
X25520Y41675D01*
X26046D01*
Y41675D01*
X26046D01*
X26046Y41675D01*
X26240D01*
Y41675D01*
X26775D01*
Y41803D01*
X27012Y41883D01*
X27061Y41818D01*
X27144Y41755D01*
X27240Y41715D01*
X27343Y41701D01*
X27446Y41715D01*
X27543Y41755D01*
X27625Y41818D01*
X27689Y41901D01*
X27703Y41935D01*
X27948Y41886D01*
Y41705D01*
X28293D01*
Y42100D01*
Y42495D01*
X27948D01*
Y42314D01*
X27703Y42265D01*
X27689Y42299D01*
X27625Y42382D01*
X27543Y42445D01*
X27446Y42485D01*
X27343Y42499D01*
X27240Y42485D01*
X27144Y42445D01*
X27061Y42382D01*
X27012Y42317D01*
X26775Y42397D01*
Y42525D01*
X26557D01*
Y42356D01*
X26457D01*
Y42525D01*
X26240D01*
D01*
D01*
X26240Y42525D01*
X26046D01*
Y42525D01*
X25520D01*
X25520Y42633D01*
D01*
Y42717D01*
D01*
X25520Y42825D01*
X26046D01*
Y42825D01*
X26046D01*
X26046Y42825D01*
X26240D01*
Y42825D01*
X26775D01*
Y42953D01*
X27012Y43033D01*
X27061Y42968D01*
X27144Y42905D01*
X27240Y42865D01*
X27343Y42851D01*
X27446Y42865D01*
X27543Y42905D01*
X27625Y42968D01*
X27689Y43051D01*
X27703Y43085D01*
X27948Y43036D01*
Y42855D01*
X28293D01*
Y43250D01*
Y43645D01*
X27948D01*
Y43464D01*
X27703Y43415D01*
X27689Y43449D01*
X27625Y43532D01*
X27543Y43595D01*
X27446Y43635D01*
X27343Y43649D01*
X27240Y43635D01*
X27144Y43595D01*
X27061Y43532D01*
X27012Y43467D01*
X26775Y43547D01*
Y43675D01*
X26557D01*
Y43506D01*
X26457D01*
Y43675D01*
X26240D01*
D01*
D01*
X26240Y43675D01*
X26046D01*
Y43675D01*
X25520D01*
Y43783D01*
X25048D01*
Y43900D01*
Y44647D01*
X25075Y44668D01*
X25139Y44751D01*
X25168Y44822D01*
X25418D01*
X25448Y44751D01*
X25511Y44668D01*
X25594Y44605D01*
X25690Y44565D01*
X25793Y44551D01*
X25896Y44565D01*
X25993Y44605D01*
X26075Y44668D01*
X26139Y44751D01*
X26168Y44822D01*
X26418D01*
X26448Y44751D01*
X26511Y44668D01*
X26594Y44605D01*
X26690Y44565D01*
X26793Y44551D01*
X26896Y44565D01*
X26993Y44605D01*
X27075Y44668D01*
X27139Y44751D01*
X27168Y44822D01*
X27418D01*
X27448Y44751D01*
X27511Y44668D01*
X27594Y44605D01*
X27690Y44565D01*
X27793Y44551D01*
X27896Y44565D01*
X27993Y44605D01*
X28075Y44668D01*
X28139Y44751D01*
X28168Y44822D01*
X28418D01*
X28448Y44751D01*
X28511Y44668D01*
X28594Y44605D01*
X28690Y44565D01*
X28793Y44551D01*
X28896Y44565D01*
X28993Y44605D01*
X29075Y44668D01*
X29139Y44751D01*
X29178Y44847D01*
X29192Y44950D01*
X29178Y45053D01*
X29139Y45149D01*
X29075Y45232D01*
X28993Y45295D01*
X28921Y45325D01*
Y45575D01*
X28993Y45605D01*
X29075Y45668D01*
X29139Y45751D01*
X29178Y45847D01*
X29192Y45950D01*
X29178Y46053D01*
X29139Y46149D01*
X29075Y46232D01*
X28993Y46295D01*
X28896Y46335D01*
X28793Y46349D01*
D02*
G37*
G36*
X18950D02*
X18847Y46335D01*
X18751Y46295D01*
X18668Y46232D01*
X18605Y46149D01*
X18575Y46078D01*
X18325D01*
X18295Y46149D01*
X18232Y46232D01*
X18149Y46295D01*
X18053Y46335D01*
X17950Y46349D01*
X17847Y46335D01*
X17751Y46295D01*
X17668Y46232D01*
X17605Y46149D01*
X17575Y46078D01*
X17325D01*
X17295Y46149D01*
X17232Y46232D01*
X17149Y46295D01*
X17053Y46335D01*
X16950Y46349D01*
X16847Y46335D01*
X16751Y46295D01*
X16668Y46232D01*
X16605Y46149D01*
X16575Y46078D01*
X16325D01*
X16295Y46149D01*
X16232Y46232D01*
X16149Y46295D01*
X16053Y46335D01*
X15950Y46349D01*
X15847Y46335D01*
X15751Y46295D01*
X15668Y46232D01*
X15605Y46149D01*
X15575Y46078D01*
X15325D01*
X15295Y46149D01*
X15232Y46232D01*
X15149Y46295D01*
X15053Y46335D01*
X15000Y46342D01*
Y45950D01*
X14900D01*
Y46342D01*
X14847Y46335D01*
X14751Y46295D01*
X14668Y46232D01*
X14605Y46149D01*
X14575Y46078D01*
X14325D01*
X14295Y46149D01*
X14232Y46232D01*
X14149Y46295D01*
X14053Y46335D01*
X13950Y46349D01*
X13847Y46335D01*
X13751Y46295D01*
X13668Y46232D01*
X13605Y46149D01*
X13575Y46078D01*
X13325D01*
X13295Y46149D01*
X13232Y46232D01*
X13149Y46295D01*
X13053Y46335D01*
X12950Y46349D01*
X12847Y46335D01*
X12751Y46295D01*
X12668Y46232D01*
X12605Y46149D01*
X12575Y46078D01*
X12325D01*
X12295Y46149D01*
X12232Y46232D01*
X12149Y46295D01*
X12053Y46335D01*
X11950Y46349D01*
X11847Y46335D01*
X11751Y46295D01*
X11668Y46232D01*
X11605Y46149D01*
X11590Y46115D01*
X11345Y46164D01*
Y46345D01*
X10555D01*
Y45555D01*
X10736D01*
X10785Y45310D01*
X10751Y45295D01*
X10668Y45232D01*
X10605Y45149D01*
X10565Y45053D01*
X10551Y44950D01*
X10565Y44847D01*
X10605Y44751D01*
X10668Y44668D01*
X10751Y44605D01*
X10847Y44565D01*
X10950Y44551D01*
X11053Y44565D01*
X11149Y44605D01*
X11232Y44668D01*
X11295Y44751D01*
X11325Y44822D01*
X11575D01*
X11605Y44751D01*
X11668Y44668D01*
X11751Y44605D01*
X11847Y44565D01*
X11950Y44551D01*
X12053Y44565D01*
X12149Y44605D01*
X12232Y44668D01*
X12295Y44751D01*
X12325Y44822D01*
X12575D01*
X12605Y44751D01*
X12668Y44668D01*
X12751Y44605D01*
X12847Y44565D01*
X12950Y44551D01*
X13053Y44565D01*
X13149Y44605D01*
X13232Y44668D01*
X13295Y44751D01*
X13325Y44822D01*
X13575D01*
X13605Y44751D01*
X13668Y44668D01*
X13751Y44605D01*
X13847Y44565D01*
X13950Y44551D01*
X14053Y44565D01*
X14149Y44605D01*
X14232Y44668D01*
X14295Y44751D01*
X14325Y44822D01*
X14575D01*
X14605Y44751D01*
X14668Y44668D01*
X14695Y44647D01*
Y43970D01*
X14509Y43783D01*
X14223D01*
Y43675D01*
X13697D01*
D01*
D01*
X13697Y43675D01*
X13503D01*
Y43675D01*
X12968D01*
Y43547D01*
X12732Y43467D01*
X12682Y43532D01*
X12599Y43595D01*
X12503Y43635D01*
X12400Y43649D01*
X12297Y43635D01*
X12201Y43595D01*
X12118Y43532D01*
X12055Y43449D01*
X12040Y43415D01*
X11795Y43464D01*
Y43645D01*
X11450D01*
Y43250D01*
Y42855D01*
X11795D01*
Y43036D01*
X12040Y43085D01*
X12055Y43051D01*
X12118Y42968D01*
X12201Y42905D01*
X12297Y42865D01*
X12400Y42851D01*
X12503Y42865D01*
X12599Y42905D01*
X12682Y42968D01*
X12732Y43033D01*
X12968Y42953D01*
Y42825D01*
X13186D01*
Y42994D01*
X13286D01*
Y42825D01*
X13503D01*
Y42825D01*
X13503D01*
X13503Y42825D01*
X13697D01*
Y42825D01*
X14223D01*
X14223Y42717D01*
X14223D01*
X14223Y42633D01*
D01*
X14223Y42525D01*
X13697D01*
D01*
D01*
X13697Y42525D01*
X13503D01*
Y42525D01*
X12968D01*
Y42397D01*
X12732Y42317D01*
X12682Y42382D01*
X12599Y42445D01*
X12503Y42485D01*
X12400Y42499D01*
X12297Y42485D01*
X12201Y42445D01*
X12118Y42382D01*
X12055Y42299D01*
X12040Y42265D01*
X11795Y42314D01*
Y42495D01*
X11450D01*
Y42100D01*
Y41705D01*
X11795D01*
Y41886D01*
X12040Y41935D01*
X12055Y41901D01*
X12118Y41818D01*
X12201Y41755D01*
X12297Y41715D01*
X12400Y41701D01*
X12503Y41715D01*
X12599Y41755D01*
X12682Y41818D01*
X12732Y41883D01*
X12968Y41803D01*
Y41675D01*
X13186D01*
Y41844D01*
X13286D01*
Y41675D01*
X13503D01*
Y41675D01*
X13503D01*
X13503Y41675D01*
X13697D01*
Y41675D01*
X14223D01*
X14223Y41567D01*
X14223D01*
X14223Y41483D01*
D01*
X14223Y41375D01*
X13697D01*
D01*
D01*
X13697Y41375D01*
X13503D01*
Y41375D01*
X12968D01*
Y41247D01*
X12732Y41167D01*
X12682Y41232D01*
X12599Y41295D01*
X12503Y41335D01*
X12400Y41349D01*
X12297Y41335D01*
X12201Y41295D01*
X12118Y41232D01*
X12055Y41149D01*
X12040Y41115D01*
X11795Y41164D01*
Y41345D01*
X11450D01*
Y40950D01*
Y40555D01*
X11795D01*
Y40736D01*
X12040Y40785D01*
X12055Y40751D01*
X12118Y40668D01*
X12201Y40605D01*
X12297Y40565D01*
X12400Y40551D01*
X12503Y40565D01*
X12599Y40605D01*
X12682Y40668D01*
X12732Y40733D01*
X12968Y40653D01*
Y40525D01*
X13186D01*
Y40694D01*
X13286D01*
Y40525D01*
X13503D01*
Y40525D01*
X13503D01*
X13503Y40525D01*
X13697D01*
Y40525D01*
X14223D01*
X14223Y40417D01*
X14223D01*
X14223Y40333D01*
D01*
X14223Y40225D01*
X13697D01*
D01*
D01*
X13697Y40225D01*
X13503D01*
Y40225D01*
X12968D01*
Y40097D01*
X12732Y40017D01*
X12682Y40082D01*
X12599Y40145D01*
X12503Y40185D01*
X12400Y40199D01*
X12297Y40185D01*
X12201Y40145D01*
X12118Y40082D01*
X12055Y39999D01*
X12040Y39965D01*
X11795Y40014D01*
Y40195D01*
X11450D01*
Y39800D01*
Y39405D01*
X11795D01*
Y39586D01*
X12040Y39635D01*
X12055Y39601D01*
X12118Y39518D01*
X12201Y39455D01*
X12297Y39415D01*
X12400Y39401D01*
X12503Y39415D01*
X12599Y39455D01*
X12682Y39518D01*
X12732Y39583D01*
X12968Y39503D01*
Y39375D01*
X13186D01*
Y39544D01*
X13286D01*
Y39375D01*
X13503D01*
Y39375D01*
X13503D01*
X13503Y39375D01*
X13697D01*
Y39375D01*
X14223D01*
X14223Y39267D01*
X14223D01*
X14223Y39183D01*
D01*
X14223Y39075D01*
X13697D01*
D01*
D01*
X13697Y39075D01*
X13503D01*
Y39075D01*
X12968D01*
Y38947D01*
X12732Y38867D01*
X12682Y38932D01*
X12599Y38995D01*
X12503Y39035D01*
X12400Y39049D01*
X12297Y39035D01*
X12201Y38995D01*
X12118Y38932D01*
X12055Y38849D01*
X12040Y38815D01*
X11795Y38864D01*
Y39045D01*
X11450D01*
Y38650D01*
Y38255D01*
X11795D01*
Y38436D01*
X12040Y38485D01*
X12055Y38451D01*
X12118Y38368D01*
X12201Y38305D01*
X12297Y38265D01*
X12400Y38251D01*
X12503Y38265D01*
X12599Y38305D01*
X12682Y38368D01*
X12732Y38433D01*
X12968Y38353D01*
Y38225D01*
X13186D01*
Y38394D01*
X13286D01*
Y38225D01*
X13503D01*
Y38225D01*
X13503D01*
X13503Y38225D01*
X13697D01*
Y38225D01*
X14223D01*
X14223Y38117D01*
X14223D01*
X14223Y38033D01*
D01*
X14223Y37925D01*
X13697D01*
D01*
D01*
X13697Y37925D01*
X13503D01*
Y37925D01*
X12968D01*
Y37797D01*
X12732Y37717D01*
X12682Y37782D01*
X12599Y37845D01*
X12503Y37885D01*
X12400Y37899D01*
X12297Y37885D01*
X12201Y37845D01*
X12118Y37782D01*
X12055Y37699D01*
X12040Y37665D01*
X11795Y37714D01*
Y37895D01*
X11450D01*
Y37500D01*
Y37105D01*
X11795D01*
Y37286D01*
X12040Y37335D01*
X12055Y37301D01*
X12118Y37218D01*
X12201Y37155D01*
X12297Y37115D01*
X12400Y37101D01*
X12503Y37115D01*
X12599Y37155D01*
X12682Y37218D01*
X12732Y37283D01*
X12968Y37203D01*
Y37075D01*
X13186D01*
Y37244D01*
X13286D01*
Y37075D01*
X13503D01*
Y37075D01*
X13503D01*
X13503Y37075D01*
X13697D01*
Y37075D01*
X14223D01*
X14223Y36967D01*
X14223D01*
X14223Y36883D01*
D01*
X14223Y36775D01*
X13697D01*
D01*
D01*
X13697Y36775D01*
X13503D01*
Y36775D01*
X12968D01*
Y36647D01*
X12732Y36567D01*
X12682Y36632D01*
X12599Y36695D01*
X12503Y36735D01*
X12400Y36749D01*
X12297Y36735D01*
X12201Y36695D01*
X12118Y36632D01*
X12055Y36549D01*
X12040Y36515D01*
X11795Y36564D01*
Y36745D01*
X11450D01*
Y36350D01*
Y35955D01*
X11795D01*
Y36136D01*
X12040Y36185D01*
X12055Y36151D01*
X12118Y36068D01*
X12201Y36005D01*
X12297Y35965D01*
X12400Y35951D01*
X12503Y35965D01*
X12599Y36005D01*
X12682Y36068D01*
X12732Y36133D01*
X12968Y36053D01*
Y35925D01*
X13186D01*
Y36094D01*
X13286D01*
Y35925D01*
X13503D01*
Y35925D01*
X13503D01*
X13503Y35925D01*
X13697D01*
Y35925D01*
X14223D01*
X14223Y35817D01*
X14223D01*
X14223Y35733D01*
D01*
X14223Y35625D01*
X13697D01*
D01*
D01*
X13697Y35625D01*
X13503D01*
Y35625D01*
X12968D01*
Y35497D01*
X12732Y35417D01*
X12682Y35482D01*
X12599Y35545D01*
X12503Y35585D01*
X12400Y35599D01*
X12297Y35585D01*
X12201Y35545D01*
X12118Y35482D01*
X12055Y35399D01*
X12040Y35365D01*
X11795Y35414D01*
Y35595D01*
X11450D01*
Y35200D01*
Y34805D01*
X11795D01*
Y34986D01*
X12040Y35035D01*
X12055Y35001D01*
X12118Y34918D01*
X12201Y34855D01*
X12297Y34815D01*
X12400Y34801D01*
X12503Y34815D01*
X12599Y34855D01*
X12682Y34918D01*
X12732Y34983D01*
X12968Y34903D01*
Y34775D01*
X13186D01*
Y34944D01*
X13286D01*
Y34775D01*
X13417D01*
Y34677D01*
X13417D01*
Y34450D01*
X13655D01*
Y34400D01*
X13705D01*
Y34123D01*
X13831D01*
Y34123D01*
X13831Y34123D01*
X13893Y34123D01*
X13950D01*
X14007D01*
X14069Y34123D01*
X14069Y34123D01*
Y34123D01*
X14338D01*
Y33850D01*
X14655D01*
Y33750D01*
X14338D01*
Y33495D01*
X14055D01*
Y33150D01*
X14450D01*
Y33100D01*
X14500D01*
Y32705D01*
X14845D01*
Y32886D01*
X15090Y32935D01*
X15105Y32901D01*
X15168Y32818D01*
X15251Y32755D01*
X15347Y32715D01*
X15450Y32701D01*
X15553Y32715D01*
X15649Y32755D01*
X15732Y32818D01*
X15795Y32901D01*
X15835Y32997D01*
X15849Y33100D01*
X15835Y33203D01*
X15795Y33299D01*
X15732Y33382D01*
X15649Y33445D01*
X15562Y33482D01*
Y34176D01*
X15505D01*
Y34667D01*
X15677D01*
Y34775D01*
X16203D01*
Y34775D01*
X16203D01*
X16203Y34775D01*
X16397D01*
Y34775D01*
X16932D01*
Y34903D01*
X17168Y34983D01*
X17218Y34918D01*
X17301Y34855D01*
X17397Y34815D01*
X17500Y34801D01*
X17603Y34815D01*
X17699Y34855D01*
X17782Y34918D01*
X17845Y35001D01*
X17860Y35035D01*
X18105Y34986D01*
Y34805D01*
X18450D01*
Y35200D01*
Y35595D01*
X18105D01*
Y35414D01*
X17860Y35365D01*
X17845Y35399D01*
X17782Y35482D01*
X17699Y35545D01*
X17603Y35585D01*
X17500Y35599D01*
X17397Y35585D01*
X17301Y35545D01*
X17218Y35482D01*
X17168Y35417D01*
X16932Y35497D01*
Y35625D01*
X16714D01*
Y35456D01*
X16614D01*
Y35625D01*
X16397D01*
D01*
D01*
X16397Y35625D01*
X16203D01*
Y35625D01*
X15677D01*
X15677Y35733D01*
D01*
Y35817D01*
D01*
X15677Y35925D01*
X16203D01*
Y35925D01*
X16203D01*
X16203Y35925D01*
X16397D01*
Y35925D01*
X16932D01*
Y36053D01*
X17168Y36133D01*
X17218Y36068D01*
X17301Y36005D01*
X17397Y35965D01*
X17500Y35951D01*
X17603Y35965D01*
X17699Y36005D01*
X17782Y36068D01*
X17845Y36151D01*
X17860Y36185D01*
X18105Y36136D01*
Y35955D01*
X18450D01*
Y36350D01*
Y36745D01*
X18105D01*
Y36564D01*
X17860Y36515D01*
X17845Y36549D01*
X17782Y36632D01*
X17699Y36695D01*
X17603Y36735D01*
X17500Y36749D01*
X17397Y36735D01*
X17301Y36695D01*
X17218Y36632D01*
X17168Y36567D01*
X16932Y36647D01*
Y36775D01*
X16714D01*
Y36606D01*
X16614D01*
Y36775D01*
X16397D01*
D01*
D01*
X16397Y36775D01*
X16203D01*
Y36775D01*
X15677D01*
X15677Y36883D01*
D01*
Y36967D01*
D01*
X15677Y37075D01*
X16203D01*
Y37075D01*
X16203D01*
X16203Y37075D01*
X16397D01*
Y37075D01*
X16932D01*
Y37203D01*
X17168Y37283D01*
X17218Y37218D01*
X17301Y37155D01*
X17397Y37115D01*
X17500Y37101D01*
X17603Y37115D01*
X17699Y37155D01*
X17782Y37218D01*
X17845Y37301D01*
X17860Y37335D01*
X18105Y37286D01*
Y37105D01*
X18450D01*
Y37500D01*
Y37895D01*
X18105D01*
Y37714D01*
X17860Y37665D01*
X17845Y37699D01*
X17782Y37782D01*
X17699Y37845D01*
X17603Y37885D01*
X17500Y37899D01*
X17397Y37885D01*
X17301Y37845D01*
X17218Y37782D01*
X17168Y37717D01*
X16932Y37797D01*
Y37925D01*
X16714D01*
Y37756D01*
X16614D01*
Y37925D01*
X16397D01*
D01*
D01*
X16397Y37925D01*
X16203D01*
Y37925D01*
X15677D01*
X15677Y38033D01*
D01*
Y38117D01*
D01*
X15677Y38225D01*
X16203D01*
Y38225D01*
X16203D01*
X16203Y38225D01*
X16397D01*
Y38225D01*
X16932D01*
Y38353D01*
X17168Y38433D01*
X17218Y38368D01*
X17301Y38305D01*
X17397Y38265D01*
X17500Y38251D01*
X17603Y38265D01*
X17699Y38305D01*
X17782Y38368D01*
X17845Y38451D01*
X17860Y38485D01*
X18105Y38436D01*
Y38255D01*
X18450D01*
Y38650D01*
Y39045D01*
X18105D01*
Y38864D01*
X17860Y38815D01*
X17845Y38849D01*
X17782Y38932D01*
X17699Y38995D01*
X17603Y39035D01*
X17500Y39049D01*
X17397Y39035D01*
X17301Y38995D01*
X17218Y38932D01*
X17168Y38867D01*
X16932Y38947D01*
Y39075D01*
X16714D01*
Y38906D01*
X16614D01*
Y39075D01*
X16397D01*
D01*
D01*
X16397Y39075D01*
X16203D01*
Y39075D01*
X15677D01*
X15677Y39183D01*
D01*
Y39267D01*
D01*
X15677Y39375D01*
X16203D01*
Y39375D01*
X16203D01*
X16203Y39375D01*
X16397D01*
Y39375D01*
X16932D01*
Y39503D01*
X17168Y39583D01*
X17218Y39518D01*
X17301Y39455D01*
X17397Y39415D01*
X17500Y39401D01*
X17603Y39415D01*
X17699Y39455D01*
X17782Y39518D01*
X17845Y39601D01*
X17860Y39635D01*
X18105Y39586D01*
Y39405D01*
X18450D01*
Y39800D01*
Y40195D01*
X18105D01*
Y40014D01*
X17860Y39965D01*
X17845Y39999D01*
X17782Y40082D01*
X17699Y40145D01*
X17603Y40185D01*
X17500Y40199D01*
X17397Y40185D01*
X17301Y40145D01*
X17218Y40082D01*
X17168Y40017D01*
X16932Y40097D01*
Y40225D01*
X16714D01*
Y40056D01*
X16614D01*
Y40225D01*
X16397D01*
D01*
D01*
X16397Y40225D01*
X16203D01*
Y40225D01*
X15677D01*
X15677Y40333D01*
D01*
Y40417D01*
D01*
X15677Y40525D01*
X16203D01*
Y40525D01*
X16203D01*
X16203Y40525D01*
X16397D01*
Y40525D01*
X16932D01*
Y40653D01*
X17168Y40733D01*
X17218Y40668D01*
X17301Y40605D01*
X17397Y40565D01*
X17500Y40551D01*
X17603Y40565D01*
X17699Y40605D01*
X17782Y40668D01*
X17845Y40751D01*
X17860Y40785D01*
X18105Y40736D01*
Y40555D01*
X18450D01*
Y40950D01*
Y41345D01*
X18105D01*
Y41164D01*
X17860Y41115D01*
X17845Y41149D01*
X17782Y41232D01*
X17699Y41295D01*
X17603Y41335D01*
X17500Y41349D01*
X17397Y41335D01*
X17301Y41295D01*
X17218Y41232D01*
X17168Y41167D01*
X16932Y41247D01*
Y41375D01*
X16714D01*
Y41206D01*
X16614D01*
Y41375D01*
X16397D01*
D01*
D01*
X16397Y41375D01*
X16203D01*
Y41375D01*
X15677D01*
X15677Y41483D01*
D01*
Y41567D01*
D01*
X15677Y41675D01*
X16203D01*
Y41675D01*
X16203D01*
X16203Y41675D01*
X16397D01*
Y41675D01*
X16932D01*
Y41803D01*
X17168Y41883D01*
X17218Y41818D01*
X17301Y41755D01*
X17397Y41715D01*
X17500Y41701D01*
X17603Y41715D01*
X17699Y41755D01*
X17782Y41818D01*
X17845Y41901D01*
X17860Y41935D01*
X18105Y41886D01*
Y41705D01*
X18450D01*
Y42100D01*
Y42495D01*
X18105D01*
Y42314D01*
X17860Y42265D01*
X17845Y42299D01*
X17782Y42382D01*
X17699Y42445D01*
X17603Y42485D01*
X17500Y42499D01*
X17397Y42485D01*
X17301Y42445D01*
X17218Y42382D01*
X17168Y42317D01*
X16932Y42397D01*
Y42525D01*
X16714D01*
Y42356D01*
X16614D01*
Y42525D01*
X16397D01*
D01*
D01*
X16397Y42525D01*
X16203D01*
Y42525D01*
X15677D01*
X15677Y42633D01*
D01*
Y42717D01*
D01*
X15677Y42825D01*
X16203D01*
Y42825D01*
X16203D01*
X16203Y42825D01*
X16397D01*
Y42825D01*
X16932D01*
Y42953D01*
X17168Y43033D01*
X17218Y42968D01*
X17301Y42905D01*
X17397Y42865D01*
X17500Y42851D01*
X17603Y42865D01*
X17699Y42905D01*
X17782Y42968D01*
X17845Y43051D01*
X17860Y43085D01*
X18105Y43036D01*
Y42855D01*
X18450D01*
Y43250D01*
Y43645D01*
X18105D01*
Y43464D01*
X17860Y43415D01*
X17845Y43449D01*
X17782Y43532D01*
X17699Y43595D01*
X17603Y43635D01*
X17500Y43649D01*
X17397Y43635D01*
X17301Y43595D01*
X17218Y43532D01*
X17168Y43467D01*
X16932Y43547D01*
Y43675D01*
X16714D01*
Y43506D01*
X16614D01*
Y43675D01*
X16397D01*
D01*
D01*
X16397Y43675D01*
X16203D01*
Y43675D01*
X15677D01*
Y43783D01*
X15205D01*
Y43900D01*
Y44647D01*
X15232Y44668D01*
X15295Y44751D01*
X15325Y44822D01*
X15575D01*
X15605Y44751D01*
X15668Y44668D01*
X15751Y44605D01*
X15847Y44565D01*
X15950Y44551D01*
X16053Y44565D01*
X16149Y44605D01*
X16232Y44668D01*
X16295Y44751D01*
X16325Y44822D01*
X16575D01*
X16605Y44751D01*
X16668Y44668D01*
X16751Y44605D01*
X16847Y44565D01*
X16950Y44551D01*
X17053Y44565D01*
X17149Y44605D01*
X17232Y44668D01*
X17295Y44751D01*
X17325Y44822D01*
X17575D01*
X17605Y44751D01*
X17668Y44668D01*
X17751Y44605D01*
X17847Y44565D01*
X17950Y44551D01*
X18053Y44565D01*
X18149Y44605D01*
X18232Y44668D01*
X18295Y44751D01*
X18325Y44822D01*
X18575D01*
X18605Y44751D01*
X18668Y44668D01*
X18751Y44605D01*
X18847Y44565D01*
X18950Y44551D01*
X19053Y44565D01*
X19149Y44605D01*
X19232Y44668D01*
X19295Y44751D01*
X19335Y44847D01*
X19349Y44950D01*
X19335Y45053D01*
X19295Y45149D01*
X19232Y45232D01*
X19149Y45295D01*
X19078Y45325D01*
Y45575D01*
X19149Y45605D01*
X19232Y45668D01*
X19295Y45751D01*
X19335Y45847D01*
X19349Y45950D01*
X19335Y46053D01*
X19295Y46149D01*
X19232Y46232D01*
X19149Y46295D01*
X19053Y46335D01*
X18950Y46349D01*
D02*
G37*
G36*
X28739Y43645D02*
X28393D01*
Y43300D01*
X28739D01*
Y43645D01*
D02*
G37*
G36*
X18050Y48100D02*
X17016D01*
X17026Y47980D01*
X17066Y47814D01*
X17131Y47656D01*
X17220Y47511D01*
X17331Y47381D01*
X17461Y47270D01*
X17606Y47181D01*
X17764Y47116D01*
X17930Y47076D01*
X18050Y47066D01*
Y48100D01*
D02*
G37*
G36*
X12934D02*
X11900D01*
Y47066D01*
X12020Y47076D01*
X12186Y47116D01*
X12344Y47181D01*
X12489Y47270D01*
X12619Y47381D01*
X12730Y47511D01*
X12819Y47656D01*
X12884Y47814D01*
X12924Y47980D01*
X12934Y48100D01*
D02*
G37*
G36*
X11800D02*
X10766D01*
X10776Y47980D01*
X10816Y47814D01*
X10881Y47656D01*
X10970Y47511D01*
X11081Y47381D01*
X11211Y47270D01*
X11356Y47181D01*
X11514Y47116D01*
X11680Y47076D01*
X11800Y47066D01*
Y48100D01*
D02*
G37*
G36*
X21193Y43645D02*
X20848D01*
Y43300D01*
X21193D01*
Y43645D01*
D02*
G37*
G36*
Y43200D02*
X20848D01*
Y42855D01*
X21193D01*
Y43200D01*
D02*
G37*
G36*
X18895D02*
X18550D01*
Y42855D01*
X18895D01*
Y43200D01*
D02*
G37*
G36*
X11350D02*
X11005D01*
Y42855D01*
X11350D01*
Y43200D01*
D02*
G37*
G36*
X18895Y43645D02*
X18550D01*
Y43300D01*
X18895D01*
Y43645D01*
D02*
G37*
G36*
X11350D02*
X11005D01*
Y43300D01*
X11350D01*
Y43645D01*
D02*
G37*
G36*
X28739Y43200D02*
X28393D01*
Y42855D01*
X28739D01*
Y43200D01*
D02*
G37*
G36*
X21643Y49234D02*
X21523Y49224D01*
X21357Y49184D01*
X21200Y49119D01*
X21054Y49030D01*
X20924Y48919D01*
X20813Y48789D01*
X20724Y48644D01*
X20659Y48486D01*
X20619Y48320D01*
X20610Y48200D01*
X21643D01*
Y49234D01*
D02*
G37*
G36*
X18150D02*
Y48200D01*
X19184D01*
X19174Y48320D01*
X19134Y48486D01*
X19069Y48644D01*
X18980Y48789D01*
X18869Y48919D01*
X18739Y49030D01*
X18594Y49119D01*
X18436Y49184D01*
X18270Y49224D01*
X18150Y49234D01*
D02*
G37*
G36*
X18050D02*
X17930Y49224D01*
X17764Y49184D01*
X17606Y49119D01*
X17461Y49030D01*
X17331Y48919D01*
X17220Y48789D01*
X17131Y48644D01*
X17066Y48486D01*
X17026Y48320D01*
X17016Y48200D01*
X18050D01*
Y49234D01*
D02*
G37*
G36*
X27993D02*
Y48200D01*
X29027D01*
X29018Y48320D01*
X28978Y48486D01*
X28912Y48644D01*
X28823Y48789D01*
X28712Y48919D01*
X28583Y49030D01*
X28437Y49119D01*
X28279Y49184D01*
X28113Y49224D01*
X27993Y49234D01*
D02*
G37*
G36*
X27893D02*
X27773Y49224D01*
X27607Y49184D01*
X27450Y49119D01*
X27304Y49030D01*
X27174Y48919D01*
X27063Y48789D01*
X26974Y48644D01*
X26909Y48486D01*
X26869Y48320D01*
X26860Y48200D01*
X27893D01*
Y49234D01*
D02*
G37*
G36*
X21743D02*
Y48200D01*
X22777D01*
X22768Y48320D01*
X22728Y48486D01*
X22662Y48644D01*
X22573Y48789D01*
X22462Y48919D01*
X22333Y49030D01*
X22187Y49119D01*
X22029Y49184D01*
X21863Y49224D01*
X21743Y49234D01*
D02*
G37*
G36*
X11900D02*
Y48200D01*
X12934D01*
X12924Y48320D01*
X12884Y48486D01*
X12819Y48644D01*
X12730Y48789D01*
X12619Y48919D01*
X12489Y49030D01*
X12344Y49119D01*
X12186Y49184D01*
X12020Y49224D01*
X11900Y49234D01*
D02*
G37*
G36*
X22777Y48100D02*
X21743D01*
Y47066D01*
X21863Y47076D01*
X22029Y47116D01*
X22187Y47181D01*
X22333Y47270D01*
X22462Y47381D01*
X22573Y47511D01*
X22662Y47656D01*
X22728Y47814D01*
X22768Y47980D01*
X22777Y48100D01*
D02*
G37*
G36*
X21643D02*
X20610D01*
X20619Y47980D01*
X20659Y47814D01*
X20724Y47656D01*
X20813Y47511D01*
X20924Y47381D01*
X21054Y47270D01*
X21200Y47181D01*
X21357Y47116D01*
X21523Y47076D01*
X21643Y47066D01*
Y48100D01*
D02*
G37*
G36*
X19184D02*
X18150D01*
Y47066D01*
X18270Y47076D01*
X18436Y47116D01*
X18594Y47181D01*
X18739Y47270D01*
X18869Y47381D01*
X18980Y47511D01*
X19069Y47656D01*
X19134Y47814D01*
X19174Y47980D01*
X19184Y48100D01*
D02*
G37*
G36*
X11800Y49234D02*
X11680Y49224D01*
X11514Y49184D01*
X11356Y49119D01*
X11211Y49030D01*
X11081Y48919D01*
X10970Y48789D01*
X10881Y48644D01*
X10816Y48486D01*
X10776Y48320D01*
X10766Y48200D01*
X11800D01*
Y49234D01*
D02*
G37*
G36*
X29027Y48100D02*
X27993D01*
Y47066D01*
X28113Y47076D01*
X28279Y47116D01*
X28437Y47181D01*
X28583Y47270D01*
X28712Y47381D01*
X28823Y47511D01*
X28912Y47656D01*
X28978Y47814D01*
X29018Y47980D01*
X29027Y48100D01*
D02*
G37*
G36*
X27893D02*
X26860D01*
X26869Y47980D01*
X26909Y47814D01*
X26974Y47656D01*
X27063Y47511D01*
X27174Y47381D01*
X27304Y47270D01*
X27450Y47181D01*
X27607Y47116D01*
X27773Y47076D01*
X27893Y47066D01*
Y48100D01*
D02*
G37*
G36*
X28739Y40195D02*
X28393D01*
Y39850D01*
X28739D01*
Y40195D01*
D02*
G37*
G36*
X21193D02*
X20848D01*
Y39850D01*
X21193D01*
Y40195D01*
D02*
G37*
G36*
X18895D02*
X18550D01*
Y39850D01*
X18895D01*
Y40195D01*
D02*
G37*
G36*
X21193Y40900D02*
X20848D01*
Y40555D01*
X21193D01*
Y40900D01*
D02*
G37*
G36*
X18895D02*
X18550D01*
Y40555D01*
X18895D01*
Y40900D01*
D02*
G37*
G36*
X11350D02*
X11005D01*
Y40555D01*
X11350D01*
Y40900D01*
D02*
G37*
G36*
Y40195D02*
X11005D01*
Y39850D01*
X11350D01*
Y40195D01*
D02*
G37*
G36*
Y39750D02*
X11005D01*
Y39405D01*
X11350D01*
Y39750D01*
D02*
G37*
G36*
X28739Y39045D02*
X28393D01*
Y38700D01*
X28739D01*
Y39045D01*
D02*
G37*
G36*
X21193D02*
X20848D01*
Y38700D01*
X21193D01*
Y39045D01*
D02*
G37*
G36*
X28739Y39750D02*
X28393D01*
Y39405D01*
X28739D01*
Y39750D01*
D02*
G37*
G36*
X21193D02*
X20848D01*
Y39405D01*
X21193D01*
Y39750D01*
D02*
G37*
G36*
X18895D02*
X18550D01*
Y39405D01*
X18895D01*
Y39750D01*
D02*
G37*
G36*
X11350Y42495D02*
X11005D01*
Y42150D01*
X11350D01*
Y42495D01*
D02*
G37*
G36*
X28739Y42050D02*
X28393D01*
Y41705D01*
X28739D01*
Y42050D01*
D02*
G37*
G36*
X21193D02*
X20848D01*
Y41705D01*
X21193D01*
Y42050D01*
D02*
G37*
G36*
X28739Y42495D02*
X28393D01*
Y42150D01*
X28739D01*
Y42495D01*
D02*
G37*
G36*
X21193D02*
X20848D01*
Y42150D01*
X21193D01*
Y42495D01*
D02*
G37*
G36*
X18895D02*
X18550D01*
Y42150D01*
X18895D01*
Y42495D01*
D02*
G37*
G36*
Y42050D02*
X18550D01*
Y41705D01*
X18895D01*
Y42050D01*
D02*
G37*
G36*
Y41345D02*
X18550D01*
Y41000D01*
X18895D01*
Y41345D01*
D02*
G37*
G36*
X11350D02*
X11005D01*
Y41000D01*
X11350D01*
Y41345D01*
D02*
G37*
G36*
X28739Y40900D02*
X28393D01*
Y40555D01*
X28739D01*
Y40900D01*
D02*
G37*
G36*
X11350Y42050D02*
X11005D01*
Y41705D01*
X11350D01*
Y42050D01*
D02*
G37*
G36*
X28739Y41345D02*
X28393D01*
Y41000D01*
X28739D01*
Y41345D01*
D02*
G37*
G36*
X21193D02*
X20848D01*
Y41000D01*
X21193D01*
Y41345D01*
D02*
G37*
%LPD*%
D10*
X24498Y33800D02*
D03*
X25089D02*
D03*
X14655D02*
D03*
X15245D02*
D03*
D11*
X24343Y43545D02*
D03*
Y42955D02*
D03*
Y42395D02*
D03*
Y41805D02*
D03*
Y41245D02*
D03*
Y40655D02*
D03*
Y40095D02*
D03*
Y39505D02*
D03*
Y38945D02*
D03*
Y38355D02*
D03*
Y37795D02*
D03*
Y37205D02*
D03*
Y36645D02*
D03*
Y36055D02*
D03*
Y35495D02*
D03*
Y34905D02*
D03*
X25243Y42955D02*
D03*
Y43545D02*
D03*
Y41805D02*
D03*
Y42395D02*
D03*
Y40655D02*
D03*
Y41245D02*
D03*
Y39505D02*
D03*
Y40095D02*
D03*
Y38355D02*
D03*
Y38945D02*
D03*
Y37205D02*
D03*
Y37795D02*
D03*
Y36055D02*
D03*
Y36645D02*
D03*
Y34905D02*
D03*
Y35495D02*
D03*
X14500Y43545D02*
D03*
Y42955D02*
D03*
Y42395D02*
D03*
Y41805D02*
D03*
Y41245D02*
D03*
Y40655D02*
D03*
Y40095D02*
D03*
Y39505D02*
D03*
Y38945D02*
D03*
Y38355D02*
D03*
Y37795D02*
D03*
Y37205D02*
D03*
Y36645D02*
D03*
Y36055D02*
D03*
Y35495D02*
D03*
Y34905D02*
D03*
X15400Y42955D02*
D03*
Y43545D02*
D03*
Y41805D02*
D03*
Y42395D02*
D03*
Y40655D02*
D03*
Y41245D02*
D03*
Y39505D02*
D03*
Y40095D02*
D03*
Y38355D02*
D03*
Y38945D02*
D03*
Y37205D02*
D03*
Y37795D02*
D03*
Y36055D02*
D03*
Y36645D02*
D03*
Y34905D02*
D03*
Y35495D02*
D03*
D12*
X23079Y43506D02*
D03*
Y43250D02*
D03*
Y42994D02*
D03*
X23807D02*
D03*
Y43506D02*
D03*
X23079Y42356D02*
D03*
Y42100D02*
D03*
Y41844D02*
D03*
X23807D02*
D03*
Y42356D02*
D03*
X23079Y41206D02*
D03*
Y40950D02*
D03*
Y40694D02*
D03*
X23807D02*
D03*
Y41206D02*
D03*
X23079Y40056D02*
D03*
Y39800D02*
D03*
Y39544D02*
D03*
X23807D02*
D03*
Y40056D02*
D03*
X23079Y38906D02*
D03*
Y38650D02*
D03*
Y38394D02*
D03*
X23807D02*
D03*
Y38906D02*
D03*
X23079Y37756D02*
D03*
Y37500D02*
D03*
Y37244D02*
D03*
X23807D02*
D03*
Y37756D02*
D03*
X23079Y36606D02*
D03*
Y36350D02*
D03*
Y36094D02*
D03*
X23807D02*
D03*
Y36606D02*
D03*
X23079Y35456D02*
D03*
Y35200D02*
D03*
Y34944D02*
D03*
X23807D02*
D03*
Y35456D02*
D03*
X26507Y42994D02*
D03*
Y43250D02*
D03*
Y43506D02*
D03*
X25779D02*
D03*
Y42994D02*
D03*
X26507Y41844D02*
D03*
Y42100D02*
D03*
Y42356D02*
D03*
X25779D02*
D03*
Y41844D02*
D03*
X26507Y40694D02*
D03*
Y40950D02*
D03*
Y41206D02*
D03*
X25779D02*
D03*
Y40694D02*
D03*
X26507Y39544D02*
D03*
Y39800D02*
D03*
Y40056D02*
D03*
X25779D02*
D03*
Y39544D02*
D03*
X26507Y38394D02*
D03*
Y38650D02*
D03*
Y38906D02*
D03*
X25779D02*
D03*
Y38394D02*
D03*
X26507Y37244D02*
D03*
Y37500D02*
D03*
Y37756D02*
D03*
X25779D02*
D03*
Y37244D02*
D03*
X26507Y36094D02*
D03*
Y36350D02*
D03*
Y36606D02*
D03*
X25779D02*
D03*
Y36094D02*
D03*
X26507Y34944D02*
D03*
Y35200D02*
D03*
Y35456D02*
D03*
X25779D02*
D03*
Y34944D02*
D03*
X13236Y43506D02*
D03*
Y43250D02*
D03*
Y42994D02*
D03*
X13964D02*
D03*
Y43506D02*
D03*
X13236Y42356D02*
D03*
Y42100D02*
D03*
Y41844D02*
D03*
X13964D02*
D03*
Y42356D02*
D03*
X13236Y41206D02*
D03*
Y40950D02*
D03*
Y40694D02*
D03*
X13964D02*
D03*
Y41206D02*
D03*
X13236Y40056D02*
D03*
Y39800D02*
D03*
Y39544D02*
D03*
X13964D02*
D03*
Y40056D02*
D03*
X13236Y38906D02*
D03*
Y38650D02*
D03*
Y38394D02*
D03*
X13964D02*
D03*
Y38906D02*
D03*
X13236Y37756D02*
D03*
Y37500D02*
D03*
Y37244D02*
D03*
X13964D02*
D03*
Y37756D02*
D03*
X13236Y36606D02*
D03*
Y36350D02*
D03*
Y36094D02*
D03*
X13964D02*
D03*
Y36606D02*
D03*
X13236Y35456D02*
D03*
Y35200D02*
D03*
Y34944D02*
D03*
X13964D02*
D03*
Y35456D02*
D03*
X16664Y42994D02*
D03*
Y43250D02*
D03*
Y43506D02*
D03*
X15936D02*
D03*
Y42994D02*
D03*
X16664Y41844D02*
D03*
Y42100D02*
D03*
Y42356D02*
D03*
X15936D02*
D03*
Y41844D02*
D03*
X16664Y40694D02*
D03*
Y40950D02*
D03*
Y41206D02*
D03*
X15936D02*
D03*
Y40694D02*
D03*
X16664Y39544D02*
D03*
Y39800D02*
D03*
Y40056D02*
D03*
X15936D02*
D03*
Y39544D02*
D03*
X16664Y38394D02*
D03*
Y38650D02*
D03*
Y38906D02*
D03*
X15936D02*
D03*
Y38394D02*
D03*
X16664Y37244D02*
D03*
Y37500D02*
D03*
Y37756D02*
D03*
X15936D02*
D03*
Y37244D02*
D03*
X16664Y36094D02*
D03*
Y36350D02*
D03*
Y36606D02*
D03*
X15936D02*
D03*
Y36094D02*
D03*
X16664Y34944D02*
D03*
Y35200D02*
D03*
Y35456D02*
D03*
X15936D02*
D03*
Y34944D02*
D03*
D13*
X24498Y34400D02*
D03*
X25089D02*
D03*
X24089D02*
D03*
X23498D02*
D03*
X14655D02*
D03*
X15245D02*
D03*
X14245D02*
D03*
X13655D02*
D03*
D14*
X28343Y34950D02*
Y35200D01*
Y42100D02*
Y43250D01*
Y40950D02*
Y42100D01*
Y39800D02*
Y40950D01*
Y38650D02*
Y39800D01*
Y37500D02*
Y38650D01*
Y36350D02*
Y37500D01*
Y35200D02*
Y36350D01*
X21243Y42100D02*
Y43250D01*
Y40950D02*
Y42100D01*
Y39800D02*
Y40950D01*
Y38650D02*
Y39800D01*
Y37500D02*
Y38650D01*
Y36350D02*
Y37500D01*
Y35200D02*
Y36350D01*
X22243Y35200D02*
X23079D01*
X22243Y36350D02*
X23079D01*
X22243Y37500D02*
X23079D01*
X22243Y38650D02*
X23079D01*
X22243Y39800D02*
X23079D01*
X22243Y40950D02*
X23079D01*
X22243Y42100D02*
X23079D01*
X22243Y43250D02*
X23079D01*
X26493Y35450D02*
X26593D01*
X26843Y35700D01*
X27843D01*
X28343Y35200D01*
X26593Y36600D02*
X26843Y36850D01*
X27843D01*
X28343Y36350D01*
X26593Y37750D02*
X26843Y38000D01*
X27843D01*
X28343Y37500D01*
X26593Y38900D02*
X26843Y39150D01*
X27843D01*
X28343Y38650D01*
X26593Y40050D02*
X26843Y40300D01*
X27843D01*
X28343Y39800D01*
X26493Y41200D02*
X26593D01*
X26843Y41450D01*
X27843D01*
X28343Y40950D01*
X26493Y42350D02*
X26593D01*
X26843Y42600D01*
X27843D01*
X28343Y42100D01*
X26493Y43500D02*
X26593D01*
X26843Y43750D01*
X27843D01*
X28343Y43250D01*
X25299Y34944D02*
X25779D01*
X25249Y36094D02*
X25779D01*
X25249Y37244D02*
X25779D01*
X25299Y38394D02*
X25779D01*
X25299Y39544D02*
X25779D01*
X25299Y40694D02*
X25779D01*
X25299Y41844D02*
X25779D01*
X25249Y42994D02*
X25779D01*
X25299Y43506D02*
X25779D01*
X25287Y42356D02*
X25779D01*
X25249Y41206D02*
X25779D01*
X25249Y40056D02*
X25779D01*
X25249Y38906D02*
X25779D01*
X25199Y37756D02*
X25779D01*
X25249Y36606D02*
X25779D01*
X25249Y35456D02*
X25779D01*
X25139Y36055D02*
X25193D01*
X23807Y35456D02*
X24299D01*
X24343Y35500D01*
X23807Y38906D02*
X24349D01*
X24393Y38950D01*
Y43545D02*
X24439D01*
X25139Y42955D02*
X25193D01*
X25139Y41805D02*
X25193D01*
X25139Y40655D02*
X25193D01*
X25139Y39505D02*
X25193D01*
X25139Y38355D02*
X25193D01*
X25139Y37205D02*
X25193D01*
X26507Y43250D02*
X27343D01*
X26507Y42100D02*
X27343D01*
X26507Y40950D02*
X27343D01*
X26507Y39800D02*
X27343D01*
X26507Y38650D02*
X27343D01*
X26507Y37500D02*
X27343D01*
X26507Y36350D02*
X27343D01*
X26507Y35200D02*
X27343D01*
X26493D02*
X26507D01*
X21743Y42750D02*
X22693D01*
X21243Y43250D02*
X21743Y42750D01*
X21193Y43250D02*
X21243D01*
X21743Y41600D02*
X22693D01*
X21243Y42100D02*
X21743Y41600D01*
X21193Y42100D02*
X21243D01*
X21743Y40450D02*
X22693D01*
X21243Y40950D02*
X21743Y40450D01*
X21193Y40950D02*
X21243D01*
X21743Y39300D02*
X22693D01*
X21243Y39800D02*
X21743Y39300D01*
X21193Y39800D02*
X21243D01*
X21743Y38150D02*
X22693D01*
X21243Y38650D02*
X21743Y38150D01*
X21193Y38650D02*
X21243D01*
X21743Y37000D02*
X22643D01*
X21243Y37500D02*
X21743Y37000D01*
X21193Y37500D02*
X21243D01*
X21743Y35850D02*
X22693D01*
X21243Y36350D02*
X21743Y35850D01*
X21193Y36350D02*
X21243D01*
X21743Y34700D02*
X22693D01*
X21243Y35200D02*
X21743Y34700D01*
X21193Y35200D02*
X21243D01*
X22643Y37000D02*
X22893Y37250D01*
X22693Y38150D02*
X22943Y38400D01*
X22693Y39300D02*
X22943Y39550D01*
X22693Y40450D02*
X22943Y40700D01*
X22693Y41600D02*
X22943Y41850D01*
X22693Y42750D02*
X22943Y43000D01*
X23093D01*
X22693Y35850D02*
X22943Y36100D01*
X22693Y34700D02*
X22943Y34950D01*
X23807Y43506D02*
X24387D01*
X23807Y42994D02*
X24387D01*
X23807Y42356D02*
X24387D01*
X23807Y41844D02*
X24387D01*
X23807Y41206D02*
X24349D01*
X23807Y40694D02*
X24387D01*
X23807Y40056D02*
X24387D01*
X23807Y39544D02*
X24387D01*
X23807Y38394D02*
X24337D01*
X23807Y37756D02*
X24349D01*
X23807Y37244D02*
X24437D01*
X23807Y36094D02*
X24337D01*
X23807Y34944D02*
X24387D01*
X22943Y41850D02*
X23093D01*
X23079Y41844D02*
X23149D01*
X23079Y40694D02*
X23149D01*
X22943Y40700D02*
X23093D01*
X23079Y39544D02*
X23149D01*
X22943Y39550D02*
X23093D01*
X23079Y38394D02*
X23149D01*
X22943Y38400D02*
X23093D01*
X23079Y37244D02*
X23149D01*
X22893Y37250D02*
X23093D01*
X23079Y36094D02*
X23149D01*
X22943Y36100D02*
X23093D01*
X24393Y37750D02*
X24439Y37795D01*
X24393D02*
X24439D01*
X24448D01*
X23807Y36606D02*
X24399D01*
X25139Y34905D02*
X25193D01*
X24089Y34400D02*
X24498D01*
X23079Y34614D02*
Y34944D01*
Y34614D02*
X23293Y34400D01*
X22943Y34950D02*
X23093D01*
X23293Y34400D02*
X23493D01*
X18500Y34950D02*
Y35200D01*
Y42100D02*
Y43250D01*
Y40950D02*
Y42100D01*
Y39800D02*
Y40950D01*
Y38650D02*
Y39800D01*
Y37500D02*
Y38650D01*
Y36350D02*
Y37500D01*
Y35200D02*
Y36350D01*
X11400Y42100D02*
Y43250D01*
Y40950D02*
Y42100D01*
Y39800D02*
Y40950D01*
Y38650D02*
Y39800D01*
Y37500D02*
Y38650D01*
Y36350D02*
Y37500D01*
Y35200D02*
Y36350D01*
X12400Y35200D02*
X13236D01*
X12400Y36350D02*
X13236D01*
X12400Y37500D02*
X13236D01*
X12400Y38650D02*
X13236D01*
X12400Y39800D02*
X13236D01*
X12400Y40950D02*
X13236D01*
X12400Y42100D02*
X13236D01*
X12400Y43250D02*
X13236D01*
X16650Y35450D02*
X16750D01*
X17000Y35700D01*
X18000D01*
X18500Y35200D01*
X16750Y36600D02*
X17000Y36850D01*
X18000D01*
X18500Y36350D01*
X16750Y37750D02*
X17000Y38000D01*
X18000D01*
X18500Y37500D01*
X16750Y38900D02*
X17000Y39150D01*
X18000D01*
X18500Y38650D01*
X16750Y40050D02*
X17000Y40300D01*
X18000D01*
X18500Y39800D01*
X16650Y41200D02*
X16750D01*
X17000Y41450D01*
X18000D01*
X18500Y40950D01*
X16650Y42350D02*
X16750D01*
X17000Y42600D01*
X18000D01*
X18500Y42100D01*
X16650Y43500D02*
X16750D01*
X17000Y43750D01*
X18000D01*
X18500Y43250D01*
X15456Y34944D02*
X15936D01*
X15406Y36094D02*
X15936D01*
X15406Y37244D02*
X15936D01*
X15456Y38394D02*
X15936D01*
X15456Y39544D02*
X15936D01*
X15456Y40694D02*
X15936D01*
X15456Y41844D02*
X15936D01*
X15406Y42994D02*
X15936D01*
X15456Y43506D02*
X15936D01*
X15444Y42356D02*
X15936D01*
X15406Y41206D02*
X15936D01*
X15406Y40056D02*
X15936D01*
X15406Y38906D02*
X15936D01*
X15356Y37756D02*
X15936D01*
X15406Y36606D02*
X15936D01*
X15406Y35456D02*
X15936D01*
X15295Y36055D02*
X15350D01*
X13964Y35456D02*
X14456D01*
X14500Y35500D01*
X13964Y38906D02*
X14506D01*
X14550Y38950D01*
Y43545D02*
X14595D01*
X15295Y42955D02*
X15350D01*
X15295Y41805D02*
X15350D01*
X15295Y40655D02*
X15350D01*
X15295Y39505D02*
X15350D01*
X15295Y38355D02*
X15350D01*
X15295Y37205D02*
X15350D01*
X16664Y43250D02*
X17500D01*
X16664Y42100D02*
X17500D01*
X16664Y40950D02*
X17500D01*
X16664Y39800D02*
X17500D01*
X16664Y38650D02*
X17500D01*
X16664Y37500D02*
X17500D01*
X16664Y36350D02*
X17500D01*
X16664Y35200D02*
X17500D01*
X16650D02*
X16664D01*
X11900Y42750D02*
X12850D01*
X11400Y43250D02*
X11900Y42750D01*
X11350Y43250D02*
X11400D01*
X11900Y41600D02*
X12850D01*
X11400Y42100D02*
X11900Y41600D01*
X11350Y42100D02*
X11400D01*
X11900Y40450D02*
X12850D01*
X11400Y40950D02*
X11900Y40450D01*
X11350Y40950D02*
X11400D01*
X11900Y39300D02*
X12850D01*
X11400Y39800D02*
X11900Y39300D01*
X11350Y39800D02*
X11400D01*
X11900Y38150D02*
X12850D01*
X11400Y38650D02*
X11900Y38150D01*
X11350Y38650D02*
X11400D01*
X11900Y37000D02*
X12800D01*
X11400Y37500D02*
X11900Y37000D01*
X11350Y37500D02*
X11400D01*
X11900Y35850D02*
X12850D01*
X11400Y36350D02*
X11900Y35850D01*
X11350Y36350D02*
X11400D01*
X11900Y34700D02*
X12850D01*
X11400Y35200D02*
X11900Y34700D01*
X11350Y35200D02*
X11400D01*
X12800Y37000D02*
X13050Y37250D01*
X12850Y38150D02*
X13100Y38400D01*
X12850Y39300D02*
X13100Y39550D01*
X12850Y40450D02*
X13100Y40700D01*
X12850Y41600D02*
X13100Y41850D01*
X12850Y42750D02*
X13100Y43000D01*
X13250D01*
X12850Y35850D02*
X13100Y36100D01*
X12850Y34700D02*
X13100Y34950D01*
X13964Y43506D02*
X14544D01*
X13964Y42994D02*
X14544D01*
X13964Y42356D02*
X14544D01*
X13964Y41844D02*
X14544D01*
X13964Y41206D02*
X14506D01*
X13964Y40694D02*
X14544D01*
X13964Y40056D02*
X14544D01*
X13964Y39544D02*
X14544D01*
X13964Y38394D02*
X14494D01*
X13964Y37756D02*
X14506D01*
X13964Y37244D02*
X14594D01*
X13964Y36094D02*
X14494D01*
X13964Y34944D02*
X14544D01*
X13100Y41850D02*
X13250D01*
X13236Y41844D02*
X13306D01*
X13236Y40694D02*
X13306D01*
X13100Y40700D02*
X13250D01*
X13236Y39544D02*
X13306D01*
X13100Y39550D02*
X13250D01*
X13236Y38394D02*
X13306D01*
X13100Y38400D02*
X13250D01*
X13236Y37244D02*
X13306D01*
X13050Y37250D02*
X13250D01*
X13236Y36094D02*
X13306D01*
X13100Y36100D02*
X13250D01*
X14550Y37750D02*
X14595Y37795D01*
X14550D02*
X14595D01*
X14605D01*
X13964Y36606D02*
X14556D01*
X15295Y34905D02*
X15350D01*
X14245Y34400D02*
X14655D01*
X13236Y34614D02*
Y34944D01*
Y34614D02*
X13450Y34400D01*
X13100Y34950D02*
X13250D01*
X13450Y34400D02*
X13650D01*
D15*
X24793Y43900D02*
Y44950D01*
Y43300D02*
Y43900D01*
Y42750D02*
Y43300D01*
Y42150D02*
Y42750D01*
Y41000D02*
Y42150D01*
Y39850D02*
Y41000D01*
Y38700D02*
Y39850D01*
Y37550D02*
Y38700D01*
Y36400D02*
Y37550D01*
Y35100D02*
Y36400D01*
Y35100D02*
X25093Y34800D01*
Y33300D02*
Y34800D01*
Y33300D02*
X25293Y33100D01*
X14950Y43900D02*
Y44950D01*
Y43300D02*
Y43900D01*
Y42750D02*
Y43300D01*
Y42150D02*
Y42750D01*
Y41000D02*
Y42150D01*
Y39850D02*
Y41000D01*
Y38700D02*
Y39850D01*
Y37550D02*
Y38700D01*
Y36400D02*
Y37550D01*
Y35100D02*
Y36400D01*
Y35100D02*
X15250Y34800D01*
Y33300D02*
Y34800D01*
Y33300D02*
X15450Y33100D01*
D16*
X24293Y36650D02*
X24443D01*
X24793Y36400D02*
X25139Y36055D01*
X24343Y35500D02*
X24493D01*
X24743Y35750D01*
X24393Y38950D02*
X24443D01*
X24768Y39275D01*
X24443Y42400D02*
X24793Y42750D01*
X24439Y43545D02*
X24793Y43900D01*
Y42150D02*
X25139Y41805D01*
X24793Y43300D02*
X25139Y42955D01*
X24793Y41000D02*
X25139Y40655D01*
X24793Y39850D02*
X25139Y39505D01*
X24793Y38700D02*
X25139Y38355D01*
X24793Y37550D02*
X25139Y37205D01*
X24443Y41250D02*
X24793Y41600D01*
X24443Y40100D02*
X24768Y40425D01*
X24443Y36650D02*
X24793Y37000D01*
X24439Y37795D02*
X24793Y38150D01*
X14450Y36650D02*
X14600D01*
X14950Y36400D02*
X15295Y36055D01*
X14500Y35500D02*
X14650D01*
X14900Y35750D01*
X14550Y38950D02*
X14600D01*
X14925Y39275D01*
X14600Y42400D02*
X14950Y42750D01*
X14595Y43545D02*
X14950Y43900D01*
Y42150D02*
X15295Y41805D01*
X14950Y43300D02*
X15295Y42955D01*
X14950Y41000D02*
X15295Y40655D01*
X14950Y39850D02*
X15295Y39505D01*
X14950Y38700D02*
X15295Y38355D01*
X14950Y37550D02*
X15295Y37205D01*
X14600Y41250D02*
X14950Y41600D01*
X14600Y40100D02*
X14925Y40425D01*
X14600Y36650D02*
X14950Y37000D01*
X14595Y37795D02*
X14950Y38150D01*
D17*
X21243Y43250D02*
D03*
Y42100D02*
D03*
Y40950D02*
D03*
Y39800D02*
D03*
X24293Y33100D02*
D03*
X21243Y38650D02*
D03*
Y37500D02*
D03*
Y36350D02*
D03*
Y35200D02*
D03*
X28343Y43250D02*
D03*
Y42100D02*
D03*
Y40950D02*
D03*
Y39800D02*
D03*
Y38650D02*
D03*
Y37500D02*
D03*
Y36350D02*
D03*
Y35200D02*
D03*
X20793Y45950D02*
D03*
X11400Y43250D02*
D03*
Y42100D02*
D03*
Y40950D02*
D03*
Y39800D02*
D03*
X14450Y33100D02*
D03*
X11400Y38650D02*
D03*
Y37500D02*
D03*
Y36350D02*
D03*
Y35200D02*
D03*
X18500Y43250D02*
D03*
Y42100D02*
D03*
Y40950D02*
D03*
Y39800D02*
D03*
Y38650D02*
D03*
Y37500D02*
D03*
Y36350D02*
D03*
Y35200D02*
D03*
X10950Y45950D02*
D03*
D18*
X22243Y43250D02*
D03*
Y42100D02*
D03*
Y40950D02*
D03*
Y39800D02*
D03*
X25293Y33100D02*
D03*
X22243Y38650D02*
D03*
Y37500D02*
D03*
Y36350D02*
D03*
Y35200D02*
D03*
X27343Y43250D02*
D03*
Y42100D02*
D03*
Y40950D02*
D03*
Y39800D02*
D03*
Y38650D02*
D03*
Y37500D02*
D03*
Y36350D02*
D03*
Y35200D02*
D03*
X28793Y44950D02*
D03*
Y45950D02*
D03*
X27793Y44950D02*
D03*
Y45950D02*
D03*
X26793Y44950D02*
D03*
Y45950D02*
D03*
X25793Y44950D02*
D03*
Y45950D02*
D03*
X24793Y44950D02*
D03*
Y45950D02*
D03*
X23793Y44950D02*
D03*
Y45950D02*
D03*
X22793Y44950D02*
D03*
Y45950D02*
D03*
X21793Y44950D02*
D03*
Y45950D02*
D03*
X20793Y44950D02*
D03*
X12400Y43250D02*
D03*
Y42100D02*
D03*
Y40950D02*
D03*
Y39800D02*
D03*
X15450Y33100D02*
D03*
X12400Y38650D02*
D03*
Y37500D02*
D03*
Y36350D02*
D03*
Y35200D02*
D03*
X17500Y43250D02*
D03*
Y42100D02*
D03*
Y40950D02*
D03*
Y39800D02*
D03*
Y38650D02*
D03*
Y37500D02*
D03*
Y36350D02*
D03*
Y35200D02*
D03*
X18950Y44950D02*
D03*
Y45950D02*
D03*
X17950Y44950D02*
D03*
Y45950D02*
D03*
X16950Y44950D02*
D03*
Y45950D02*
D03*
X15950Y44950D02*
D03*
Y45950D02*
D03*
X14950Y44950D02*
D03*
Y45950D02*
D03*
X13950Y44950D02*
D03*
Y45950D02*
D03*
X12950Y44950D02*
D03*
Y45950D02*
D03*
X11950Y44950D02*
D03*
Y45950D02*
D03*
X10950Y44950D02*
D03*
D19*
X21693Y48150D02*
D03*
X27943D02*
D03*
Y32050D02*
D03*
X21693D02*
D03*
X11850Y48150D02*
D03*
X18100D02*
D03*
Y32050D02*
D03*
X11850D02*
D03*
M02*
