%FSLAX24Y24*%
%MOIN*%
G70*
G01*
G75*
G04 Layer_Color=8388736*
%ADD10R,0.0433X0.0551*%
%ADD11R,0.0354X0.0276*%
%ADD12R,0.0335X0.0138*%
%ADD13R,0.0276X0.0354*%
%ADD14C,0.0100*%
%ADD15C,0.0300*%
%ADD16C,0.0250*%
%ADD17R,0.0591X0.0591*%
%ADD18C,0.0591*%
%ADD19C,0.1969*%
%ADD20C,0.0150*%
%ADD21C,0.0200*%
%ADD22C,0.0098*%
%ADD23C,0.0079*%
%ADD24C,0.0063*%
%ADD25C,0.0060*%
%ADD26R,0.0513X0.0631*%
%ADD27R,0.0434X0.0356*%
%ADD28R,0.0415X0.0218*%
%ADD29R,0.0356X0.0434*%
%ADD30R,0.0671X0.0671*%
%ADD31C,0.0671*%
%ADD32C,0.2049*%
D26*
X24498Y33800D02*
D03*
X25089D02*
D03*
X14655D02*
D03*
X15245D02*
D03*
D27*
X24343Y43545D02*
D03*
Y42955D02*
D03*
Y42395D02*
D03*
Y41805D02*
D03*
Y41245D02*
D03*
Y40655D02*
D03*
Y40095D02*
D03*
Y39505D02*
D03*
Y38945D02*
D03*
Y38355D02*
D03*
Y37795D02*
D03*
Y37205D02*
D03*
Y36645D02*
D03*
Y36055D02*
D03*
Y35495D02*
D03*
Y34905D02*
D03*
X25243Y42955D02*
D03*
Y43545D02*
D03*
Y41805D02*
D03*
Y42395D02*
D03*
Y40655D02*
D03*
Y41245D02*
D03*
Y39505D02*
D03*
Y40095D02*
D03*
Y38355D02*
D03*
Y38945D02*
D03*
Y37205D02*
D03*
Y37795D02*
D03*
Y36055D02*
D03*
Y36645D02*
D03*
Y34905D02*
D03*
Y35495D02*
D03*
X14500Y43545D02*
D03*
Y42955D02*
D03*
Y42395D02*
D03*
Y41805D02*
D03*
Y41245D02*
D03*
Y40655D02*
D03*
Y40095D02*
D03*
Y39505D02*
D03*
Y38945D02*
D03*
Y38355D02*
D03*
Y37795D02*
D03*
Y37205D02*
D03*
Y36645D02*
D03*
Y36055D02*
D03*
Y35495D02*
D03*
Y34905D02*
D03*
X15400Y42955D02*
D03*
Y43545D02*
D03*
Y41805D02*
D03*
Y42395D02*
D03*
Y40655D02*
D03*
Y41245D02*
D03*
Y39505D02*
D03*
Y40095D02*
D03*
Y38355D02*
D03*
Y38945D02*
D03*
Y37205D02*
D03*
Y37795D02*
D03*
Y36055D02*
D03*
Y36645D02*
D03*
Y34905D02*
D03*
Y35495D02*
D03*
D28*
X23079Y43506D02*
D03*
Y43250D02*
D03*
Y42994D02*
D03*
X23807D02*
D03*
Y43506D02*
D03*
X23079Y42356D02*
D03*
Y42100D02*
D03*
Y41844D02*
D03*
X23807D02*
D03*
Y42356D02*
D03*
X23079Y41206D02*
D03*
Y40950D02*
D03*
Y40694D02*
D03*
X23807D02*
D03*
Y41206D02*
D03*
X23079Y40056D02*
D03*
Y39800D02*
D03*
Y39544D02*
D03*
X23807D02*
D03*
Y40056D02*
D03*
X23079Y38906D02*
D03*
Y38650D02*
D03*
Y38394D02*
D03*
X23807D02*
D03*
Y38906D02*
D03*
X23079Y37756D02*
D03*
Y37500D02*
D03*
Y37244D02*
D03*
X23807D02*
D03*
Y37756D02*
D03*
X23079Y36606D02*
D03*
Y36350D02*
D03*
Y36094D02*
D03*
X23807D02*
D03*
Y36606D02*
D03*
X23079Y35456D02*
D03*
Y35200D02*
D03*
Y34944D02*
D03*
X23807D02*
D03*
Y35456D02*
D03*
X26507Y42994D02*
D03*
Y43250D02*
D03*
Y43506D02*
D03*
X25779D02*
D03*
Y42994D02*
D03*
X26507Y41844D02*
D03*
Y42100D02*
D03*
Y42356D02*
D03*
X25779D02*
D03*
Y41844D02*
D03*
X26507Y40694D02*
D03*
Y40950D02*
D03*
Y41206D02*
D03*
X25779D02*
D03*
Y40694D02*
D03*
X26507Y39544D02*
D03*
Y39800D02*
D03*
Y40056D02*
D03*
X25779D02*
D03*
Y39544D02*
D03*
X26507Y38394D02*
D03*
Y38650D02*
D03*
Y38906D02*
D03*
X25779D02*
D03*
Y38394D02*
D03*
X26507Y37244D02*
D03*
Y37500D02*
D03*
Y37756D02*
D03*
X25779D02*
D03*
Y37244D02*
D03*
X26507Y36094D02*
D03*
Y36350D02*
D03*
Y36606D02*
D03*
X25779D02*
D03*
Y36094D02*
D03*
X26507Y34944D02*
D03*
Y35200D02*
D03*
Y35456D02*
D03*
X25779D02*
D03*
Y34944D02*
D03*
X13236Y43506D02*
D03*
Y43250D02*
D03*
Y42994D02*
D03*
X13964D02*
D03*
Y43506D02*
D03*
X13236Y42356D02*
D03*
Y42100D02*
D03*
Y41844D02*
D03*
X13964D02*
D03*
Y42356D02*
D03*
X13236Y41206D02*
D03*
Y40950D02*
D03*
Y40694D02*
D03*
X13964D02*
D03*
Y41206D02*
D03*
X13236Y40056D02*
D03*
Y39800D02*
D03*
Y39544D02*
D03*
X13964D02*
D03*
Y40056D02*
D03*
X13236Y38906D02*
D03*
Y38650D02*
D03*
Y38394D02*
D03*
X13964D02*
D03*
Y38906D02*
D03*
X13236Y37756D02*
D03*
Y37500D02*
D03*
Y37244D02*
D03*
X13964D02*
D03*
Y37756D02*
D03*
X13236Y36606D02*
D03*
Y36350D02*
D03*
Y36094D02*
D03*
X13964D02*
D03*
Y36606D02*
D03*
X13236Y35456D02*
D03*
Y35200D02*
D03*
Y34944D02*
D03*
X13964D02*
D03*
Y35456D02*
D03*
X16664Y42994D02*
D03*
Y43250D02*
D03*
Y43506D02*
D03*
X15936D02*
D03*
Y42994D02*
D03*
X16664Y41844D02*
D03*
Y42100D02*
D03*
Y42356D02*
D03*
X15936D02*
D03*
Y41844D02*
D03*
X16664Y40694D02*
D03*
Y40950D02*
D03*
Y41206D02*
D03*
X15936D02*
D03*
Y40694D02*
D03*
X16664Y39544D02*
D03*
Y39800D02*
D03*
Y40056D02*
D03*
X15936D02*
D03*
Y39544D02*
D03*
X16664Y38394D02*
D03*
Y38650D02*
D03*
Y38906D02*
D03*
X15936D02*
D03*
Y38394D02*
D03*
X16664Y37244D02*
D03*
Y37500D02*
D03*
Y37756D02*
D03*
X15936D02*
D03*
Y37244D02*
D03*
X16664Y36094D02*
D03*
Y36350D02*
D03*
Y36606D02*
D03*
X15936D02*
D03*
Y36094D02*
D03*
X16664Y34944D02*
D03*
Y35200D02*
D03*
Y35456D02*
D03*
X15936D02*
D03*
Y34944D02*
D03*
D29*
X24498Y34400D02*
D03*
X25089D02*
D03*
X24089D02*
D03*
X23498D02*
D03*
X14655D02*
D03*
X15245D02*
D03*
X14245D02*
D03*
X13655D02*
D03*
D30*
X21243Y43250D02*
D03*
Y42100D02*
D03*
Y40950D02*
D03*
Y39800D02*
D03*
X24293Y33100D02*
D03*
X21243Y38650D02*
D03*
Y37500D02*
D03*
Y36350D02*
D03*
Y35200D02*
D03*
X28343Y43250D02*
D03*
Y42100D02*
D03*
Y40950D02*
D03*
Y39800D02*
D03*
Y38650D02*
D03*
Y37500D02*
D03*
Y36350D02*
D03*
Y35200D02*
D03*
X20793Y45950D02*
D03*
X11400Y43250D02*
D03*
Y42100D02*
D03*
Y40950D02*
D03*
Y39800D02*
D03*
X14450Y33100D02*
D03*
X11400Y38650D02*
D03*
Y37500D02*
D03*
Y36350D02*
D03*
Y35200D02*
D03*
X18500Y43250D02*
D03*
Y42100D02*
D03*
Y40950D02*
D03*
Y39800D02*
D03*
Y38650D02*
D03*
Y37500D02*
D03*
Y36350D02*
D03*
Y35200D02*
D03*
X10950Y45950D02*
D03*
D31*
X22243Y43250D02*
D03*
Y42100D02*
D03*
Y40950D02*
D03*
Y39800D02*
D03*
X25293Y33100D02*
D03*
X22243Y38650D02*
D03*
Y37500D02*
D03*
Y36350D02*
D03*
Y35200D02*
D03*
X27343Y43250D02*
D03*
Y42100D02*
D03*
Y40950D02*
D03*
Y39800D02*
D03*
Y38650D02*
D03*
Y37500D02*
D03*
Y36350D02*
D03*
Y35200D02*
D03*
X28793Y44950D02*
D03*
Y45950D02*
D03*
X27793Y44950D02*
D03*
Y45950D02*
D03*
X26793Y44950D02*
D03*
Y45950D02*
D03*
X25793Y44950D02*
D03*
Y45950D02*
D03*
X24793Y44950D02*
D03*
Y45950D02*
D03*
X23793Y44950D02*
D03*
Y45950D02*
D03*
X22793Y44950D02*
D03*
Y45950D02*
D03*
X21793Y44950D02*
D03*
Y45950D02*
D03*
X20793Y44950D02*
D03*
X12400Y43250D02*
D03*
Y42100D02*
D03*
Y40950D02*
D03*
Y39800D02*
D03*
X15450Y33100D02*
D03*
X12400Y38650D02*
D03*
Y37500D02*
D03*
Y36350D02*
D03*
Y35200D02*
D03*
X17500Y43250D02*
D03*
Y42100D02*
D03*
Y40950D02*
D03*
Y39800D02*
D03*
Y38650D02*
D03*
Y37500D02*
D03*
Y36350D02*
D03*
Y35200D02*
D03*
X18950Y44950D02*
D03*
Y45950D02*
D03*
X17950Y44950D02*
D03*
Y45950D02*
D03*
X16950Y44950D02*
D03*
Y45950D02*
D03*
X15950Y44950D02*
D03*
Y45950D02*
D03*
X14950Y44950D02*
D03*
Y45950D02*
D03*
X13950Y44950D02*
D03*
Y45950D02*
D03*
X12950Y44950D02*
D03*
Y45950D02*
D03*
X11950Y44950D02*
D03*
Y45950D02*
D03*
X10950Y44950D02*
D03*
D32*
X21693Y48150D02*
D03*
X27943D02*
D03*
Y32050D02*
D03*
X21693D02*
D03*
X11850Y48150D02*
D03*
X18100D02*
D03*
Y32050D02*
D03*
X11850D02*
D03*
M02*
