%FSLAX24Y24*%
%MOIN*%
G70*
G01*
G75*
G04 Layer_Physical_Order=2*
G04 Layer_Color=16711680*
%ADD10R,0.0433X0.0551*%
%ADD11R,0.0354X0.0276*%
%ADD12R,0.0335X0.0138*%
%ADD13R,0.0276X0.0354*%
%ADD14C,0.0100*%
%ADD15C,0.0300*%
%ADD16C,0.0250*%
%ADD17R,0.0591X0.0591*%
%ADD18C,0.0591*%
%ADD19C,0.1969*%
%ADD20C,0.0150*%
%ADD21C,0.0200*%
G36*
X29584Y30416D02*
X20046D01*
Y49797D01*
X29584D01*
Y30416D01*
D02*
G37*
G36*
X19740D02*
X10203D01*
Y49797D01*
X19740D01*
Y30416D01*
D02*
G37*
%LPC*%
G36*
X11795Y36745D02*
X11450D01*
Y36400D01*
X11795D01*
Y36745D01*
D02*
G37*
G36*
X18450D02*
X18105D01*
Y36400D01*
X18450D01*
Y36745D01*
D02*
G37*
G36*
X28739Y36300D02*
X28393D01*
Y35955D01*
X28739D01*
Y36300D01*
D02*
G37*
G36*
X11350Y36745D02*
X11005D01*
Y36400D01*
X11350D01*
Y36745D01*
D02*
G37*
G36*
X18895D02*
X18550D01*
Y36400D01*
X18895D01*
Y36745D01*
D02*
G37*
G36*
X28293D02*
X27948D01*
Y36400D01*
X28293D01*
Y36745D01*
D02*
G37*
G36*
X28739D02*
X28393D01*
Y36400D01*
X28739D01*
Y36745D01*
D02*
G37*
G36*
X21193D02*
X20848D01*
Y36400D01*
X21193D01*
Y36745D01*
D02*
G37*
G36*
X21639D02*
X21293D01*
Y36400D01*
X21639D01*
Y36745D01*
D02*
G37*
G36*
X28293Y36300D02*
X27948D01*
Y35955D01*
X28293D01*
Y36300D01*
D02*
G37*
G36*
X28739Y35595D02*
X28393D01*
Y35250D01*
X28739D01*
Y35595D01*
D02*
G37*
G36*
X11350Y36300D02*
X11005D01*
Y35955D01*
X11350D01*
Y36300D01*
D02*
G37*
G36*
X21639Y35595D02*
X21293D01*
Y35250D01*
X21639D01*
Y35595D01*
D02*
G37*
G36*
X28293D02*
X27948D01*
Y35250D01*
X28293D01*
Y35595D01*
D02*
G37*
G36*
X11795Y36300D02*
X11450D01*
Y35955D01*
X11795D01*
Y36300D01*
D02*
G37*
G36*
X21193D02*
X20848D01*
Y35955D01*
X21193D01*
Y36300D01*
D02*
G37*
G36*
X21639D02*
X21293D01*
Y35955D01*
X21639D01*
Y36300D01*
D02*
G37*
G36*
X18450D02*
X18105D01*
Y35955D01*
X18450D01*
Y36300D01*
D02*
G37*
G36*
X18895D02*
X18550D01*
Y35955D01*
X18895D01*
Y36300D01*
D02*
G37*
G36*
X21193Y37895D02*
X20848D01*
Y37550D01*
X21193D01*
Y37895D01*
D02*
G37*
G36*
X21639D02*
X21293D01*
Y37550D01*
X21639D01*
Y37895D01*
D02*
G37*
G36*
X18450D02*
X18105D01*
Y37550D01*
X18450D01*
Y37895D01*
D02*
G37*
G36*
X18895D02*
X18550D01*
Y37550D01*
X18895D01*
Y37895D01*
D02*
G37*
G36*
X28293D02*
X27948D01*
Y37550D01*
X28293D01*
Y37895D01*
D02*
G37*
G36*
X11795Y38600D02*
X11450D01*
Y38255D01*
X11795D01*
Y38600D01*
D02*
G37*
G36*
X18450D02*
X18105D01*
Y38255D01*
X18450D01*
Y38600D01*
D02*
G37*
G36*
X28739Y37895D02*
X28393D01*
Y37550D01*
X28739D01*
Y37895D01*
D02*
G37*
G36*
X11350Y38600D02*
X11005D01*
Y38255D01*
X11350D01*
Y38600D01*
D02*
G37*
G36*
X11795Y37895D02*
X11450D01*
Y37550D01*
X11795D01*
Y37895D01*
D02*
G37*
G36*
X18450Y37450D02*
X18105D01*
Y37105D01*
X18450D01*
Y37450D01*
D02*
G37*
G36*
X18895D02*
X18550D01*
Y37105D01*
X18895D01*
Y37450D01*
D02*
G37*
G36*
X11350D02*
X11005D01*
Y37105D01*
X11350D01*
Y37450D01*
D02*
G37*
G36*
X11795D02*
X11450D01*
Y37105D01*
X11795D01*
Y37450D01*
D02*
G37*
G36*
X21193D02*
X20848D01*
Y37105D01*
X21193D01*
Y37450D01*
D02*
G37*
G36*
X28739D02*
X28393D01*
Y37105D01*
X28739D01*
Y37450D01*
D02*
G37*
G36*
X11350Y37895D02*
X11005D01*
Y37550D01*
X11350D01*
Y37895D01*
D02*
G37*
G36*
X21639Y37450D02*
X21293D01*
Y37105D01*
X21639D01*
Y37450D01*
D02*
G37*
G36*
X28293D02*
X27948D01*
Y37105D01*
X28293D01*
Y37450D01*
D02*
G37*
G36*
X21193Y35595D02*
X20848D01*
Y35250D01*
X21193D01*
Y35595D01*
D02*
G37*
G36*
X21643Y33134D02*
X21523Y33124D01*
X21357Y33084D01*
X21200Y33019D01*
X21054Y32930D01*
X20924Y32819D01*
X20813Y32689D01*
X20724Y32544D01*
X20659Y32386D01*
X20619Y32220D01*
X20610Y32100D01*
X21643D01*
Y33134D01*
D02*
G37*
G36*
X21743D02*
Y32100D01*
X22777D01*
X22768Y32220D01*
X22728Y32386D01*
X22662Y32544D01*
X22573Y32689D01*
X22462Y32819D01*
X22333Y32930D01*
X22187Y33019D01*
X22029Y33084D01*
X21863Y33124D01*
X21743Y33134D01*
D02*
G37*
G36*
X18050D02*
X17930Y33124D01*
X17764Y33084D01*
X17606Y33019D01*
X17461Y32930D01*
X17331Y32819D01*
X17220Y32689D01*
X17131Y32544D01*
X17066Y32386D01*
X17026Y32220D01*
X17016Y32100D01*
X18050D01*
Y33134D01*
D02*
G37*
G36*
X18150D02*
Y32100D01*
X19184D01*
X19174Y32220D01*
X19134Y32386D01*
X19069Y32544D01*
X18980Y32689D01*
X18869Y32819D01*
X18739Y32930D01*
X18594Y33019D01*
X18436Y33084D01*
X18270Y33124D01*
X18150Y33134D01*
D02*
G37*
G36*
X27893D02*
X27773Y33124D01*
X27607Y33084D01*
X27450Y33019D01*
X27304Y32930D01*
X27174Y32819D01*
X27063Y32689D01*
X26974Y32544D01*
X26909Y32386D01*
X26869Y32220D01*
X26860Y32100D01*
X27893D01*
Y33134D01*
D02*
G37*
G36*
X25293Y33499D02*
X25190Y33485D01*
X25094Y33445D01*
X25011Y33382D01*
X24948Y33299D01*
X24908Y33203D01*
X24895Y33100D01*
X24908Y32997D01*
X24948Y32901D01*
X25011Y32818D01*
X25094Y32755D01*
X25190Y32715D01*
X25293Y32701D01*
X25396Y32715D01*
X25493Y32755D01*
X25575Y32818D01*
X25639Y32901D01*
X25678Y32997D01*
X25692Y33100D01*
X25678Y33203D01*
X25639Y33299D01*
X25575Y33382D01*
X25493Y33445D01*
X25396Y33485D01*
X25293Y33499D01*
D02*
G37*
G36*
X14400Y33050D02*
X14055D01*
Y32705D01*
X14400D01*
Y33050D01*
D02*
G37*
G36*
X27993Y33134D02*
Y32100D01*
X29027D01*
X29018Y32220D01*
X28978Y32386D01*
X28912Y32544D01*
X28823Y32689D01*
X28712Y32819D01*
X28583Y32930D01*
X28437Y33019D01*
X28279Y33084D01*
X28113Y33124D01*
X27993Y33134D01*
D02*
G37*
G36*
X15450Y33499D02*
X15347Y33485D01*
X15251Y33445D01*
X15168Y33382D01*
X15105Y33299D01*
X15065Y33203D01*
X15051Y33100D01*
X15065Y32997D01*
X15105Y32901D01*
X15168Y32818D01*
X15251Y32755D01*
X15347Y32715D01*
X15450Y32701D01*
X15553Y32715D01*
X15649Y32755D01*
X15732Y32818D01*
X15795Y32901D01*
X15835Y32997D01*
X15849Y33100D01*
X15835Y33203D01*
X15795Y33299D01*
X15732Y33382D01*
X15649Y33445D01*
X15553Y33485D01*
X15450Y33499D01*
D02*
G37*
G36*
X11900Y33134D02*
Y32100D01*
X12934D01*
X12924Y32220D01*
X12884Y32386D01*
X12819Y32544D01*
X12730Y32689D01*
X12619Y32819D01*
X12489Y32930D01*
X12344Y33019D01*
X12186Y33084D01*
X12020Y33124D01*
X11900Y33134D01*
D02*
G37*
G36*
X18050Y32000D02*
X17016D01*
X17026Y31880D01*
X17066Y31714D01*
X17131Y31556D01*
X17220Y31411D01*
X17331Y31281D01*
X17461Y31170D01*
X17606Y31081D01*
X17764Y31016D01*
X17930Y30976D01*
X18050Y30966D01*
Y32000D01*
D02*
G37*
G36*
X19184D02*
X18150D01*
Y30966D01*
X18270Y30976D01*
X18436Y31016D01*
X18594Y31081D01*
X18739Y31170D01*
X18869Y31281D01*
X18980Y31411D01*
X19069Y31556D01*
X19134Y31714D01*
X19174Y31880D01*
X19184Y32000D01*
D02*
G37*
G36*
X11800D02*
X10766D01*
X10776Y31880D01*
X10816Y31714D01*
X10881Y31556D01*
X10970Y31411D01*
X11081Y31281D01*
X11211Y31170D01*
X11356Y31081D01*
X11514Y31016D01*
X11680Y30976D01*
X11800Y30966D01*
Y32000D01*
D02*
G37*
G36*
X12934D02*
X11900D01*
Y30966D01*
X12020Y30976D01*
X12186Y31016D01*
X12344Y31081D01*
X12489Y31170D01*
X12619Y31281D01*
X12730Y31411D01*
X12819Y31556D01*
X12884Y31714D01*
X12924Y31880D01*
X12934Y32000D01*
D02*
G37*
G36*
X21643D02*
X20610D01*
X20619Y31880D01*
X20659Y31714D01*
X20724Y31556D01*
X20813Y31411D01*
X20924Y31281D01*
X21054Y31170D01*
X21200Y31081D01*
X21357Y31016D01*
X21523Y30976D01*
X21643Y30966D01*
Y32000D01*
D02*
G37*
G36*
X29027D02*
X27993D01*
Y30966D01*
X28113Y30976D01*
X28279Y31016D01*
X28437Y31081D01*
X28583Y31170D01*
X28712Y31281D01*
X28823Y31411D01*
X28912Y31556D01*
X28978Y31714D01*
X29018Y31880D01*
X29027Y32000D01*
D02*
G37*
G36*
X11800Y33134D02*
X11680Y33124D01*
X11514Y33084D01*
X11356Y33019D01*
X11211Y32930D01*
X11081Y32819D01*
X10970Y32689D01*
X10881Y32544D01*
X10816Y32386D01*
X10776Y32220D01*
X10766Y32100D01*
X11800D01*
Y33134D01*
D02*
G37*
G36*
X22777Y32000D02*
X21743D01*
Y30966D01*
X21863Y30976D01*
X22029Y31016D01*
X22187Y31081D01*
X22333Y31170D01*
X22462Y31281D01*
X22573Y31411D01*
X22662Y31556D01*
X22728Y31714D01*
X22768Y31880D01*
X22777Y32000D01*
D02*
G37*
G36*
X27893D02*
X26860D01*
X26869Y31880D01*
X26909Y31714D01*
X26974Y31556D01*
X27063Y31411D01*
X27174Y31281D01*
X27304Y31170D01*
X27450Y31081D01*
X27607Y31016D01*
X27773Y30976D01*
X27893Y30966D01*
Y32000D01*
D02*
G37*
G36*
X21639Y35150D02*
X21293D01*
Y34805D01*
X21639D01*
Y35150D01*
D02*
G37*
G36*
X28293D02*
X27948D01*
Y34805D01*
X28293D01*
Y35150D01*
D02*
G37*
G36*
X18895D02*
X18550D01*
Y34805D01*
X18895D01*
Y35150D01*
D02*
G37*
G36*
X21193D02*
X20848D01*
Y34805D01*
X21193D01*
Y35150D01*
D02*
G37*
G36*
X28739D02*
X28393D01*
Y34805D01*
X28739D01*
Y35150D01*
D02*
G37*
G36*
X18450Y35595D02*
X18105D01*
Y35250D01*
X18450D01*
Y35595D01*
D02*
G37*
G36*
X18895D02*
X18550D01*
Y35250D01*
X18895D01*
Y35595D01*
D02*
G37*
G36*
X11350D02*
X11005D01*
Y35250D01*
X11350D01*
Y35595D01*
D02*
G37*
G36*
X11795D02*
X11450D01*
Y35250D01*
X11795D01*
Y35595D01*
D02*
G37*
G36*
X18450Y35150D02*
X18105D01*
Y34805D01*
X18450D01*
Y35150D01*
D02*
G37*
G36*
X24689Y33050D02*
X24343D01*
Y32705D01*
X24689D01*
Y33050D01*
D02*
G37*
G36*
X14400Y33495D02*
X14055D01*
Y33150D01*
X14400D01*
Y33495D01*
D02*
G37*
G36*
X14845Y33050D02*
X14500D01*
Y32705D01*
X14845D01*
Y33050D01*
D02*
G37*
G36*
X24243D02*
X23898D01*
Y32705D01*
X24243D01*
Y33050D01*
D02*
G37*
G36*
X14845Y33495D02*
X14500D01*
Y33150D01*
X14845D01*
Y33495D01*
D02*
G37*
G36*
X11350Y35150D02*
X11005D01*
Y34805D01*
X11350D01*
Y35150D01*
D02*
G37*
G36*
X11795D02*
X11450D01*
Y34805D01*
X11795D01*
Y35150D01*
D02*
G37*
G36*
X24243Y33495D02*
X23898D01*
Y33150D01*
X24243D01*
Y33495D01*
D02*
G37*
G36*
X24689D02*
X24343D01*
Y33150D01*
X24689D01*
Y33495D01*
D02*
G37*
G36*
X28739Y42050D02*
X28393D01*
Y41705D01*
X28739D01*
Y42050D01*
D02*
G37*
G36*
X18950Y46349D02*
X18847Y46335D01*
X18751Y46295D01*
X18668Y46232D01*
X18605Y46149D01*
X18565Y46053D01*
X18551Y45950D01*
X18565Y45847D01*
X18605Y45751D01*
X18668Y45668D01*
X18751Y45605D01*
X18847Y45565D01*
X18950Y45551D01*
X19053Y45565D01*
X19074Y45574D01*
X19272Y45376D01*
Y45258D01*
X19227Y45236D01*
X19149Y45295D01*
X19053Y45335D01*
X18950Y45349D01*
X18847Y45335D01*
X18751Y45295D01*
X18668Y45232D01*
X18605Y45149D01*
X18565Y45053D01*
X18551Y44950D01*
X18565Y44847D01*
X18603Y44755D01*
X17496Y43648D01*
X17406Y43636D01*
X17383Y43681D01*
X18076Y44374D01*
X18115Y44432D01*
X18128Y44500D01*
X18128Y44500D01*
Y44596D01*
X18149Y44605D01*
X18232Y44668D01*
X18295Y44751D01*
X18335Y44847D01*
X18349Y44950D01*
X18335Y45053D01*
X18295Y45149D01*
X18232Y45232D01*
X18149Y45295D01*
X18053Y45335D01*
X17950Y45349D01*
X17847Y45335D01*
X17751Y45295D01*
X17673Y45236D01*
X17628Y45258D01*
Y45376D01*
X17826Y45574D01*
X17847Y45565D01*
X17950Y45551D01*
X18053Y45565D01*
X18149Y45605D01*
X18232Y45668D01*
X18295Y45751D01*
X18335Y45847D01*
X18349Y45950D01*
X18335Y46053D01*
X18295Y46149D01*
X18232Y46232D01*
X18149Y46295D01*
X18053Y46335D01*
X17950Y46349D01*
X17847Y46335D01*
X17751Y46295D01*
X17668Y46232D01*
X17605Y46149D01*
X17565Y46053D01*
X17551Y45950D01*
X17565Y45847D01*
X17574Y45826D01*
X17324Y45576D01*
X17285Y45518D01*
X17272Y45450D01*
Y45258D01*
X17227Y45236D01*
X17149Y45295D01*
X17053Y45335D01*
X16950Y45349D01*
X16847Y45335D01*
X16751Y45295D01*
X16673Y45236D01*
X16628Y45258D01*
Y45376D01*
X16826Y45574D01*
X16847Y45565D01*
X16950Y45551D01*
X17053Y45565D01*
X17149Y45605D01*
X17232Y45668D01*
X17295Y45751D01*
X17335Y45847D01*
X17349Y45950D01*
X17335Y46053D01*
X17295Y46149D01*
X17232Y46232D01*
X17149Y46295D01*
X17053Y46335D01*
X16950Y46349D01*
X16847Y46335D01*
X16751Y46295D01*
X16668Y46232D01*
X16605Y46149D01*
X16565Y46053D01*
X16551Y45950D01*
X16565Y45847D01*
X16574Y45826D01*
X16324Y45576D01*
X16285Y45518D01*
X16272Y45450D01*
Y45258D01*
X16227Y45236D01*
X16149Y45295D01*
X16053Y45335D01*
X15950Y45349D01*
X15847Y45335D01*
X15751Y45295D01*
X15673Y45236D01*
X15628Y45258D01*
Y45376D01*
X15826Y45574D01*
X15847Y45565D01*
X15950Y45551D01*
X16053Y45565D01*
X16149Y45605D01*
X16232Y45668D01*
X16295Y45751D01*
X16335Y45847D01*
X16349Y45950D01*
X16335Y46053D01*
X16295Y46149D01*
X16232Y46232D01*
X16149Y46295D01*
X16053Y46335D01*
X15950Y46349D01*
X15847Y46335D01*
X15751Y46295D01*
X15668Y46232D01*
X15605Y46149D01*
X15565Y46053D01*
X15551Y45950D01*
X15565Y45847D01*
X15574Y45826D01*
X15324Y45576D01*
X15285Y45518D01*
X15272Y45450D01*
Y45258D01*
X15227Y45236D01*
X15149Y45295D01*
X15053Y45335D01*
X14950Y45349D01*
X14847Y45335D01*
X14751Y45295D01*
X14673Y45236D01*
X14628Y45258D01*
Y45450D01*
X14628Y45450D01*
X14615Y45518D01*
X14596Y45547D01*
X14576Y45576D01*
X14576Y45576D01*
X14326Y45826D01*
X14335Y45847D01*
X14349Y45950D01*
X14335Y46053D01*
X14295Y46149D01*
X14232Y46232D01*
X14149Y46295D01*
X14053Y46335D01*
X13950Y46349D01*
X13847Y46335D01*
X13751Y46295D01*
X13668Y46232D01*
X13605Y46149D01*
X13565Y46053D01*
X13551Y45950D01*
X13565Y45847D01*
X13605Y45751D01*
X13668Y45668D01*
X13751Y45605D01*
X13847Y45565D01*
X13950Y45551D01*
X14053Y45565D01*
X14074Y45574D01*
X14272Y45376D01*
Y45258D01*
X14227Y45236D01*
X14149Y45295D01*
X14053Y45335D01*
X13950Y45349D01*
X13847Y45335D01*
X13751Y45295D01*
X13673Y45236D01*
X13628Y45258D01*
Y45450D01*
X13628Y45450D01*
X13615Y45518D01*
X13596Y45547D01*
X13576Y45576D01*
X13576Y45576D01*
X13326Y45826D01*
X13335Y45847D01*
X13349Y45950D01*
X13335Y46053D01*
X13295Y46149D01*
X13232Y46232D01*
X13149Y46295D01*
X13053Y46335D01*
X12950Y46349D01*
X12847Y46335D01*
X12751Y46295D01*
X12668Y46232D01*
X12605Y46149D01*
X12565Y46053D01*
X12551Y45950D01*
X12565Y45847D01*
X12605Y45751D01*
X12668Y45668D01*
X12751Y45605D01*
X12847Y45565D01*
X12950Y45551D01*
X13053Y45565D01*
X13074Y45574D01*
X13272Y45376D01*
Y45258D01*
X13227Y45236D01*
X13149Y45295D01*
X13053Y45335D01*
X12950Y45349D01*
X12847Y45335D01*
X12751Y45295D01*
X12673Y45236D01*
X12628Y45258D01*
Y45500D01*
X12628Y45500D01*
X12615Y45568D01*
X12596Y45597D01*
X12576Y45626D01*
X12576Y45626D01*
X12337Y45865D01*
X12349Y45950D01*
X12335Y46053D01*
X12295Y46149D01*
X12232Y46232D01*
X12149Y46295D01*
X12053Y46335D01*
X11950Y46349D01*
X11847Y46335D01*
X11751Y46295D01*
X11668Y46232D01*
X11605Y46149D01*
X11565Y46053D01*
X11551Y45950D01*
X11565Y45847D01*
X11605Y45751D01*
X11668Y45668D01*
X11751Y45605D01*
X11847Y45565D01*
X11950Y45551D01*
X12053Y45565D01*
X12109Y45588D01*
X12272Y45426D01*
Y45258D01*
X12227Y45236D01*
X12149Y45295D01*
X12053Y45335D01*
X11950Y45349D01*
X11847Y45335D01*
X11751Y45295D01*
X11668Y45232D01*
X11605Y45149D01*
X11565Y45053D01*
X11551Y44950D01*
X11565Y44847D01*
X11605Y44751D01*
X11668Y44668D01*
X11751Y44605D01*
X11772Y44596D01*
Y44450D01*
X11785Y44382D01*
X11824Y44324D01*
X12459Y43689D01*
X12437Y43644D01*
X12400Y43649D01*
X12359Y43643D01*
X11276Y44726D01*
X11295Y44751D01*
X11335Y44847D01*
X11349Y44950D01*
X11335Y45053D01*
X11295Y45149D01*
X11232Y45232D01*
X11149Y45295D01*
X11053Y45335D01*
X10950Y45349D01*
X10847Y45335D01*
X10751Y45295D01*
X10673Y45236D01*
X10628Y45258D01*
Y45376D01*
X10807Y45555D01*
X11345D01*
Y46345D01*
X10555D01*
Y45807D01*
X10324Y45576D01*
X10285Y45518D01*
X10272Y45450D01*
Y44450D01*
X10285Y44382D01*
X10324Y44324D01*
X10722Y43926D01*
Y42850D01*
X10722Y42850D01*
X10722D01*
X10735Y42782D01*
X10774Y42724D01*
X10974Y42524D01*
X10974Y42524D01*
X11003Y42504D01*
X11007Y42502D01*
X11005Y42495D01*
X11005D01*
X11005Y42495D01*
Y42150D01*
X11795D01*
Y42387D01*
X11841Y42406D01*
X12024Y42224D01*
X12015Y42203D01*
X12001Y42100D01*
X12015Y41997D01*
X12055Y41901D01*
X12118Y41818D01*
X12201Y41755D01*
X12297Y41715D01*
X12400Y41701D01*
X12503Y41715D01*
X12599Y41755D01*
X12677Y41814D01*
X12722Y41792D01*
Y41524D01*
X12524Y41326D01*
X12503Y41335D01*
X12400Y41349D01*
X12297Y41335D01*
X12201Y41295D01*
X12118Y41232D01*
X12055Y41149D01*
X12015Y41053D01*
X12001Y40950D01*
X12015Y40847D01*
X12055Y40751D01*
X12118Y40668D01*
X12201Y40605D01*
X12297Y40565D01*
X12400Y40551D01*
X12503Y40565D01*
X12599Y40605D01*
X12682Y40668D01*
X12745Y40751D01*
X12785Y40847D01*
X12799Y40950D01*
X12785Y41053D01*
X12776Y41074D01*
X12925Y41223D01*
X12972Y41204D01*
Y40624D01*
X12524Y40176D01*
X12503Y40185D01*
X12400Y40199D01*
X12297Y40185D01*
X12201Y40145D01*
X12118Y40082D01*
X12055Y39999D01*
X12015Y39903D01*
X12001Y39800D01*
X12015Y39697D01*
X12055Y39601D01*
X12118Y39518D01*
X12201Y39455D01*
X12297Y39415D01*
X12400Y39401D01*
X12503Y39415D01*
X12599Y39455D01*
X12682Y39518D01*
X12745Y39601D01*
X12785Y39697D01*
X12799Y39800D01*
X12785Y39903D01*
X12776Y39924D01*
X13225Y40373D01*
X13272Y40354D01*
Y39774D01*
X12524Y39026D01*
X12503Y39035D01*
X12400Y39049D01*
X12297Y39035D01*
X12201Y38995D01*
X12118Y38932D01*
X12055Y38849D01*
X12015Y38753D01*
X12001Y38650D01*
X12015Y38547D01*
X12055Y38451D01*
X12118Y38368D01*
X12201Y38305D01*
X12297Y38265D01*
X12400Y38251D01*
X12503Y38265D01*
X12599Y38305D01*
X12682Y38368D01*
X12745Y38451D01*
X12785Y38547D01*
X12799Y38650D01*
X12785Y38753D01*
X12776Y38774D01*
X13525Y39523D01*
X13572Y39504D01*
Y38924D01*
X12524Y37876D01*
X12503Y37885D01*
X12400Y37899D01*
X12297Y37885D01*
X12201Y37845D01*
X12118Y37782D01*
X12055Y37699D01*
X12015Y37603D01*
X12001Y37500D01*
X12015Y37397D01*
X12055Y37301D01*
X12118Y37218D01*
X12201Y37155D01*
X12297Y37115D01*
X12400Y37101D01*
X12503Y37115D01*
X12599Y37155D01*
X12682Y37218D01*
X12745Y37301D01*
X12785Y37397D01*
X12799Y37500D01*
X12785Y37603D01*
X12776Y37624D01*
X13825Y38673D01*
X13872Y38654D01*
Y38074D01*
X12524Y36726D01*
X12503Y36735D01*
X12400Y36749D01*
X12297Y36735D01*
X12201Y36695D01*
X12118Y36632D01*
X12055Y36549D01*
X12015Y36453D01*
X12001Y36350D01*
X12015Y36247D01*
X12055Y36151D01*
X12118Y36068D01*
X12201Y36005D01*
X12297Y35965D01*
X12400Y35951D01*
X12503Y35965D01*
X12599Y36005D01*
X12682Y36068D01*
X12745Y36151D01*
X12785Y36247D01*
X12799Y36350D01*
X12785Y36453D01*
X12776Y36474D01*
X14176Y37874D01*
X14176Y37874D01*
X14215Y37932D01*
X14222Y37967D01*
X14272Y37962D01*
Y37324D01*
X12524Y35576D01*
X12503Y35585D01*
X12400Y35599D01*
X12297Y35585D01*
X12201Y35545D01*
X12118Y35482D01*
X12055Y35399D01*
X12015Y35303D01*
X12001Y35200D01*
X12015Y35097D01*
X12055Y35001D01*
X12118Y34918D01*
X12201Y34855D01*
X12297Y34815D01*
X12400Y34801D01*
X12503Y34815D01*
X12599Y34855D01*
X12682Y34918D01*
X12745Y35001D01*
X12785Y35097D01*
X12799Y35200D01*
X12785Y35303D01*
X12776Y35324D01*
X14576Y37124D01*
X14615Y37182D01*
X14628Y37250D01*
X14628Y37250D01*
Y44642D01*
X14673Y44664D01*
X14751Y44605D01*
X14847Y44565D01*
X14950Y44551D01*
X15053Y44565D01*
X15149Y44605D01*
X15227Y44664D01*
X15272Y44642D01*
Y37250D01*
X15272Y37250D01*
X15272D01*
X15285Y37182D01*
X15324Y37124D01*
X17124Y35324D01*
X17115Y35303D01*
X17101Y35200D01*
X17115Y35097D01*
X17155Y35001D01*
X17218Y34918D01*
X17301Y34855D01*
X17397Y34815D01*
X17500Y34801D01*
X17603Y34815D01*
X17699Y34855D01*
X17782Y34918D01*
X17845Y35001D01*
X17885Y35097D01*
X17899Y35200D01*
X17885Y35303D01*
X17845Y35399D01*
X17782Y35482D01*
X17699Y35545D01*
X17603Y35585D01*
X17500Y35599D01*
X17397Y35585D01*
X17376Y35576D01*
X15628Y37324D01*
Y37893D01*
X15669Y37921D01*
X15675Y37923D01*
X17124Y36474D01*
X17115Y36453D01*
X17101Y36350D01*
X17115Y36247D01*
X17155Y36151D01*
X17218Y36068D01*
X17301Y36005D01*
X17397Y35965D01*
X17500Y35951D01*
X17603Y35965D01*
X17699Y36005D01*
X17782Y36068D01*
X17845Y36151D01*
X17885Y36247D01*
X17899Y36350D01*
X17885Y36453D01*
X17845Y36549D01*
X17782Y36632D01*
X17699Y36695D01*
X17603Y36735D01*
X17500Y36749D01*
X17397Y36735D01*
X17376Y36726D01*
X15978Y38124D01*
Y38704D01*
X16025Y38723D01*
X17124Y37624D01*
X17115Y37603D01*
X17101Y37500D01*
X17115Y37397D01*
X17155Y37301D01*
X17218Y37218D01*
X17301Y37155D01*
X17397Y37115D01*
X17500Y37101D01*
X17603Y37115D01*
X17699Y37155D01*
X17782Y37218D01*
X17845Y37301D01*
X17885Y37397D01*
X17899Y37500D01*
X17885Y37603D01*
X17845Y37699D01*
X17782Y37782D01*
X17699Y37845D01*
X17603Y37885D01*
X17500Y37899D01*
X17397Y37885D01*
X17376Y37876D01*
X16278Y38974D01*
Y39543D01*
X16319Y39571D01*
X16325Y39573D01*
X17124Y38774D01*
X17115Y38753D01*
X17101Y38650D01*
X17115Y38547D01*
X17155Y38451D01*
X17218Y38368D01*
X17301Y38305D01*
X17397Y38265D01*
X17500Y38251D01*
X17603Y38265D01*
X17699Y38305D01*
X17782Y38368D01*
X17845Y38451D01*
X17885Y38547D01*
X17899Y38650D01*
X17885Y38753D01*
X17845Y38849D01*
X17782Y38932D01*
X17699Y38995D01*
X17603Y39035D01*
X17500Y39049D01*
X17397Y39035D01*
X17376Y39026D01*
X16628Y39774D01*
Y40354D01*
X16675Y40373D01*
X17124Y39924D01*
X17115Y39903D01*
X17101Y39800D01*
X17115Y39697D01*
X17155Y39601D01*
X17218Y39518D01*
X17301Y39455D01*
X17397Y39415D01*
X17500Y39401D01*
X17603Y39415D01*
X17699Y39455D01*
X17782Y39518D01*
X17845Y39601D01*
X17885Y39697D01*
X17899Y39800D01*
X17885Y39903D01*
X17845Y39999D01*
X17782Y40082D01*
X17699Y40145D01*
X17603Y40185D01*
X17500Y40199D01*
X17397Y40185D01*
X17376Y40176D01*
X16878Y40674D01*
Y41254D01*
X16925Y41273D01*
X17124Y41074D01*
X17115Y41053D01*
X17101Y40950D01*
X17115Y40847D01*
X17155Y40751D01*
X17218Y40668D01*
X17301Y40605D01*
X17397Y40565D01*
X17500Y40551D01*
X17603Y40565D01*
X17699Y40605D01*
X17782Y40668D01*
X17845Y40751D01*
X17885Y40847D01*
X17899Y40950D01*
X17885Y41053D01*
X17845Y41149D01*
X17782Y41232D01*
X17699Y41295D01*
X17603Y41335D01*
X17500Y41349D01*
X17397Y41335D01*
X17376Y41326D01*
X17178Y41524D01*
Y41792D01*
X17223Y41814D01*
X17301Y41755D01*
X17397Y41715D01*
X17500Y41701D01*
X17603Y41715D01*
X17699Y41755D01*
X17782Y41818D01*
X17845Y41901D01*
X17885Y41997D01*
X17899Y42100D01*
X17887Y42185D01*
X18059Y42356D01*
X18105Y42337D01*
Y42150D01*
X18895D01*
Y42495D01*
X18895D01*
Y42531D01*
X18918Y42535D01*
X18976Y42574D01*
X19126Y42724D01*
X19165Y42782D01*
X19178Y42850D01*
Y43976D01*
X19576Y44374D01*
X19615Y44432D01*
X19628Y44500D01*
X19628Y44500D01*
X19628Y44500D01*
Y44500D01*
Y45450D01*
X19628Y45450D01*
X19615Y45518D01*
X19596Y45547D01*
X19576Y45576D01*
X19576Y45576D01*
X19326Y45826D01*
X19335Y45847D01*
X19349Y45950D01*
X19335Y46053D01*
X19295Y46149D01*
X19232Y46232D01*
X19149Y46295D01*
X19053Y46335D01*
X18950Y46349D01*
D02*
G37*
G36*
X21639Y42050D02*
X21293D01*
Y41705D01*
X21639D01*
Y42050D01*
D02*
G37*
G36*
X28293D02*
X27948D01*
Y41705D01*
X28293D01*
Y42050D01*
D02*
G37*
G36*
X28793Y46349D02*
X28690Y46335D01*
X28594Y46295D01*
X28511Y46232D01*
X28448Y46149D01*
X28408Y46053D01*
X28395Y45950D01*
X28408Y45847D01*
X28448Y45751D01*
X28511Y45668D01*
X28594Y45605D01*
X28690Y45565D01*
X28793Y45551D01*
X28896Y45565D01*
X28917Y45574D01*
X29115Y45376D01*
Y45258D01*
X29070Y45236D01*
X28993Y45295D01*
X28896Y45335D01*
X28793Y45349D01*
X28690Y45335D01*
X28594Y45295D01*
X28511Y45232D01*
X28448Y45149D01*
X28408Y45053D01*
X28395Y44950D01*
X28408Y44847D01*
X28446Y44755D01*
X27339Y43648D01*
X27249Y43636D01*
X27227Y43681D01*
X27919Y44374D01*
X27958Y44432D01*
X27972Y44500D01*
X27972Y44500D01*
Y44596D01*
X27993Y44605D01*
X28075Y44668D01*
X28139Y44751D01*
X28178Y44847D01*
X28192Y44950D01*
X28178Y45053D01*
X28139Y45149D01*
X28075Y45232D01*
X27993Y45295D01*
X27896Y45335D01*
X27793Y45349D01*
X27690Y45335D01*
X27594Y45295D01*
X27517Y45236D01*
X27472Y45258D01*
Y45376D01*
X27669Y45574D01*
X27690Y45565D01*
X27793Y45551D01*
X27896Y45565D01*
X27993Y45605D01*
X28075Y45668D01*
X28139Y45751D01*
X28178Y45847D01*
X28192Y45950D01*
X28178Y46053D01*
X28139Y46149D01*
X28075Y46232D01*
X27993Y46295D01*
X27896Y46335D01*
X27793Y46349D01*
X27690Y46335D01*
X27594Y46295D01*
X27511Y46232D01*
X27448Y46149D01*
X27408Y46053D01*
X27395Y45950D01*
X27408Y45847D01*
X27417Y45826D01*
X27167Y45576D01*
X27128Y45518D01*
X27115Y45450D01*
Y45258D01*
X27070Y45236D01*
X26993Y45295D01*
X26896Y45335D01*
X26793Y45349D01*
X26690Y45335D01*
X26594Y45295D01*
X26517Y45236D01*
X26472Y45258D01*
Y45376D01*
X26669Y45574D01*
X26690Y45565D01*
X26793Y45551D01*
X26896Y45565D01*
X26993Y45605D01*
X27075Y45668D01*
X27139Y45751D01*
X27178Y45847D01*
X27192Y45950D01*
X27178Y46053D01*
X27139Y46149D01*
X27075Y46232D01*
X26993Y46295D01*
X26896Y46335D01*
X26793Y46349D01*
X26690Y46335D01*
X26594Y46295D01*
X26511Y46232D01*
X26448Y46149D01*
X26408Y46053D01*
X26395Y45950D01*
X26408Y45847D01*
X26417Y45826D01*
X26167Y45576D01*
X26128Y45518D01*
X26115Y45450D01*
Y45258D01*
X26070Y45236D01*
X25993Y45295D01*
X25896Y45335D01*
X25793Y45349D01*
X25690Y45335D01*
X25594Y45295D01*
X25517Y45236D01*
X25472Y45258D01*
Y45376D01*
X25669Y45574D01*
X25690Y45565D01*
X25793Y45551D01*
X25896Y45565D01*
X25993Y45605D01*
X26075Y45668D01*
X26139Y45751D01*
X26178Y45847D01*
X26192Y45950D01*
X26178Y46053D01*
X26139Y46149D01*
X26075Y46232D01*
X25993Y46295D01*
X25896Y46335D01*
X25793Y46349D01*
X25690Y46335D01*
X25594Y46295D01*
X25511Y46232D01*
X25448Y46149D01*
X25408Y46053D01*
X25395Y45950D01*
X25408Y45847D01*
X25417Y45826D01*
X25167Y45576D01*
X25128Y45518D01*
X25115Y45450D01*
Y45258D01*
X25070Y45236D01*
X24993Y45295D01*
X24896Y45335D01*
X24793Y45349D01*
X24690Y45335D01*
X24594Y45295D01*
X24517Y45236D01*
X24472Y45258D01*
Y45450D01*
X24472Y45450D01*
X24458Y45518D01*
X24439Y45547D01*
X24419Y45576D01*
X24419Y45576D01*
X24170Y45826D01*
X24178Y45847D01*
X24192Y45950D01*
X24178Y46053D01*
X24139Y46149D01*
X24075Y46232D01*
X23993Y46295D01*
X23896Y46335D01*
X23793Y46349D01*
X23690Y46335D01*
X23594Y46295D01*
X23511Y46232D01*
X23448Y46149D01*
X23408Y46053D01*
X23395Y45950D01*
X23408Y45847D01*
X23448Y45751D01*
X23511Y45668D01*
X23594Y45605D01*
X23690Y45565D01*
X23793Y45551D01*
X23896Y45565D01*
X23917Y45574D01*
X24115Y45376D01*
Y45258D01*
X24070Y45236D01*
X23993Y45295D01*
X23896Y45335D01*
X23793Y45349D01*
X23690Y45335D01*
X23594Y45295D01*
X23517Y45236D01*
X23472Y45258D01*
Y45450D01*
X23472Y45450D01*
X23458Y45518D01*
X23439Y45547D01*
X23419Y45576D01*
X23419Y45576D01*
X23170Y45826D01*
X23178Y45847D01*
X23192Y45950D01*
X23178Y46053D01*
X23139Y46149D01*
X23075Y46232D01*
X22993Y46295D01*
X22896Y46335D01*
X22793Y46349D01*
X22690Y46335D01*
X22594Y46295D01*
X22511Y46232D01*
X22448Y46149D01*
X22408Y46053D01*
X22395Y45950D01*
X22408Y45847D01*
X22448Y45751D01*
X22511Y45668D01*
X22594Y45605D01*
X22690Y45565D01*
X22793Y45551D01*
X22896Y45565D01*
X22917Y45574D01*
X23115Y45376D01*
Y45258D01*
X23070Y45236D01*
X22993Y45295D01*
X22896Y45335D01*
X22793Y45349D01*
X22690Y45335D01*
X22594Y45295D01*
X22517Y45236D01*
X22472Y45258D01*
Y45500D01*
X22472Y45500D01*
X22458Y45568D01*
X22439Y45597D01*
X22419Y45626D01*
X22419Y45626D01*
X22181Y45865D01*
X22192Y45950D01*
X22178Y46053D01*
X22139Y46149D01*
X22075Y46232D01*
X21993Y46295D01*
X21896Y46335D01*
X21793Y46349D01*
X21690Y46335D01*
X21594Y46295D01*
X21511Y46232D01*
X21448Y46149D01*
X21408Y46053D01*
X21395Y45950D01*
X21408Y45847D01*
X21448Y45751D01*
X21511Y45668D01*
X21594Y45605D01*
X21690Y45565D01*
X21793Y45551D01*
X21896Y45565D01*
X21953Y45588D01*
X22115Y45426D01*
Y45258D01*
X22070Y45236D01*
X21993Y45295D01*
X21896Y45335D01*
X21793Y45349D01*
X21690Y45335D01*
X21594Y45295D01*
X21511Y45232D01*
X21448Y45149D01*
X21408Y45053D01*
X21395Y44950D01*
X21408Y44847D01*
X21448Y44751D01*
X21511Y44668D01*
X21594Y44605D01*
X21615Y44596D01*
Y44450D01*
X21628Y44382D01*
X21667Y44324D01*
X22302Y43689D01*
X22280Y43644D01*
X22243Y43649D01*
X22202Y43643D01*
X21120Y44726D01*
X21139Y44751D01*
X21178Y44847D01*
X21192Y44950D01*
X21178Y45053D01*
X21139Y45149D01*
X21075Y45232D01*
X20993Y45295D01*
X20896Y45335D01*
X20793Y45349D01*
X20690Y45335D01*
X20594Y45295D01*
X20517Y45236D01*
X20472Y45258D01*
Y45376D01*
X20650Y45555D01*
X21189D01*
Y46345D01*
X20398D01*
Y45807D01*
X20167Y45576D01*
X20128Y45518D01*
X20115Y45450D01*
Y44450D01*
X20128Y44382D01*
X20167Y44324D01*
X20565Y43926D01*
Y42850D01*
X20565Y42850D01*
X20565D01*
X20578Y42782D01*
X20617Y42724D01*
X20817Y42524D01*
X20817Y42524D01*
X20846Y42504D01*
X20850Y42502D01*
X20848Y42495D01*
X20848D01*
X20848Y42495D01*
Y42150D01*
X21639D01*
Y42387D01*
X21685Y42406D01*
X21867Y42224D01*
X21858Y42203D01*
X21845Y42100D01*
X21858Y41997D01*
X21898Y41901D01*
X21961Y41818D01*
X22044Y41755D01*
X22140Y41715D01*
X22243Y41701D01*
X22346Y41715D01*
X22443Y41755D01*
X22520Y41814D01*
X22565Y41792D01*
Y41524D01*
X22367Y41326D01*
X22346Y41335D01*
X22243Y41349D01*
X22140Y41335D01*
X22044Y41295D01*
X21961Y41232D01*
X21898Y41149D01*
X21858Y41053D01*
X21845Y40950D01*
X21858Y40847D01*
X21898Y40751D01*
X21961Y40668D01*
X22044Y40605D01*
X22140Y40565D01*
X22243Y40551D01*
X22346Y40565D01*
X22443Y40605D01*
X22525Y40668D01*
X22589Y40751D01*
X22628Y40847D01*
X22642Y40950D01*
X22628Y41053D01*
X22620Y41074D01*
X22769Y41223D01*
X22815Y41204D01*
Y40624D01*
X22367Y40176D01*
X22346Y40185D01*
X22243Y40199D01*
X22140Y40185D01*
X22044Y40145D01*
X21961Y40082D01*
X21898Y39999D01*
X21858Y39903D01*
X21845Y39800D01*
X21858Y39697D01*
X21898Y39601D01*
X21961Y39518D01*
X22044Y39455D01*
X22140Y39415D01*
X22243Y39401D01*
X22346Y39415D01*
X22443Y39455D01*
X22525Y39518D01*
X22589Y39601D01*
X22628Y39697D01*
X22642Y39800D01*
X22628Y39903D01*
X22620Y39924D01*
X23069Y40373D01*
X23115Y40354D01*
Y39774D01*
X22367Y39026D01*
X22346Y39035D01*
X22243Y39049D01*
X22140Y39035D01*
X22044Y38995D01*
X21961Y38932D01*
X21898Y38849D01*
X21858Y38753D01*
X21845Y38650D01*
X21858Y38547D01*
X21898Y38451D01*
X21961Y38368D01*
X22044Y38305D01*
X22140Y38265D01*
X22243Y38251D01*
X22346Y38265D01*
X22443Y38305D01*
X22525Y38368D01*
X22589Y38451D01*
X22628Y38547D01*
X22642Y38650D01*
X22628Y38753D01*
X22620Y38774D01*
X23369Y39523D01*
X23415Y39504D01*
Y38924D01*
X22367Y37876D01*
X22346Y37885D01*
X22243Y37899D01*
X22140Y37885D01*
X22044Y37845D01*
X21961Y37782D01*
X21898Y37699D01*
X21858Y37603D01*
X21845Y37500D01*
X21858Y37397D01*
X21898Y37301D01*
X21961Y37218D01*
X22044Y37155D01*
X22140Y37115D01*
X22243Y37101D01*
X22346Y37115D01*
X22443Y37155D01*
X22525Y37218D01*
X22589Y37301D01*
X22628Y37397D01*
X22642Y37500D01*
X22628Y37603D01*
X22620Y37624D01*
X23669Y38673D01*
X23715Y38654D01*
Y38074D01*
X22367Y36726D01*
X22346Y36735D01*
X22243Y36749D01*
X22140Y36735D01*
X22044Y36695D01*
X21961Y36632D01*
X21898Y36549D01*
X21858Y36453D01*
X21845Y36350D01*
X21858Y36247D01*
X21898Y36151D01*
X21961Y36068D01*
X22044Y36005D01*
X22140Y35965D01*
X22243Y35951D01*
X22346Y35965D01*
X22443Y36005D01*
X22525Y36068D01*
X22589Y36151D01*
X22628Y36247D01*
X22642Y36350D01*
X22628Y36453D01*
X22620Y36474D01*
X24019Y37874D01*
X24019Y37874D01*
X24058Y37932D01*
X24065Y37967D01*
X24115Y37962D01*
Y37324D01*
X22367Y35576D01*
X22346Y35585D01*
X22243Y35599D01*
X22140Y35585D01*
X22044Y35545D01*
X21961Y35482D01*
X21898Y35399D01*
X21858Y35303D01*
X21845Y35200D01*
X21858Y35097D01*
X21898Y35001D01*
X21961Y34918D01*
X22044Y34855D01*
X22140Y34815D01*
X22243Y34801D01*
X22346Y34815D01*
X22443Y34855D01*
X22525Y34918D01*
X22589Y35001D01*
X22628Y35097D01*
X22642Y35200D01*
X22628Y35303D01*
X22620Y35324D01*
X24419Y37124D01*
X24458Y37182D01*
X24472Y37250D01*
X24472Y37250D01*
Y44642D01*
X24517Y44664D01*
X24594Y44605D01*
X24690Y44565D01*
X24793Y44551D01*
X24896Y44565D01*
X24993Y44605D01*
X25070Y44664D01*
X25115Y44642D01*
Y37250D01*
X25115Y37250D01*
X25115D01*
X25128Y37182D01*
X25167Y37124D01*
X26967Y35324D01*
X26958Y35303D01*
X26945Y35200D01*
X26958Y35097D01*
X26998Y35001D01*
X27061Y34918D01*
X27144Y34855D01*
X27240Y34815D01*
X27343Y34801D01*
X27446Y34815D01*
X27543Y34855D01*
X27625Y34918D01*
X27689Y35001D01*
X27728Y35097D01*
X27742Y35200D01*
X27728Y35303D01*
X27689Y35399D01*
X27625Y35482D01*
X27543Y35545D01*
X27446Y35585D01*
X27343Y35599D01*
X27240Y35585D01*
X27219Y35576D01*
X25472Y37324D01*
Y37893D01*
X25513Y37921D01*
X25518Y37923D01*
X26967Y36474D01*
X26958Y36453D01*
X26945Y36350D01*
X26958Y36247D01*
X26998Y36151D01*
X27061Y36068D01*
X27144Y36005D01*
X27240Y35965D01*
X27343Y35951D01*
X27446Y35965D01*
X27543Y36005D01*
X27625Y36068D01*
X27689Y36151D01*
X27728Y36247D01*
X27742Y36350D01*
X27728Y36453D01*
X27689Y36549D01*
X27625Y36632D01*
X27543Y36695D01*
X27446Y36735D01*
X27343Y36749D01*
X27240Y36735D01*
X27219Y36726D01*
X25822Y38124D01*
Y38704D01*
X25868Y38723D01*
X26967Y37624D01*
X26958Y37603D01*
X26945Y37500D01*
X26958Y37397D01*
X26998Y37301D01*
X27061Y37218D01*
X27144Y37155D01*
X27240Y37115D01*
X27343Y37101D01*
X27446Y37115D01*
X27543Y37155D01*
X27625Y37218D01*
X27689Y37301D01*
X27728Y37397D01*
X27742Y37500D01*
X27728Y37603D01*
X27689Y37699D01*
X27625Y37782D01*
X27543Y37845D01*
X27446Y37885D01*
X27343Y37899D01*
X27240Y37885D01*
X27219Y37876D01*
X26122Y38974D01*
Y39543D01*
X26163Y39571D01*
X26168Y39573D01*
X26967Y38774D01*
X26958Y38753D01*
X26945Y38650D01*
X26958Y38547D01*
X26998Y38451D01*
X27061Y38368D01*
X27144Y38305D01*
X27240Y38265D01*
X27343Y38251D01*
X27446Y38265D01*
X27543Y38305D01*
X27625Y38368D01*
X27689Y38451D01*
X27728Y38547D01*
X27742Y38650D01*
X27728Y38753D01*
X27689Y38849D01*
X27625Y38932D01*
X27543Y38995D01*
X27446Y39035D01*
X27343Y39049D01*
X27240Y39035D01*
X27219Y39026D01*
X26472Y39774D01*
Y40354D01*
X26518Y40373D01*
X26967Y39924D01*
X26958Y39903D01*
X26945Y39800D01*
X26958Y39697D01*
X26998Y39601D01*
X27061Y39518D01*
X27144Y39455D01*
X27240Y39415D01*
X27343Y39401D01*
X27446Y39415D01*
X27543Y39455D01*
X27625Y39518D01*
X27689Y39601D01*
X27728Y39697D01*
X27742Y39800D01*
X27728Y39903D01*
X27689Y39999D01*
X27625Y40082D01*
X27543Y40145D01*
X27446Y40185D01*
X27343Y40199D01*
X27240Y40185D01*
X27219Y40176D01*
X26722Y40674D01*
Y41254D01*
X26768Y41273D01*
X26967Y41074D01*
X26958Y41053D01*
X26945Y40950D01*
X26958Y40847D01*
X26998Y40751D01*
X27061Y40668D01*
X27144Y40605D01*
X27240Y40565D01*
X27343Y40551D01*
X27446Y40565D01*
X27543Y40605D01*
X27625Y40668D01*
X27689Y40751D01*
X27728Y40847D01*
X27742Y40950D01*
X27728Y41053D01*
X27689Y41149D01*
X27625Y41232D01*
X27543Y41295D01*
X27446Y41335D01*
X27343Y41349D01*
X27240Y41335D01*
X27219Y41326D01*
X27022Y41524D01*
Y41792D01*
X27067Y41814D01*
X27144Y41755D01*
X27240Y41715D01*
X27343Y41701D01*
X27446Y41715D01*
X27543Y41755D01*
X27625Y41818D01*
X27689Y41901D01*
X27728Y41997D01*
X27742Y42100D01*
X27731Y42185D01*
X27902Y42356D01*
X27948Y42337D01*
Y42150D01*
X28739D01*
Y42495D01*
X28739D01*
Y42531D01*
X28762Y42535D01*
X28819Y42574D01*
X28969Y42724D01*
X29008Y42782D01*
X29022Y42850D01*
Y43976D01*
X29419Y44374D01*
X29458Y44432D01*
X29472Y44500D01*
X29472Y44500D01*
X29472Y44500D01*
Y44500D01*
Y45450D01*
X29472Y45450D01*
X29458Y45518D01*
X29439Y45547D01*
X29419Y45576D01*
X29419Y45576D01*
X29170Y45826D01*
X29178Y45847D01*
X29192Y45950D01*
X29178Y46053D01*
X29139Y46149D01*
X29075Y46232D01*
X28993Y46295D01*
X28896Y46335D01*
X28793Y46349D01*
D02*
G37*
G36*
X24743Y45900D02*
X24401D01*
X24408Y45847D01*
X24448Y45751D01*
X24511Y45668D01*
X24594Y45605D01*
X24690Y45565D01*
X24743Y45558D01*
Y45900D01*
D02*
G37*
G36*
X25185D02*
X24843D01*
Y45558D01*
X24896Y45565D01*
X24993Y45605D01*
X25075Y45668D01*
X25139Y45751D01*
X25178Y45847D01*
X25185Y45900D01*
D02*
G37*
G36*
X14900D02*
X14558D01*
X14565Y45847D01*
X14605Y45751D01*
X14668Y45668D01*
X14751Y45605D01*
X14847Y45565D01*
X14900Y45558D01*
Y45900D01*
D02*
G37*
G36*
X15342D02*
X15000D01*
Y45558D01*
X15053Y45565D01*
X15149Y45605D01*
X15232Y45668D01*
X15295Y45751D01*
X15335Y45847D01*
X15342Y45900D01*
D02*
G37*
G36*
X21193Y42050D02*
X20848D01*
Y41705D01*
X21193D01*
Y42050D01*
D02*
G37*
G36*
X21639Y41345D02*
X21293D01*
Y41000D01*
X21639D01*
Y41345D01*
D02*
G37*
G36*
X28293D02*
X27948D01*
Y41000D01*
X28293D01*
Y41345D01*
D02*
G37*
G36*
X18895D02*
X18550D01*
Y41000D01*
X18895D01*
Y41345D01*
D02*
G37*
G36*
X21193D02*
X20848D01*
Y41000D01*
X21193D01*
Y41345D01*
D02*
G37*
G36*
X28739D02*
X28393D01*
Y41000D01*
X28739D01*
Y41345D01*
D02*
G37*
G36*
X18450Y42050D02*
X18105D01*
Y41705D01*
X18450D01*
Y42050D01*
D02*
G37*
G36*
X18895D02*
X18550D01*
Y41705D01*
X18895D01*
Y42050D01*
D02*
G37*
G36*
X11350D02*
X11005D01*
Y41705D01*
X11350D01*
Y42050D01*
D02*
G37*
G36*
X11795D02*
X11450D01*
Y41705D01*
X11795D01*
Y42050D01*
D02*
G37*
G36*
X14900Y46342D02*
X14847Y46335D01*
X14751Y46295D01*
X14668Y46232D01*
X14605Y46149D01*
X14565Y46053D01*
X14558Y46000D01*
X14900D01*
Y46342D01*
D02*
G37*
G36*
X11900Y49234D02*
Y48200D01*
X12934D01*
X12924Y48320D01*
X12884Y48486D01*
X12819Y48644D01*
X12730Y48789D01*
X12619Y48919D01*
X12489Y49030D01*
X12344Y49119D01*
X12186Y49184D01*
X12020Y49224D01*
X11900Y49234D01*
D02*
G37*
G36*
X18050D02*
X17930Y49224D01*
X17764Y49184D01*
X17606Y49119D01*
X17461Y49030D01*
X17331Y48919D01*
X17220Y48789D01*
X17131Y48644D01*
X17066Y48486D01*
X17026Y48320D01*
X17016Y48200D01*
X18050D01*
Y49234D01*
D02*
G37*
G36*
X29027Y48100D02*
X27993D01*
Y47066D01*
X28113Y47076D01*
X28279Y47116D01*
X28437Y47181D01*
X28583Y47270D01*
X28712Y47381D01*
X28823Y47511D01*
X28912Y47656D01*
X28978Y47814D01*
X29018Y47980D01*
X29027Y48100D01*
D02*
G37*
G36*
X11800Y49234D02*
X11680Y49224D01*
X11514Y49184D01*
X11356Y49119D01*
X11211Y49030D01*
X11081Y48919D01*
X10970Y48789D01*
X10881Y48644D01*
X10816Y48486D01*
X10776Y48320D01*
X10766Y48200D01*
X11800D01*
Y49234D01*
D02*
G37*
G36*
X18150D02*
Y48200D01*
X19184D01*
X19174Y48320D01*
X19134Y48486D01*
X19069Y48644D01*
X18980Y48789D01*
X18869Y48919D01*
X18739Y49030D01*
X18594Y49119D01*
X18436Y49184D01*
X18270Y49224D01*
X18150Y49234D01*
D02*
G37*
G36*
X27893D02*
X27773Y49224D01*
X27607Y49184D01*
X27450Y49119D01*
X27304Y49030D01*
X27174Y48919D01*
X27063Y48789D01*
X26974Y48644D01*
X26909Y48486D01*
X26869Y48320D01*
X26860Y48200D01*
X27893D01*
Y49234D01*
D02*
G37*
G36*
X27993D02*
Y48200D01*
X29027D01*
X29018Y48320D01*
X28978Y48486D01*
X28912Y48644D01*
X28823Y48789D01*
X28712Y48919D01*
X28583Y49030D01*
X28437Y49119D01*
X28279Y49184D01*
X28113Y49224D01*
X27993Y49234D01*
D02*
G37*
G36*
X21643D02*
X21523Y49224D01*
X21357Y49184D01*
X21200Y49119D01*
X21054Y49030D01*
X20924Y48919D01*
X20813Y48789D01*
X20724Y48644D01*
X20659Y48486D01*
X20619Y48320D01*
X20610Y48200D01*
X21643D01*
Y49234D01*
D02*
G37*
G36*
X21743D02*
Y48200D01*
X22777D01*
X22768Y48320D01*
X22728Y48486D01*
X22662Y48644D01*
X22573Y48789D01*
X22462Y48919D01*
X22333Y49030D01*
X22187Y49119D01*
X22029Y49184D01*
X21863Y49224D01*
X21743Y49234D01*
D02*
G37*
G36*
X27893Y48100D02*
X26860D01*
X26869Y47980D01*
X26909Y47814D01*
X26974Y47656D01*
X27063Y47511D01*
X27174Y47381D01*
X27304Y47270D01*
X27450Y47181D01*
X27607Y47116D01*
X27773Y47076D01*
X27893Y47066D01*
Y48100D01*
D02*
G37*
G36*
X24843Y46342D02*
Y46000D01*
X25185D01*
X25178Y46053D01*
X25139Y46149D01*
X25075Y46232D01*
X24993Y46295D01*
X24896Y46335D01*
X24843Y46342D01*
D02*
G37*
G36*
X11800Y48100D02*
X10766D01*
X10776Y47980D01*
X10816Y47814D01*
X10881Y47656D01*
X10970Y47511D01*
X11081Y47381D01*
X11211Y47270D01*
X11356Y47181D01*
X11514Y47116D01*
X11680Y47076D01*
X11800Y47066D01*
Y48100D01*
D02*
G37*
G36*
X15000Y46342D02*
Y46000D01*
X15342D01*
X15335Y46053D01*
X15295Y46149D01*
X15232Y46232D01*
X15149Y46295D01*
X15053Y46335D01*
X15000Y46342D01*
D02*
G37*
G36*
X24743D02*
X24690Y46335D01*
X24594Y46295D01*
X24511Y46232D01*
X24448Y46149D01*
X24408Y46053D01*
X24401Y46000D01*
X24743D01*
Y46342D01*
D02*
G37*
G36*
X12934Y48100D02*
X11900D01*
Y47066D01*
X12020Y47076D01*
X12186Y47116D01*
X12344Y47181D01*
X12489Y47270D01*
X12619Y47381D01*
X12730Y47511D01*
X12819Y47656D01*
X12884Y47814D01*
X12924Y47980D01*
X12934Y48100D01*
D02*
G37*
G36*
X21643D02*
X20610D01*
X20619Y47980D01*
X20659Y47814D01*
X20724Y47656D01*
X20813Y47511D01*
X20924Y47381D01*
X21054Y47270D01*
X21200Y47181D01*
X21357Y47116D01*
X21523Y47076D01*
X21643Y47066D01*
Y48100D01*
D02*
G37*
G36*
X22777D02*
X21743D01*
Y47066D01*
X21863Y47076D01*
X22029Y47116D01*
X22187Y47181D01*
X22333Y47270D01*
X22462Y47381D01*
X22573Y47511D01*
X22662Y47656D01*
X22728Y47814D01*
X22768Y47980D01*
X22777Y48100D01*
D02*
G37*
G36*
X18050D02*
X17016D01*
X17026Y47980D01*
X17066Y47814D01*
X17131Y47656D01*
X17220Y47511D01*
X17331Y47381D01*
X17461Y47270D01*
X17606Y47181D01*
X17764Y47116D01*
X17930Y47076D01*
X18050Y47066D01*
Y48100D01*
D02*
G37*
G36*
X19184D02*
X18150D01*
Y47066D01*
X18270Y47076D01*
X18436Y47116D01*
X18594Y47181D01*
X18739Y47270D01*
X18869Y47381D01*
X18980Y47511D01*
X19069Y47656D01*
X19134Y47814D01*
X19174Y47980D01*
X19184Y48100D01*
D02*
G37*
G36*
X18450Y41345D02*
X18105D01*
Y41000D01*
X18450D01*
Y41345D01*
D02*
G37*
G36*
X28739Y39045D02*
X28393D01*
Y38700D01*
X28739D01*
Y39045D01*
D02*
G37*
G36*
X11350Y39750D02*
X11005D01*
Y39405D01*
X11350D01*
Y39750D01*
D02*
G37*
G36*
X21639Y39045D02*
X21293D01*
Y38700D01*
X21639D01*
Y39045D01*
D02*
G37*
G36*
X28293D02*
X27948D01*
Y38700D01*
X28293D01*
Y39045D01*
D02*
G37*
G36*
X11795Y39750D02*
X11450D01*
Y39405D01*
X11795D01*
Y39750D01*
D02*
G37*
G36*
X21193D02*
X20848D01*
Y39405D01*
X21193D01*
Y39750D01*
D02*
G37*
G36*
X21639D02*
X21293D01*
Y39405D01*
X21639D01*
Y39750D01*
D02*
G37*
G36*
X18450D02*
X18105D01*
Y39405D01*
X18450D01*
Y39750D01*
D02*
G37*
G36*
X18895D02*
X18550D01*
Y39405D01*
X18895D01*
Y39750D01*
D02*
G37*
G36*
X21193Y39045D02*
X20848D01*
Y38700D01*
X21193D01*
Y39045D01*
D02*
G37*
G36*
X21639Y38600D02*
X21293D01*
Y38255D01*
X21639D01*
Y38600D01*
D02*
G37*
G36*
X28293D02*
X27948D01*
Y38255D01*
X28293D01*
Y38600D01*
D02*
G37*
G36*
X18895D02*
X18550D01*
Y38255D01*
X18895D01*
Y38600D01*
D02*
G37*
G36*
X21193D02*
X20848D01*
Y38255D01*
X21193D01*
Y38600D01*
D02*
G37*
G36*
X28739D02*
X28393D01*
Y38255D01*
X28739D01*
Y38600D01*
D02*
G37*
G36*
X18450Y39045D02*
X18105D01*
Y38700D01*
X18450D01*
Y39045D01*
D02*
G37*
G36*
X18895D02*
X18550D01*
Y38700D01*
X18895D01*
Y39045D01*
D02*
G37*
G36*
X11350D02*
X11005D01*
Y38700D01*
X11350D01*
Y39045D01*
D02*
G37*
G36*
X11795D02*
X11450D01*
Y38700D01*
X11795D01*
Y39045D01*
D02*
G37*
G36*
X28293Y39750D02*
X27948D01*
Y39405D01*
X28293D01*
Y39750D01*
D02*
G37*
G36*
X18895Y40900D02*
X18550D01*
Y40555D01*
X18895D01*
Y40900D01*
D02*
G37*
G36*
X21193D02*
X20848D01*
Y40555D01*
X21193D01*
Y40900D01*
D02*
G37*
G36*
X11795D02*
X11450D01*
Y40555D01*
X11795D01*
Y40900D01*
D02*
G37*
G36*
X18450D02*
X18105D01*
Y40555D01*
X18450D01*
Y40900D01*
D02*
G37*
G36*
X21639D02*
X21293D01*
Y40555D01*
X21639D01*
Y40900D01*
D02*
G37*
G36*
X11350Y41345D02*
X11005D01*
Y41000D01*
X11350D01*
Y41345D01*
D02*
G37*
G36*
X11795D02*
X11450D01*
Y41000D01*
X11795D01*
Y41345D01*
D02*
G37*
G36*
X28293Y40900D02*
X27948D01*
Y40555D01*
X28293D01*
Y40900D01*
D02*
G37*
G36*
X28739D02*
X28393D01*
Y40555D01*
X28739D01*
Y40900D01*
D02*
G37*
G36*
X11350D02*
X11005D01*
Y40555D01*
X11350D01*
Y40900D01*
D02*
G37*
G36*
X11795Y40195D02*
X11450D01*
Y39850D01*
X11795D01*
Y40195D01*
D02*
G37*
G36*
X18450D02*
X18105D01*
Y39850D01*
X18450D01*
Y40195D01*
D02*
G37*
G36*
X28739Y39750D02*
X28393D01*
Y39405D01*
X28739D01*
Y39750D01*
D02*
G37*
G36*
X11350Y40195D02*
X11005D01*
Y39850D01*
X11350D01*
Y40195D01*
D02*
G37*
G36*
X18895D02*
X18550D01*
Y39850D01*
X18895D01*
Y40195D01*
D02*
G37*
G36*
X28293D02*
X27948D01*
Y39850D01*
X28293D01*
Y40195D01*
D02*
G37*
G36*
X28739D02*
X28393D01*
Y39850D01*
X28739D01*
Y40195D01*
D02*
G37*
G36*
X21193D02*
X20848D01*
Y39850D01*
X21193D01*
Y40195D01*
D02*
G37*
G36*
X21639D02*
X21293D01*
Y39850D01*
X21639D01*
Y40195D01*
D02*
G37*
%LPD*%
D14*
X22243Y43250D02*
Y43350D01*
X20793Y44800D02*
Y44900D01*
X28793Y44850D02*
Y44950D01*
X27343Y43250D02*
Y43400D01*
Y42100D02*
X27393D01*
X12400Y43250D02*
Y43350D01*
X10950Y44800D02*
Y44900D01*
X18950Y44850D02*
Y44950D01*
X17500Y43250D02*
Y43400D01*
Y42100D02*
X17550D01*
D17*
X21243Y43250D02*
D03*
Y42100D02*
D03*
Y40950D02*
D03*
Y39800D02*
D03*
X24293Y33100D02*
D03*
X21243Y38650D02*
D03*
Y37500D02*
D03*
Y36350D02*
D03*
Y35200D02*
D03*
X28343Y43250D02*
D03*
Y42100D02*
D03*
Y40950D02*
D03*
Y39800D02*
D03*
Y38650D02*
D03*
Y37500D02*
D03*
Y36350D02*
D03*
Y35200D02*
D03*
X20793Y45950D02*
D03*
X11400Y43250D02*
D03*
Y42100D02*
D03*
Y40950D02*
D03*
Y39800D02*
D03*
X14450Y33100D02*
D03*
X11400Y38650D02*
D03*
Y37500D02*
D03*
Y36350D02*
D03*
Y35200D02*
D03*
X18500Y43250D02*
D03*
Y42100D02*
D03*
Y40950D02*
D03*
Y39800D02*
D03*
Y38650D02*
D03*
Y37500D02*
D03*
Y36350D02*
D03*
Y35200D02*
D03*
X10950Y45950D02*
D03*
D18*
X22243Y43250D02*
D03*
Y42100D02*
D03*
Y40950D02*
D03*
Y39800D02*
D03*
X25293Y33100D02*
D03*
X22243Y38650D02*
D03*
Y37500D02*
D03*
Y36350D02*
D03*
Y35200D02*
D03*
X27343Y43250D02*
D03*
Y42100D02*
D03*
Y40950D02*
D03*
Y39800D02*
D03*
Y38650D02*
D03*
Y37500D02*
D03*
Y36350D02*
D03*
Y35200D02*
D03*
X28793Y44950D02*
D03*
Y45950D02*
D03*
X27793Y44950D02*
D03*
Y45950D02*
D03*
X26793Y44950D02*
D03*
Y45950D02*
D03*
X25793Y44950D02*
D03*
Y45950D02*
D03*
X24793Y44950D02*
D03*
Y45950D02*
D03*
X23793Y44950D02*
D03*
Y45950D02*
D03*
X22793Y44950D02*
D03*
Y45950D02*
D03*
X21793Y44950D02*
D03*
Y45950D02*
D03*
X20793Y44950D02*
D03*
X12400Y43250D02*
D03*
Y42100D02*
D03*
Y40950D02*
D03*
Y39800D02*
D03*
X15450Y33100D02*
D03*
X12400Y38650D02*
D03*
Y37500D02*
D03*
Y36350D02*
D03*
Y35200D02*
D03*
X17500Y43250D02*
D03*
Y42100D02*
D03*
Y40950D02*
D03*
Y39800D02*
D03*
Y38650D02*
D03*
Y37500D02*
D03*
Y36350D02*
D03*
Y35200D02*
D03*
X18950Y44950D02*
D03*
Y45950D02*
D03*
X17950Y44950D02*
D03*
Y45950D02*
D03*
X16950Y44950D02*
D03*
Y45950D02*
D03*
X15950Y44950D02*
D03*
Y45950D02*
D03*
X14950Y44950D02*
D03*
Y45950D02*
D03*
X13950Y44950D02*
D03*
Y45950D02*
D03*
X12950Y44950D02*
D03*
Y45950D02*
D03*
X11950Y44950D02*
D03*
Y45950D02*
D03*
X10950Y44950D02*
D03*
D19*
X21693Y48150D02*
D03*
X27943D02*
D03*
Y32050D02*
D03*
X21693D02*
D03*
X11850Y48150D02*
D03*
X18100D02*
D03*
Y32050D02*
D03*
X11850D02*
D03*
D20*
X23793Y44950D02*
X23893Y44850D01*
Y38000D02*
Y44850D01*
X22243Y36350D02*
X23893Y38000D01*
X22793Y44450D02*
X23293Y43950D01*
Y39700D02*
Y43950D01*
X22243Y38650D02*
X23293Y39700D01*
Y44500D02*
X23593Y44200D01*
Y38850D02*
Y44200D01*
X22243Y37500D02*
X23593Y38850D01*
X21793Y44450D02*
X22743Y43500D01*
X21793Y44450D02*
Y44950D01*
X22743Y41450D02*
Y43500D01*
X28843Y42850D02*
Y44050D01*
X28693Y42700D02*
X28843Y42850D01*
X27993Y42700D02*
X28693D01*
X26543Y43750D02*
X27293Y44500D01*
X26543Y40600D02*
Y43750D01*
Y40600D02*
X27343Y39800D01*
X25643Y38050D02*
X27343Y36350D01*
X25643Y38050D02*
Y44800D01*
X25943Y44150D02*
X26293Y44500D01*
X25943Y38900D02*
Y44150D01*
Y38900D02*
X27343Y37500D01*
X26293Y43950D02*
X26793Y44450D01*
X26293Y39700D02*
Y43950D01*
Y39700D02*
X27343Y38650D01*
X23293Y44500D02*
Y45450D01*
X26293Y44500D02*
Y45450D01*
X20293D02*
X20793Y45950D01*
X20293Y44450D02*
Y45450D01*
Y44450D02*
X20743Y44000D01*
Y42850D02*
Y44000D01*
X28793Y45950D02*
X29293Y45450D01*
Y44500D02*
Y45450D01*
X28843Y44050D02*
X29293Y44500D01*
X21693Y42650D02*
X22243Y42100D01*
X20943Y42650D02*
X21693D01*
X20743Y42850D02*
X20943Y42650D01*
X20793Y44800D02*
X22243Y43350D01*
X27343Y43400D02*
X28793Y44850D01*
X26843Y43550D02*
X27793Y44500D01*
X26843Y41450D02*
Y43550D01*
X27293Y45450D02*
X27793Y45950D01*
X27293Y44500D02*
Y45450D01*
X25293D02*
X25793Y45950D01*
X25293Y37250D02*
Y45450D01*
Y37250D02*
X27343Y35200D01*
X26293Y45450D02*
X26793Y45950D01*
Y44450D02*
Y44950D01*
X27793Y44500D02*
Y44950D01*
X26843Y41450D02*
X27343Y40950D01*
X27393Y42100D02*
X27993Y42700D01*
X23793Y45950D02*
X24293Y45450D01*
Y37250D02*
Y45450D01*
X22243Y35200D02*
X24293Y37250D01*
X22793Y45950D02*
X23293Y45450D01*
X22793Y44450D02*
Y44950D01*
X21793Y46000D02*
X22293Y45500D01*
Y44450D02*
Y45500D01*
Y44450D02*
X22993Y43750D01*
Y40550D02*
Y43750D01*
X22243Y39800D02*
X22993Y40550D01*
X22243Y40950D02*
X22743Y41450D01*
X13950Y44950D02*
X14050Y44850D01*
Y38000D02*
Y44850D01*
X12400Y36350D02*
X14050Y38000D01*
X12950Y44450D02*
X13450Y43950D01*
Y39700D02*
Y43950D01*
X12400Y38650D02*
X13450Y39700D01*
Y44500D02*
X13750Y44200D01*
Y38850D02*
Y44200D01*
X12400Y37500D02*
X13750Y38850D01*
X11950Y44450D02*
X12900Y43500D01*
X11950Y44450D02*
Y44950D01*
X12900Y41450D02*
Y43500D01*
X19000Y42850D02*
Y44050D01*
X18850Y42700D02*
X19000Y42850D01*
X18150Y42700D02*
X18850D01*
X16700Y43750D02*
X17450Y44500D01*
X16700Y40600D02*
Y43750D01*
Y40600D02*
X17500Y39800D01*
X15800Y38050D02*
X17500Y36350D01*
X15800Y38050D02*
Y44800D01*
X16100Y44150D02*
X16450Y44500D01*
X16100Y38900D02*
Y44150D01*
Y38900D02*
X17500Y37500D01*
X16450Y43950D02*
X16950Y44450D01*
X16450Y39700D02*
Y43950D01*
Y39700D02*
X17500Y38650D01*
X13450Y44500D02*
Y45450D01*
X16450Y44500D02*
Y45450D01*
X10450D02*
X10950Y45950D01*
X10450Y44450D02*
Y45450D01*
Y44450D02*
X10900Y44000D01*
Y42850D02*
Y44000D01*
X18950Y45950D02*
X19450Y45450D01*
Y44500D02*
Y45450D01*
X19000Y44050D02*
X19450Y44500D01*
X11850Y42650D02*
X12400Y42100D01*
X11100Y42650D02*
X11850D01*
X10900Y42850D02*
X11100Y42650D01*
X10950Y44800D02*
X12400Y43350D01*
X17500Y43400D02*
X18950Y44850D01*
X17000Y43550D02*
X17950Y44500D01*
X17000Y41450D02*
Y43550D01*
X17450Y45450D02*
X17950Y45950D01*
X17450Y44500D02*
Y45450D01*
X15450D02*
X15950Y45950D01*
X15450Y37250D02*
Y45450D01*
Y37250D02*
X17500Y35200D01*
X16450Y45450D02*
X16950Y45950D01*
Y44450D02*
Y44950D01*
X17950Y44500D02*
Y44950D01*
X17000Y41450D02*
X17500Y40950D01*
X17550Y42100D02*
X18150Y42700D01*
X13950Y45950D02*
X14450Y45450D01*
Y37250D02*
Y45450D01*
X12400Y35200D02*
X14450Y37250D01*
X12950Y45950D02*
X13450Y45450D01*
X12950Y44450D02*
Y44950D01*
X11950Y46000D02*
X12450Y45500D01*
Y44450D02*
Y45500D01*
Y44450D02*
X13150Y43750D01*
Y40550D02*
Y43750D01*
X12400Y39800D02*
X13150Y40550D01*
X12400Y40950D02*
X12900Y41450D01*
D21*
X25643Y44800D02*
X25793Y44950D01*
X15800Y44800D02*
X15950Y44950D01*
M02*
