%FSLAX24Y24*%
%MOIN*%
G70*
G01*
G75*
G04 Layer_Color=32768*
%ADD10R,0.0433X0.0551*%
%ADD11R,0.0354X0.0276*%
%ADD12R,0.0335X0.0138*%
%ADD13R,0.0276X0.0354*%
%ADD14C,0.0100*%
%ADD15C,0.0300*%
%ADD16C,0.0250*%
%ADD17R,0.0591X0.0591*%
%ADD18C,0.0591*%
%ADD19C,0.1969*%
%ADD20C,0.0150*%
%ADD21C,0.0200*%
%ADD22C,0.0098*%
%ADD23C,0.0079*%
%ADD24C,0.0063*%
%ADD25C,0.0060*%
%ADD26R,0.0513X0.0631*%
%ADD27R,0.0434X0.0356*%
%ADD28R,0.0415X0.0218*%
%ADD29R,0.0356X0.0434*%
%ADD30R,0.0671X0.0671*%
%ADD31C,0.0671*%
%ADD32C,0.2049*%
%ADD33C,0.0080*%
%ADD34C,0.0039*%
D34*
X24232Y33485D02*
Y34115D01*
X25354Y33485D02*
Y34115D01*
X24232D02*
X25354D01*
X24232Y33485D02*
X25354D01*
X24596Y33800D02*
X24990D01*
X24793Y33603D02*
Y33997D01*
X24156Y43250D02*
X24530D01*
X24343Y43063D02*
Y43437D01*
X24560Y42778D02*
Y43722D01*
X24127Y42778D02*
Y43722D01*
X24560D01*
X24127Y42778D02*
X24560D01*
X24156Y42100D02*
X24530D01*
X24343Y41913D02*
Y42287D01*
X24560Y41628D02*
Y42572D01*
X24127Y41628D02*
Y42572D01*
X24560D01*
X24127Y41628D02*
X24560D01*
X24156Y40950D02*
X24530D01*
X24343Y40763D02*
Y41137D01*
X24560Y40478D02*
Y41422D01*
X24127Y40478D02*
Y41422D01*
X24560D01*
X24127Y40478D02*
X24560D01*
X24156Y39800D02*
X24530D01*
X24343Y39613D02*
Y39987D01*
X24560Y39328D02*
Y40272D01*
X24127Y39328D02*
Y40272D01*
X24560D01*
X24127Y39328D02*
X24560D01*
X24156Y38650D02*
X24530D01*
X24343Y38463D02*
Y38837D01*
X24560Y38178D02*
Y39122D01*
X24127Y38178D02*
Y39122D01*
X24560D01*
X24127Y38178D02*
X24560D01*
X24156Y37500D02*
X24530D01*
X24343Y37313D02*
Y37687D01*
X24560Y37028D02*
Y37972D01*
X24127Y37028D02*
Y37972D01*
X24560D01*
X24127Y37028D02*
X24560D01*
X24156Y36350D02*
X24530D01*
X24343Y36163D02*
Y36537D01*
X24560Y35878D02*
Y36822D01*
X24127Y35878D02*
Y36822D01*
X24560D01*
X24127Y35878D02*
X24560D01*
X24156Y35200D02*
X24530D01*
X24343Y35013D02*
Y35387D01*
X24560Y34728D02*
Y35672D01*
X24127Y34728D02*
Y35672D01*
X24560D01*
X24127Y34728D02*
X24560D01*
X25056Y43250D02*
X25430D01*
X25243Y43063D02*
Y43437D01*
X25027Y42778D02*
Y43722D01*
X25460Y42778D02*
Y43722D01*
X25027Y42778D02*
X25460D01*
X25027Y43722D02*
X25460D01*
X25056Y42100D02*
X25430D01*
X25243Y41913D02*
Y42287D01*
X25027Y41628D02*
Y42572D01*
X25460Y41628D02*
Y42572D01*
X25027Y41628D02*
X25460D01*
X25027Y42572D02*
X25460D01*
X25056Y40950D02*
X25430D01*
X25243Y40763D02*
Y41137D01*
X25027Y40478D02*
Y41422D01*
X25460Y40478D02*
Y41422D01*
X25027Y40478D02*
X25460D01*
X25027Y41422D02*
X25460D01*
X25056Y39800D02*
X25430D01*
X25243Y39613D02*
Y39987D01*
X25027Y39328D02*
Y40272D01*
X25460Y39328D02*
Y40272D01*
X25027Y39328D02*
X25460D01*
X25027Y40272D02*
X25460D01*
X25056Y38650D02*
X25430D01*
X25243Y38463D02*
Y38837D01*
X25027Y38178D02*
Y39122D01*
X25460Y38178D02*
Y39122D01*
X25027Y38178D02*
X25460D01*
X25027Y39122D02*
X25460D01*
X25056Y37500D02*
X25430D01*
X25243Y37313D02*
Y37687D01*
X25027Y37028D02*
Y37972D01*
X25460Y37028D02*
Y37972D01*
X25027Y37028D02*
X25460D01*
X25027Y37972D02*
X25460D01*
X25056Y36350D02*
X25430D01*
X25243Y36163D02*
Y36537D01*
X25027Y35878D02*
Y36822D01*
X25460Y35878D02*
Y36822D01*
X25027Y35878D02*
X25460D01*
X25027Y36822D02*
X25460D01*
X25056Y35200D02*
X25430D01*
X25243Y35013D02*
Y35387D01*
X25027Y34728D02*
Y35672D01*
X25460Y34728D02*
Y35672D01*
X25027Y34728D02*
X25460D01*
X25027Y35672D02*
X25460D01*
X22813Y42719D02*
Y43781D01*
X24073Y42719D02*
Y43781D01*
X22813D02*
X24073D01*
X22813Y42719D02*
X24073D01*
X23246Y43250D02*
X23640D01*
X23443Y43053D02*
Y43447D01*
X22813Y41568D02*
Y42632D01*
X24073Y41568D02*
Y42632D01*
X22813D02*
X24073D01*
X22813Y41568D02*
X24073D01*
X23246Y42100D02*
X23640D01*
X23443Y41903D02*
Y42297D01*
X22813Y40419D02*
Y41481D01*
X24073Y40419D02*
Y41481D01*
X22813D02*
X24073D01*
X22813Y40419D02*
X24073D01*
X23246Y40950D02*
X23640D01*
X23443Y40753D02*
Y41147D01*
X22813Y39269D02*
Y40332D01*
X24073Y39269D02*
Y40332D01*
X22813D02*
X24073D01*
X22813Y39269D02*
X24073D01*
X23246Y39800D02*
X23640D01*
X23443Y39603D02*
Y39997D01*
X22813Y38119D02*
Y39181D01*
X24073Y38119D02*
Y39181D01*
X22813D02*
X24073D01*
X22813Y38119D02*
X24073D01*
X23246Y38650D02*
X23640D01*
X23443Y38453D02*
Y38847D01*
X22813Y36969D02*
Y38031D01*
X24073Y36969D02*
Y38031D01*
X22813D02*
X24073D01*
X22813Y36969D02*
X24073D01*
X23246Y37500D02*
X23640D01*
X23443Y37303D02*
Y37697D01*
X22813Y35819D02*
Y36881D01*
X24073Y35819D02*
Y36881D01*
X22813D02*
X24073D01*
X22813Y35819D02*
X24073D01*
X23246Y36350D02*
X23640D01*
X23443Y36153D02*
Y36547D01*
X22813Y34669D02*
Y35731D01*
X24073Y34669D02*
Y35731D01*
X22813D02*
X24073D01*
X22813Y34669D02*
X24073D01*
X23246Y35200D02*
X23640D01*
X23443Y35003D02*
Y35397D01*
X26773Y42719D02*
Y43781D01*
X25513Y42719D02*
Y43781D01*
Y42719D02*
X26773D01*
X25513Y43781D02*
X26773D01*
X25946Y43250D02*
X26340D01*
X26143Y43053D02*
Y43447D01*
X26773Y41568D02*
Y42632D01*
X25513Y41568D02*
Y42632D01*
Y41568D02*
X26773D01*
X25513Y42632D02*
X26773D01*
X25946Y42100D02*
X26340D01*
X26143Y41903D02*
Y42297D01*
X26773Y40419D02*
Y41481D01*
X25513Y40419D02*
Y41481D01*
Y40419D02*
X26773D01*
X25513Y41481D02*
X26773D01*
X25946Y40950D02*
X26340D01*
X26143Y40753D02*
Y41147D01*
X26773Y39269D02*
Y40332D01*
X25513Y39269D02*
Y40332D01*
Y39269D02*
X26773D01*
X25513Y40332D02*
X26773D01*
X25946Y39800D02*
X26340D01*
X26143Y39603D02*
Y39997D01*
X26773Y38119D02*
Y39181D01*
X25513Y38119D02*
Y39181D01*
Y38119D02*
X26773D01*
X25513Y39181D02*
X26773D01*
X25946Y38650D02*
X26340D01*
X26143Y38453D02*
Y38847D01*
X26773Y36969D02*
Y38031D01*
X25513Y36969D02*
Y38031D01*
Y36969D02*
X26773D01*
X25513Y38031D02*
X26773D01*
X25946Y37500D02*
X26340D01*
X26143Y37303D02*
Y37697D01*
X26773Y35819D02*
Y36881D01*
X25513Y35819D02*
Y36881D01*
Y35819D02*
X26773D01*
X25513Y36881D02*
X26773D01*
X25946Y36350D02*
X26340D01*
X26143Y36153D02*
Y36547D01*
X26773Y34669D02*
Y35731D01*
X25513Y34669D02*
Y35731D01*
Y34669D02*
X26773D01*
X25513Y35731D02*
X26773D01*
X25946Y35200D02*
X26340D01*
X26143Y35003D02*
Y35397D01*
X24793Y34213D02*
Y34587D01*
X24606Y34400D02*
X24980D01*
X24321Y34617D02*
X25266D01*
X24321Y34183D02*
X25266D01*
X24321D02*
Y34617D01*
X25266Y34183D02*
Y34617D01*
X23793Y34213D02*
Y34587D01*
X23606Y34400D02*
X23980D01*
X23321Y34183D02*
X24266D01*
X23321Y34617D02*
X24266D01*
Y34183D02*
Y34617D01*
X23321Y34183D02*
Y34617D01*
X14389Y33485D02*
Y34115D01*
X15511Y33485D02*
Y34115D01*
X14389D02*
X15511D01*
X14389Y33485D02*
X15511D01*
X14753Y33800D02*
X15147D01*
X14950Y33603D02*
Y33997D01*
X14313Y43250D02*
X14687D01*
X14500Y43063D02*
Y43437D01*
X14717Y42778D02*
Y43722D01*
X14283Y42778D02*
Y43722D01*
X14717D01*
X14283Y42778D02*
X14717D01*
X14313Y42100D02*
X14687D01*
X14500Y41913D02*
Y42287D01*
X14717Y41628D02*
Y42572D01*
X14283Y41628D02*
Y42572D01*
X14717D01*
X14283Y41628D02*
X14717D01*
X14313Y40950D02*
X14687D01*
X14500Y40763D02*
Y41137D01*
X14717Y40478D02*
Y41422D01*
X14283Y40478D02*
Y41422D01*
X14717D01*
X14283Y40478D02*
X14717D01*
X14313Y39800D02*
X14687D01*
X14500Y39613D02*
Y39987D01*
X14717Y39328D02*
Y40272D01*
X14283Y39328D02*
Y40272D01*
X14717D01*
X14283Y39328D02*
X14717D01*
X14313Y38650D02*
X14687D01*
X14500Y38463D02*
Y38837D01*
X14717Y38178D02*
Y39122D01*
X14283Y38178D02*
Y39122D01*
X14717D01*
X14283Y38178D02*
X14717D01*
X14313Y37500D02*
X14687D01*
X14500Y37313D02*
Y37687D01*
X14717Y37028D02*
Y37972D01*
X14283Y37028D02*
Y37972D01*
X14717D01*
X14283Y37028D02*
X14717D01*
X14313Y36350D02*
X14687D01*
X14500Y36163D02*
Y36537D01*
X14717Y35878D02*
Y36822D01*
X14283Y35878D02*
Y36822D01*
X14717D01*
X14283Y35878D02*
X14717D01*
X14313Y35200D02*
X14687D01*
X14500Y35013D02*
Y35387D01*
X14717Y34728D02*
Y35672D01*
X14283Y34728D02*
Y35672D01*
X14717D01*
X14283Y34728D02*
X14717D01*
X15213Y43250D02*
X15587D01*
X15400Y43063D02*
Y43437D01*
X15183Y42778D02*
Y43722D01*
X15617Y42778D02*
Y43722D01*
X15183Y42778D02*
X15617D01*
X15183Y43722D02*
X15617D01*
X15213Y42100D02*
X15587D01*
X15400Y41913D02*
Y42287D01*
X15183Y41628D02*
Y42572D01*
X15617Y41628D02*
Y42572D01*
X15183Y41628D02*
X15617D01*
X15183Y42572D02*
X15617D01*
X15213Y40950D02*
X15587D01*
X15400Y40763D02*
Y41137D01*
X15183Y40478D02*
Y41422D01*
X15617Y40478D02*
Y41422D01*
X15183Y40478D02*
X15617D01*
X15183Y41422D02*
X15617D01*
X15213Y39800D02*
X15587D01*
X15400Y39613D02*
Y39987D01*
X15183Y39328D02*
Y40272D01*
X15617Y39328D02*
Y40272D01*
X15183Y39328D02*
X15617D01*
X15183Y40272D02*
X15617D01*
X15213Y38650D02*
X15587D01*
X15400Y38463D02*
Y38837D01*
X15183Y38178D02*
Y39122D01*
X15617Y38178D02*
Y39122D01*
X15183Y38178D02*
X15617D01*
X15183Y39122D02*
X15617D01*
X15213Y37500D02*
X15587D01*
X15400Y37313D02*
Y37687D01*
X15183Y37028D02*
Y37972D01*
X15617Y37028D02*
Y37972D01*
X15183Y37028D02*
X15617D01*
X15183Y37972D02*
X15617D01*
X15213Y36350D02*
X15587D01*
X15400Y36163D02*
Y36537D01*
X15183Y35878D02*
Y36822D01*
X15617Y35878D02*
Y36822D01*
X15183Y35878D02*
X15617D01*
X15183Y36822D02*
X15617D01*
X15213Y35200D02*
X15587D01*
X15400Y35013D02*
Y35387D01*
X15183Y34728D02*
Y35672D01*
X15617Y34728D02*
Y35672D01*
X15183Y34728D02*
X15617D01*
X15183Y35672D02*
X15617D01*
X12970Y42719D02*
Y43781D01*
X14230Y42719D02*
Y43781D01*
X12970D02*
X14230D01*
X12970Y42719D02*
X14230D01*
X13403Y43250D02*
X13797D01*
X13600Y43053D02*
Y43447D01*
X12970Y41568D02*
Y42632D01*
X14230Y41568D02*
Y42632D01*
X12970D02*
X14230D01*
X12970Y41568D02*
X14230D01*
X13403Y42100D02*
X13797D01*
X13600Y41903D02*
Y42297D01*
X12970Y40419D02*
Y41481D01*
X14230Y40419D02*
Y41481D01*
X12970D02*
X14230D01*
X12970Y40419D02*
X14230D01*
X13403Y40950D02*
X13797D01*
X13600Y40753D02*
Y41147D01*
X12970Y39269D02*
Y40332D01*
X14230Y39269D02*
Y40332D01*
X12970D02*
X14230D01*
X12970Y39269D02*
X14230D01*
X13403Y39800D02*
X13797D01*
X13600Y39603D02*
Y39997D01*
X12970Y38119D02*
Y39181D01*
X14230Y38119D02*
Y39181D01*
X12970D02*
X14230D01*
X12970Y38119D02*
X14230D01*
X13403Y38650D02*
X13797D01*
X13600Y38453D02*
Y38847D01*
X12970Y36969D02*
Y38031D01*
X14230Y36969D02*
Y38031D01*
X12970D02*
X14230D01*
X12970Y36969D02*
X14230D01*
X13403Y37500D02*
X13797D01*
X13600Y37303D02*
Y37697D01*
X12970Y35819D02*
Y36881D01*
X14230Y35819D02*
Y36881D01*
X12970D02*
X14230D01*
X12970Y35819D02*
X14230D01*
X13403Y36350D02*
X13797D01*
X13600Y36153D02*
Y36547D01*
X12970Y34669D02*
Y35731D01*
X14230Y34669D02*
Y35731D01*
X12970D02*
X14230D01*
X12970Y34669D02*
X14230D01*
X13403Y35200D02*
X13797D01*
X13600Y35003D02*
Y35397D01*
X16930Y42719D02*
Y43781D01*
X15670Y42719D02*
Y43781D01*
Y42719D02*
X16930D01*
X15670Y43781D02*
X16930D01*
X16103Y43250D02*
X16497D01*
X16300Y43053D02*
Y43447D01*
X16930Y41568D02*
Y42632D01*
X15670Y41568D02*
Y42632D01*
Y41568D02*
X16930D01*
X15670Y42632D02*
X16930D01*
X16103Y42100D02*
X16497D01*
X16300Y41903D02*
Y42297D01*
X16930Y40419D02*
Y41481D01*
X15670Y40419D02*
Y41481D01*
Y40419D02*
X16930D01*
X15670Y41481D02*
X16930D01*
X16103Y40950D02*
X16497D01*
X16300Y40753D02*
Y41147D01*
X16930Y39269D02*
Y40332D01*
X15670Y39269D02*
Y40332D01*
Y39269D02*
X16930D01*
X15670Y40332D02*
X16930D01*
X16103Y39800D02*
X16497D01*
X16300Y39603D02*
Y39997D01*
X16930Y38119D02*
Y39181D01*
X15670Y38119D02*
Y39181D01*
Y38119D02*
X16930D01*
X15670Y39181D02*
X16930D01*
X16103Y38650D02*
X16497D01*
X16300Y38453D02*
Y38847D01*
X16930Y36969D02*
Y38031D01*
X15670Y36969D02*
Y38031D01*
Y36969D02*
X16930D01*
X15670Y38031D02*
X16930D01*
X16103Y37500D02*
X16497D01*
X16300Y37303D02*
Y37697D01*
X16930Y35819D02*
Y36881D01*
X15670Y35819D02*
Y36881D01*
Y35819D02*
X16930D01*
X15670Y36881D02*
X16930D01*
X16103Y36350D02*
X16497D01*
X16300Y36153D02*
Y36547D01*
X16930Y34669D02*
Y35731D01*
X15670Y34669D02*
Y35731D01*
Y34669D02*
X16930D01*
X15670Y35731D02*
X16930D01*
X16103Y35200D02*
X16497D01*
X16300Y35003D02*
Y35397D01*
X14950Y34213D02*
Y34587D01*
X14763Y34400D02*
X15137D01*
X14478Y34617D02*
X15422D01*
X14478Y34183D02*
X15422D01*
X14478D02*
Y34617D01*
X15422Y34183D02*
Y34617D01*
X13950Y34213D02*
Y34587D01*
X13763Y34400D02*
X14137D01*
X13478Y34183D02*
X14422D01*
X13478Y34617D02*
X14422D01*
Y34183D02*
Y34617D01*
X13478Y34183D02*
Y34617D01*
M02*
