%FSLAX24Y24*%
%MOIN*%
G70*
G01*
G75*
G04 Layer_Color=16711935*
%ADD10R,0.0276X0.0354*%
%ADD11R,0.0335X0.0138*%
%ADD12R,0.0354X0.0276*%
%ADD13R,0.0433X0.0551*%
%ADD14C,0.0100*%
%ADD15C,0.0300*%
%ADD16C,0.0250*%
%ADD17R,0.0591X0.0591*%
%ADD18C,0.0591*%
%ADD19C,0.1969*%
%ADD20C,0.0150*%
%ADD21C,0.0200*%
%ADD22C,0.0098*%
%ADD23C,0.0079*%
%ADD24C,0.0063*%
%ADD25C,0.0060*%
%ADD26R,0.0356X0.0434*%
%ADD27R,0.0415X0.0218*%
%ADD28R,0.0434X0.0356*%
%ADD29R,0.0513X0.0631*%
%ADD30R,0.0671X0.0671*%
%ADD31C,0.0671*%
%ADD32C,0.2049*%
%ADD33C,0.0080*%
%ADD34C,0.0039*%
D34*
X55765Y20863D02*
X56435D01*
X55765Y21237D02*
X56435D01*
Y20863D02*
Y21237D01*
X55765Y20863D02*
Y21237D01*
X56765D02*
X57435D01*
X56765Y20863D02*
X57435D01*
X56765D02*
Y21237D01*
X57435Y20863D02*
Y21237D01*
X55484Y21417D02*
Y22283D01*
X56016Y21417D02*
Y22283D01*
X55484D02*
X56016D01*
X55484Y21417D02*
X56016D01*
X58716Y21417D02*
Y22283D01*
X58184Y21417D02*
Y22283D01*
Y21417D02*
X58716D01*
X58184Y22283D02*
X58716D01*
X56837Y21515D02*
Y22185D01*
X56463Y21515D02*
Y22185D01*
X56837D01*
X56463Y21515D02*
X56837D01*
X57363Y21515D02*
Y22185D01*
X57737Y21515D02*
Y22185D01*
X57363Y21515D02*
X57737D01*
X57363Y22185D02*
X57737D01*
X55484Y22567D02*
Y23433D01*
X56016Y22567D02*
Y23433D01*
X55484D02*
X56016D01*
X55484Y22567D02*
X56016D01*
X58716Y22567D02*
Y23433D01*
X58184Y22567D02*
Y23433D01*
Y22567D02*
X58716D01*
X58184Y23433D02*
X58716D01*
X56837Y22665D02*
Y23335D01*
X56463Y22665D02*
Y23335D01*
X56837D01*
X56463Y22665D02*
X56837D01*
X57363Y22665D02*
Y23335D01*
X57737Y22665D02*
Y23335D01*
X57363Y22665D02*
X57737D01*
X57363Y23335D02*
X57737D01*
X55484Y23717D02*
Y24583D01*
X56016Y23717D02*
Y24583D01*
X55484D02*
X56016D01*
X55484Y23717D02*
X56016D01*
X58716Y23717D02*
Y24583D01*
X58184Y23717D02*
Y24583D01*
Y23717D02*
X58716D01*
X58184Y24583D02*
X58716D01*
X56837Y23815D02*
Y24485D01*
X56463Y23815D02*
Y24485D01*
X56837D01*
X56463Y23815D02*
X56837D01*
X57363Y23815D02*
Y24485D01*
X57737Y23815D02*
Y24485D01*
X57363Y23815D02*
X57737D01*
X57363Y24485D02*
X57737D01*
X55484Y24867D02*
Y25733D01*
X56016Y24867D02*
Y25733D01*
X55484D02*
X56016D01*
X55484Y24867D02*
X56016D01*
X58716Y24867D02*
Y25733D01*
X58184Y24867D02*
Y25733D01*
Y24867D02*
X58716D01*
X58184Y25733D02*
X58716D01*
X56837Y24965D02*
Y25635D01*
X56463Y24965D02*
Y25635D01*
X56837D01*
X56463Y24965D02*
X56837D01*
X57363Y24965D02*
Y25635D01*
X57737Y24965D02*
Y25635D01*
X57363Y24965D02*
X57737D01*
X57363Y25635D02*
X57737D01*
X55484Y26017D02*
Y26883D01*
X56016Y26017D02*
Y26883D01*
X55484D02*
X56016D01*
X55484Y26017D02*
X56016D01*
X58716Y26017D02*
Y26883D01*
X58184Y26017D02*
Y26883D01*
Y26017D02*
X58716D01*
X58184Y26883D02*
X58716D01*
X56837Y26115D02*
Y26785D01*
X56463Y26115D02*
Y26785D01*
X56837D01*
X56463Y26115D02*
X56837D01*
X57363Y26115D02*
Y26785D01*
X57737Y26115D02*
Y26785D01*
X57363Y26115D02*
X57737D01*
X57363Y26785D02*
X57737D01*
X55484Y27167D02*
Y28033D01*
X56016Y27167D02*
Y28033D01*
X55484D02*
X56016D01*
X55484Y27167D02*
X56016D01*
X58716Y27167D02*
Y28033D01*
X58184Y27167D02*
Y28033D01*
Y27167D02*
X58716D01*
X58184Y28033D02*
X58716D01*
X56837Y27265D02*
Y27935D01*
X56463Y27265D02*
Y27935D01*
X56837D01*
X56463Y27265D02*
X56837D01*
X57363Y27265D02*
Y27935D01*
X57737Y27265D02*
Y27935D01*
X57363Y27265D02*
X57737D01*
X57363Y27935D02*
X57737D01*
X55484Y28317D02*
Y29183D01*
X56016Y28317D02*
Y29183D01*
X55484D02*
X56016D01*
X55484Y28317D02*
X56016D01*
X58716Y28317D02*
Y29183D01*
X58184Y28317D02*
Y29183D01*
Y28317D02*
X58716D01*
X58184Y29183D02*
X58716D01*
X56837Y28415D02*
Y29085D01*
X56463Y28415D02*
Y29085D01*
X56837D01*
X56463Y28415D02*
X56837D01*
X57363Y28415D02*
Y29085D01*
X57737Y28415D02*
Y29085D01*
X57363Y28415D02*
X57737D01*
X57363Y29085D02*
X57737D01*
X55484Y29467D02*
Y30333D01*
X56016Y29467D02*
Y30333D01*
X55484D02*
X56016D01*
X55484Y29467D02*
X56016D01*
X58716Y29467D02*
Y30333D01*
X58184Y29467D02*
Y30333D01*
Y29467D02*
X58716D01*
X58184Y30333D02*
X58716D01*
X56837Y29565D02*
Y30235D01*
X56463Y29565D02*
Y30235D01*
X56837D01*
X56463Y29565D02*
X56837D01*
X57363Y29565D02*
Y30235D01*
X57737Y29565D02*
Y30235D01*
X57363Y29565D02*
X57737D01*
X57363Y30235D02*
X57737D01*
X56667Y20165D02*
Y20735D01*
X57533Y20165D02*
Y20735D01*
X56667D02*
X57533D01*
X56667Y20165D02*
X57533D01*
M02*
