%FSLAX24Y24*%
%MOIN*%
G70*
G01*
G75*
G04 Layer_Color=8388736*
%ADD10R,0.0276X0.0354*%
%ADD11R,0.0335X0.0138*%
%ADD12R,0.0354X0.0276*%
%ADD13R,0.0433X0.0551*%
%ADD14C,0.0100*%
%ADD15C,0.0300*%
%ADD16C,0.0250*%
%ADD17R,0.0591X0.0591*%
%ADD18C,0.0591*%
%ADD19C,0.1969*%
%ADD20C,0.0150*%
%ADD21C,0.0200*%
%ADD22C,0.0098*%
%ADD23C,0.0079*%
%ADD24C,0.0063*%
%ADD25C,0.0060*%
%ADD26R,0.0356X0.0434*%
%ADD27R,0.0415X0.0218*%
%ADD28R,0.0434X0.0356*%
%ADD29R,0.0513X0.0631*%
%ADD30R,0.0671X0.0671*%
%ADD31C,0.0671*%
%ADD32C,0.2049*%
D26*
X56395Y21050D02*
D03*
X55805D02*
D03*
X56805D02*
D03*
X57395D02*
D03*
D27*
X55386Y22106D02*
D03*
Y21850D02*
D03*
Y21594D02*
D03*
X56114D02*
D03*
Y22106D02*
D03*
X58814Y21594D02*
D03*
Y21850D02*
D03*
Y22106D02*
D03*
X58086D02*
D03*
Y21594D02*
D03*
X55386Y23256D02*
D03*
Y23000D02*
D03*
Y22744D02*
D03*
X56114D02*
D03*
Y23256D02*
D03*
X58814Y22744D02*
D03*
Y23000D02*
D03*
Y23256D02*
D03*
X58086D02*
D03*
Y22744D02*
D03*
X55386Y24406D02*
D03*
Y24150D02*
D03*
Y23894D02*
D03*
X56114D02*
D03*
Y24406D02*
D03*
X58814Y23894D02*
D03*
Y24150D02*
D03*
Y24406D02*
D03*
X58086D02*
D03*
Y23894D02*
D03*
X55386Y25556D02*
D03*
Y25300D02*
D03*
Y25044D02*
D03*
X56114D02*
D03*
Y25556D02*
D03*
X58814Y25044D02*
D03*
Y25300D02*
D03*
Y25556D02*
D03*
X58086D02*
D03*
Y25044D02*
D03*
X55386Y26706D02*
D03*
Y26450D02*
D03*
Y26194D02*
D03*
X56114D02*
D03*
Y26706D02*
D03*
X58814Y26194D02*
D03*
Y26450D02*
D03*
Y26706D02*
D03*
X58086D02*
D03*
Y26194D02*
D03*
X55386Y27856D02*
D03*
Y27600D02*
D03*
Y27344D02*
D03*
X56114D02*
D03*
Y27856D02*
D03*
X58814Y27344D02*
D03*
Y27600D02*
D03*
Y27856D02*
D03*
X58086D02*
D03*
Y27344D02*
D03*
X55386Y29006D02*
D03*
Y28750D02*
D03*
Y28494D02*
D03*
X56114D02*
D03*
Y29006D02*
D03*
X58814Y28494D02*
D03*
Y28750D02*
D03*
Y29006D02*
D03*
X58086D02*
D03*
Y28494D02*
D03*
X55386Y30156D02*
D03*
Y29900D02*
D03*
Y29644D02*
D03*
X56114D02*
D03*
Y30156D02*
D03*
X58814Y29644D02*
D03*
Y29900D02*
D03*
Y30156D02*
D03*
X58086D02*
D03*
Y29644D02*
D03*
D28*
X56650Y22145D02*
D03*
Y21555D02*
D03*
X57550Y21555D02*
D03*
Y22145D02*
D03*
X56650Y23295D02*
D03*
Y22705D02*
D03*
X57550Y22705D02*
D03*
Y23295D02*
D03*
X56650Y24445D02*
D03*
Y23855D02*
D03*
X57550Y23855D02*
D03*
Y24445D02*
D03*
X56650Y25595D02*
D03*
Y25005D02*
D03*
X57550Y25005D02*
D03*
Y25595D02*
D03*
X56650Y26745D02*
D03*
Y26155D02*
D03*
X57550Y26155D02*
D03*
Y26745D02*
D03*
X56650Y27895D02*
D03*
Y27305D02*
D03*
X57550Y27305D02*
D03*
Y27895D02*
D03*
X56650Y29045D02*
D03*
Y28455D02*
D03*
X57550Y28455D02*
D03*
Y29045D02*
D03*
X56650Y30195D02*
D03*
Y29605D02*
D03*
X57550Y29605D02*
D03*
Y30195D02*
D03*
D29*
X56805Y20450D02*
D03*
X57395D02*
D03*
D30*
X53100Y32600D02*
D03*
X53550Y29900D02*
D03*
Y28750D02*
D03*
Y27600D02*
D03*
Y26450D02*
D03*
Y25300D02*
D03*
Y24150D02*
D03*
Y23000D02*
D03*
Y21850D02*
D03*
X60650Y29900D02*
D03*
Y28750D02*
D03*
Y27600D02*
D03*
Y26450D02*
D03*
Y25300D02*
D03*
Y24150D02*
D03*
Y23000D02*
D03*
Y21850D02*
D03*
X56600Y19750D02*
D03*
D31*
X61100Y31600D02*
D03*
Y32600D02*
D03*
X60100Y31600D02*
D03*
Y32600D02*
D03*
X59100Y31600D02*
D03*
Y32600D02*
D03*
X58100Y31600D02*
D03*
Y32600D02*
D03*
X57100Y31600D02*
D03*
Y32600D02*
D03*
X56100Y31600D02*
D03*
Y32600D02*
D03*
X55100Y31600D02*
D03*
Y32600D02*
D03*
X54100Y31600D02*
D03*
Y32600D02*
D03*
X53100Y31600D02*
D03*
X54550Y29900D02*
D03*
Y28750D02*
D03*
Y27600D02*
D03*
Y26450D02*
D03*
Y25300D02*
D03*
Y24150D02*
D03*
Y23000D02*
D03*
Y21850D02*
D03*
X59650Y29900D02*
D03*
Y28750D02*
D03*
Y27600D02*
D03*
Y26450D02*
D03*
Y25300D02*
D03*
Y24150D02*
D03*
Y23000D02*
D03*
Y21850D02*
D03*
X57600Y19750D02*
D03*
D32*
X54000Y18700D02*
D03*
X60250D02*
D03*
Y34800D02*
D03*
X54000D02*
D03*
M02*
