M48
;Layer_Color=9474304
;FILE_FORMAT=2:4
INCH,TZ
;TYPE=PLATED
T1F00S00C0.0354
T2F00S00C0.1181
%
T01
X53550Y21850
X54550
Y23000
X53550
Y24150
X54550
Y25300
X53550
Y26450
X54550
Y27600
X53550
Y28750
X54550
Y29900
X53550
X59650
X60650
Y28750
X59650
Y27600
X60650
Y26450
X59650
Y25300
X60650
Y24150
X59650
Y23000
X60650
Y21850
X59650
X57600Y19750
X56600
X57100Y31600
X58100
X59100
X60100
X61100
Y32600
X60100
X59100
X58100
X57100
X56100
Y31600
X55100
Y32600
X54100
X53100
Y31600
X54100
T02
X54000Y18700
X60250
Y34800
X54000
M30
