%FSLAX24Y24*%
%MOIN*%
G70*
G01*
G75*
G04 Layer_Color=32768*
%ADD10R,0.0276X0.0354*%
%ADD11R,0.0335X0.0138*%
%ADD12R,0.0354X0.0276*%
%ADD13R,0.0433X0.0551*%
%ADD14C,0.0100*%
%ADD15C,0.0300*%
%ADD16C,0.0250*%
%ADD17R,0.0591X0.0591*%
%ADD18C,0.0591*%
%ADD19C,0.1969*%
%ADD20C,0.0150*%
%ADD21C,0.0200*%
%ADD22C,0.0098*%
%ADD23C,0.0079*%
%ADD24C,0.0063*%
%ADD25C,0.0060*%
%ADD26R,0.0356X0.0434*%
%ADD27R,0.0415X0.0218*%
%ADD28R,0.0434X0.0356*%
%ADD29R,0.0513X0.0631*%
%ADD30R,0.0671X0.0671*%
%ADD31C,0.0671*%
%ADD32C,0.2049*%
%ADD33C,0.0080*%
%ADD34C,0.0039*%
D34*
X56100Y20863D02*
Y21237D01*
X55913Y21050D02*
X56287D01*
X55628Y20833D02*
X56572D01*
X55628Y21267D02*
X56572D01*
Y20833D02*
Y21267D01*
X55628Y20833D02*
Y21267D01*
X57100Y20863D02*
Y21237D01*
X56913Y21050D02*
X57287D01*
X56628Y21267D02*
X57572D01*
X56628Y20833D02*
X57572D01*
X56628D02*
Y21267D01*
X57572Y20833D02*
Y21267D01*
X55120Y21319D02*
Y22381D01*
X56380Y21319D02*
Y22381D01*
X55120D02*
X56380D01*
X55120Y21319D02*
X56380D01*
X55553Y21850D02*
X55947D01*
X55750Y21653D02*
Y22047D01*
X59080Y21319D02*
Y22381D01*
X57820Y21319D02*
Y22381D01*
Y21319D02*
X59080D01*
X57820Y22381D02*
X59080D01*
X58253Y21850D02*
X58647D01*
X58450Y21653D02*
Y22047D01*
X56463Y21850D02*
X56837D01*
X56650Y21663D02*
Y22037D01*
X56867Y21378D02*
Y22322D01*
X56433Y21378D02*
Y22322D01*
X56867D01*
X56433Y21378D02*
X56867D01*
X57363Y21850D02*
X57737D01*
X57550Y21663D02*
Y22037D01*
X57333Y21378D02*
Y22322D01*
X57767Y21378D02*
Y22322D01*
X57333Y21378D02*
X57767D01*
X57333Y22322D02*
X57767D01*
X55120Y22469D02*
Y23531D01*
X56380Y22469D02*
Y23531D01*
X55120D02*
X56380D01*
X55120Y22469D02*
X56380D01*
X55553Y23000D02*
X55947D01*
X55750Y22803D02*
Y23197D01*
X59080Y22469D02*
Y23531D01*
X57820Y22469D02*
Y23531D01*
Y22469D02*
X59080D01*
X57820Y23531D02*
X59080D01*
X58253Y23000D02*
X58647D01*
X58450Y22803D02*
Y23197D01*
X56463Y23000D02*
X56837D01*
X56650Y22813D02*
Y23187D01*
X56867Y22528D02*
Y23472D01*
X56433Y22528D02*
Y23472D01*
X56867D01*
X56433Y22528D02*
X56867D01*
X57363Y23000D02*
X57737D01*
X57550Y22813D02*
Y23187D01*
X57333Y22528D02*
Y23472D01*
X57767Y22528D02*
Y23472D01*
X57333Y22528D02*
X57767D01*
X57333Y23472D02*
X57767D01*
X55120Y23619D02*
Y24681D01*
X56380Y23619D02*
Y24681D01*
X55120D02*
X56380D01*
X55120Y23619D02*
X56380D01*
X55553Y24150D02*
X55947D01*
X55750Y23953D02*
Y24347D01*
X59080Y23619D02*
Y24681D01*
X57820Y23619D02*
Y24681D01*
Y23619D02*
X59080D01*
X57820Y24681D02*
X59080D01*
X58253Y24150D02*
X58647D01*
X58450Y23953D02*
Y24347D01*
X56463Y24150D02*
X56837D01*
X56650Y23963D02*
Y24337D01*
X56867Y23678D02*
Y24622D01*
X56433Y23678D02*
Y24622D01*
X56867D01*
X56433Y23678D02*
X56867D01*
X57363Y24150D02*
X57737D01*
X57550Y23963D02*
Y24337D01*
X57333Y23678D02*
Y24622D01*
X57767Y23678D02*
Y24622D01*
X57333Y23678D02*
X57767D01*
X57333Y24622D02*
X57767D01*
X55120Y24769D02*
Y25831D01*
X56380Y24769D02*
Y25831D01*
X55120D02*
X56380D01*
X55120Y24769D02*
X56380D01*
X55553Y25300D02*
X55947D01*
X55750Y25103D02*
Y25497D01*
X59080Y24769D02*
Y25831D01*
X57820Y24769D02*
Y25831D01*
Y24769D02*
X59080D01*
X57820Y25831D02*
X59080D01*
X58253Y25300D02*
X58647D01*
X58450Y25103D02*
Y25497D01*
X56463Y25300D02*
X56837D01*
X56650Y25113D02*
Y25487D01*
X56867Y24828D02*
Y25772D01*
X56433Y24828D02*
Y25772D01*
X56867D01*
X56433Y24828D02*
X56867D01*
X57363Y25300D02*
X57737D01*
X57550Y25113D02*
Y25487D01*
X57333Y24828D02*
Y25772D01*
X57767Y24828D02*
Y25772D01*
X57333Y24828D02*
X57767D01*
X57333Y25772D02*
X57767D01*
X55120Y25919D02*
Y26981D01*
X56380Y25919D02*
Y26981D01*
X55120D02*
X56380D01*
X55120Y25919D02*
X56380D01*
X55553Y26450D02*
X55947D01*
X55750Y26253D02*
Y26647D01*
X59080Y25919D02*
Y26981D01*
X57820Y25919D02*
Y26981D01*
Y25919D02*
X59080D01*
X57820Y26981D02*
X59080D01*
X58253Y26450D02*
X58647D01*
X58450Y26253D02*
Y26647D01*
X56463Y26450D02*
X56837D01*
X56650Y26263D02*
Y26637D01*
X56867Y25978D02*
Y26922D01*
X56433Y25978D02*
Y26922D01*
X56867D01*
X56433Y25978D02*
X56867D01*
X57363Y26450D02*
X57737D01*
X57550Y26263D02*
Y26637D01*
X57333Y25978D02*
Y26922D01*
X57767Y25978D02*
Y26922D01*
X57333Y25978D02*
X57767D01*
X57333Y26922D02*
X57767D01*
X55120Y27069D02*
Y28131D01*
X56380Y27069D02*
Y28131D01*
X55120D02*
X56380D01*
X55120Y27069D02*
X56380D01*
X55553Y27600D02*
X55947D01*
X55750Y27403D02*
Y27797D01*
X59080Y27069D02*
Y28131D01*
X57820Y27069D02*
Y28131D01*
Y27069D02*
X59080D01*
X57820Y28131D02*
X59080D01*
X58253Y27600D02*
X58647D01*
X58450Y27403D02*
Y27797D01*
X56463Y27600D02*
X56837D01*
X56650Y27413D02*
Y27787D01*
X56867Y27128D02*
Y28072D01*
X56433Y27128D02*
Y28072D01*
X56867D01*
X56433Y27128D02*
X56867D01*
X57363Y27600D02*
X57737D01*
X57550Y27413D02*
Y27787D01*
X57333Y27128D02*
Y28072D01*
X57767Y27128D02*
Y28072D01*
X57333Y27128D02*
X57767D01*
X57333Y28072D02*
X57767D01*
X55120Y28219D02*
Y29281D01*
X56380Y28219D02*
Y29281D01*
X55120D02*
X56380D01*
X55120Y28219D02*
X56380D01*
X55553Y28750D02*
X55947D01*
X55750Y28553D02*
Y28947D01*
X59080Y28219D02*
Y29281D01*
X57820Y28219D02*
Y29281D01*
Y28219D02*
X59080D01*
X57820Y29281D02*
X59080D01*
X58253Y28750D02*
X58647D01*
X58450Y28553D02*
Y28947D01*
X56463Y28750D02*
X56837D01*
X56650Y28563D02*
Y28937D01*
X56867Y28278D02*
Y29222D01*
X56433Y28278D02*
Y29222D01*
X56867D01*
X56433Y28278D02*
X56867D01*
X57363Y28750D02*
X57737D01*
X57550Y28563D02*
Y28937D01*
X57333Y28278D02*
Y29222D01*
X57767Y28278D02*
Y29222D01*
X57333Y28278D02*
X57767D01*
X57333Y29222D02*
X57767D01*
X55120Y29369D02*
Y30431D01*
X56380Y29369D02*
Y30431D01*
X55120D02*
X56380D01*
X55120Y29369D02*
X56380D01*
X55553Y29900D02*
X55947D01*
X55750Y29703D02*
Y30097D01*
X59080Y29369D02*
Y30431D01*
X57820Y29369D02*
Y30431D01*
Y29369D02*
X59080D01*
X57820Y30431D02*
X59080D01*
X58253Y29900D02*
X58647D01*
X58450Y29703D02*
Y30097D01*
X56463Y29900D02*
X56837D01*
X56650Y29713D02*
Y30087D01*
X56867Y29428D02*
Y30372D01*
X56433Y29428D02*
Y30372D01*
X56867D01*
X56433Y29428D02*
X56867D01*
X57363Y29900D02*
X57737D01*
X57550Y29713D02*
Y30087D01*
X57333Y29428D02*
Y30372D01*
X57767Y29428D02*
Y30372D01*
X57333Y29428D02*
X57767D01*
X57333Y30372D02*
X57767D01*
X56539Y20135D02*
Y20765D01*
X57661Y20135D02*
Y20765D01*
X56539D02*
X57661D01*
X56539Y20135D02*
X57661D01*
X56903Y20450D02*
X57297D01*
X57100Y20253D02*
Y20647D01*
M02*
