%FSLAX24Y24*%
%MOIN*%
G70*
G01*
G75*
G04 Layer_Color=255*
%ADD10R,0.0276X0.0354*%
%ADD11R,0.0335X0.0138*%
%ADD12R,0.0354X0.0276*%
%ADD13R,0.0433X0.0551*%
%ADD14C,0.0100*%
%ADD15C,0.0300*%
%ADD16C,0.0250*%
%ADD17R,0.0591X0.0591*%
%ADD18C,0.0591*%
%ADD19C,0.1969*%
%ADD20C,0.0150*%
%ADD21C,0.0200*%
D17*
X53100Y32600D02*
D03*
X53550Y29900D02*
D03*
Y28750D02*
D03*
Y27600D02*
D03*
Y26450D02*
D03*
Y25300D02*
D03*
Y24150D02*
D03*
Y23000D02*
D03*
Y21850D02*
D03*
X60650Y29900D02*
D03*
Y28750D02*
D03*
Y27600D02*
D03*
Y26450D02*
D03*
Y25300D02*
D03*
Y24150D02*
D03*
Y23000D02*
D03*
Y21850D02*
D03*
X56600Y19750D02*
D03*
D18*
X61100Y31600D02*
D03*
Y32600D02*
D03*
X60100Y31600D02*
D03*
Y32600D02*
D03*
X59100Y31600D02*
D03*
Y32600D02*
D03*
X58100Y31600D02*
D03*
Y32600D02*
D03*
X57100Y31600D02*
D03*
Y32600D02*
D03*
X56100Y31600D02*
D03*
Y32600D02*
D03*
X55100Y31600D02*
D03*
Y32600D02*
D03*
X54100Y31600D02*
D03*
Y32600D02*
D03*
X53100Y31600D02*
D03*
X54550Y29900D02*
D03*
Y28750D02*
D03*
Y27600D02*
D03*
Y26450D02*
D03*
Y25300D02*
D03*
Y24150D02*
D03*
Y23000D02*
D03*
Y21850D02*
D03*
X59650Y29900D02*
D03*
Y28750D02*
D03*
Y27600D02*
D03*
Y26450D02*
D03*
Y25300D02*
D03*
Y24150D02*
D03*
Y23000D02*
D03*
Y21850D02*
D03*
X57600Y19750D02*
D03*
D19*
X54000Y18700D02*
D03*
X60250D02*
D03*
Y34800D02*
D03*
X54000D02*
D03*
M02*
